<svg width="14" height="25" viewBox="0 0 14 25" fill="none" xmlns="http://www.w3.org/2000/svg">
<g id="Icon">
<path id="Vector" d="M4.78674 9.57965C4.78674 9.73199 4.84387 9.86106 4.95813 9.96686C5.07239 10.0727 5.20569 10.1213 5.35803 10.1129L9.00159 10.0113L3.45374 15.5591C3.34371 15.6692 3.2887 15.8004 3.2887 15.9527C3.2887 16.105 3.34371 16.2362 3.45374 16.3463C3.56376 16.4563 3.69495 16.5113 3.84729 16.5113C3.99963 16.5113 4.13082 16.4563 4.24084 16.3463L9.7887 10.7984L9.68713 14.442C9.67867 14.5943 9.72734 14.7276 9.83313 14.8419C9.93892 14.9561 10.068 15.0132 10.2203 15.0132C10.3727 15.0132 10.506 14.9625 10.6202 14.8609C10.7345 14.7593 10.7916 14.6324 10.7916 14.48L10.9313 9.44C10.9313 9.44 10.9313 9.43789 10.9313 9.43365C10.9313 9.42942 10.9313 9.42731 10.9313 9.42731C10.9313 9.41884 10.9313 9.41038 10.9313 9.40192C10.9313 9.39345 10.9313 9.38499 10.9313 9.37653C10.9228 9.31728 10.908 9.26015 10.8868 9.20514C10.8657 9.15013 10.8339 9.10146 10.7916 9.05914C10.7747 9.04222 10.7599 9.0274 10.7472 9.01471C10.7345 9.00201 10.7197 8.9872 10.7028 8.97028C10.6604 8.94489 10.6139 8.92161 10.5631 8.90045C10.5123 8.87929 10.4573 8.86871 10.3981 8.86871C10.3896 8.86871 10.3833 8.86871 10.379 8.86871C10.3748 8.86871 10.3684 8.86871 10.36 8.86871L5.31995 9.00836C5.1676 9.00836 5.04065 9.06549 4.93909 9.17975C4.83752 9.29401 4.78674 9.42731 4.78674 9.57965ZM10.7662 9.82086L10.3727 9.42731L10.36 8.86871L10.7662 9.82086Z" fill="white"/>
</g>
</svg>
