<svg width="104" height="43" viewBox="0 0 104 43" fill="none" xmlns="http://www.w3.org/2000/svg">
<g id="about-ayoluchun.svg" clip-path="url(#clip0_10_227)">
<g id="Clip path group">
<mask id="mask0_10_227" style="mask-type:luminance" maskUnits="userSpaceOnUse" x="0" y="0" width="104" height="42">
<g id="a">
<path id="Vector" d="M104 0.189453H0V41.9142H104V0.189453Z" fill="white"/>
</g>
</mask>
<g mask="url(#mask0_10_227)">
<g id="Group">
<path id="Vector_2" d="M11.0615 35.6514H8.32325L7.53702 33.1571H3.5245L2.73827 35.6514H0L4.09385 24.4272H7.10323L11.0615 35.6514ZM6.94056 31.2051L5.74765 27.4366C5.66632 27.1654 5.58498 26.813 5.55787 26.4334H5.50365C5.47654 26.7588 5.42231 27.0841 5.31387 27.4094L4.09385 31.2051H6.94056Z" fill="white"/>
<path id="Vector_3" d="M19.5741 27.6267L16.3208 36.2753C15.5345 38.3629 14.3687 39.3931 12.7962 39.3931C12.1998 39.3931 11.7118 39.3118 11.3051 39.1762V37.1971C11.6305 37.3869 11.9829 37.4953 12.3896 37.4953C13.0131 37.4953 13.474 37.1971 13.718 36.6006L14.1518 35.5975L10.8984 27.5996H13.6367L15.1278 32.4797C15.2092 32.7779 15.2905 33.1304 15.3447 33.5641H15.3718C15.4261 33.2659 15.5074 32.9135 15.643 32.5068L17.1612 27.6267H19.5741Z" fill="white"/>
<path id="Vector_4" d="M24.3188 35.8413C22.9903 35.8413 21.933 35.4618 21.1738 34.7298C20.4147 33.9706 20.0352 32.9675 20.0352 31.6933C20.0352 30.3648 20.4418 29.3346 21.2281 28.5754C22.0143 27.8163 23.0988 27.4639 24.4543 27.4639C25.7828 27.4639 26.8402 27.8434 27.5722 28.5754C28.3313 29.3346 28.7109 30.3106 28.7109 31.5577C28.7109 32.8862 28.3313 33.9435 27.5451 34.7027C26.7317 35.4618 25.6744 35.8413 24.3188 35.8413ZM24.373 29.3346C23.7766 29.3346 23.3428 29.5243 23.0174 29.931C22.6921 30.3377 22.5294 30.907 22.5294 31.6391C22.5294 33.1844 23.153 33.9435 24.4001 33.9435C25.593 33.9435 26.1895 33.1573 26.1895 31.5848C26.1624 30.0666 25.5659 29.3346 24.373 29.3346Z" fill="white"/>
<path id="Vector_5" d="M32.7504 35.6518H30.2832V23.7769H32.7504V35.6518Z" fill="white"/>
<path id="Vector_6" d="M43.1889 31.1508C43.1889 34.2958 41.8062 35.8411 39.0679 35.8411C36.4381 35.8411 35.1367 34.3229 35.1367 31.3135V24.4272H36.167V31.2322C36.167 32.4522 36.411 33.374 36.899 33.9976C37.387 34.6211 38.1732 34.9194 39.2035 34.9194C41.1555 34.9194 42.1586 33.7264 42.1586 31.3406V24.4272H43.1889V31.1508Z" fill="white"/>
<path id="Vector_7" d="M51.1322 35.2993C50.5358 35.6518 49.8038 35.8416 48.9633 35.8416C48.394 35.8416 47.8788 35.7602 47.4179 35.5433C46.9571 35.3264 46.5775 35.0553 46.2522 34.7029C45.9268 34.3504 45.6828 33.9166 45.5201 33.4286C45.3575 32.9406 45.249 32.3984 45.249 31.829C45.249 31.2326 45.3304 30.6632 45.5201 30.121C45.7099 29.5788 45.981 29.1179 46.3064 28.7383C46.6317 28.3588 47.0926 28.0334 47.5806 27.7894C48.0957 27.5725 48.6651 27.437 49.3158 27.437C49.9664 27.437 50.59 27.5725 51.1322 27.8165V28.8739C50.5358 28.4943 49.9122 28.3045 49.2344 28.3045C48.7464 28.3045 48.3397 28.3859 47.9602 28.5757C47.5806 28.7654 47.2824 29.0094 47.0384 29.3077C46.7944 29.6059 46.6046 29.9855 46.469 30.3921C46.3335 30.7988 46.2793 31.2597 46.2793 31.7206C46.2793 32.1544 46.3335 32.5611 46.4419 32.9406C46.5504 33.3202 46.713 33.6726 46.9571 33.9709C47.2011 34.2691 47.4722 34.5131 47.8246 34.6758C48.1771 34.8384 48.5837 34.9469 49.0718 34.9469C49.8309 34.9469 50.5087 34.73 51.1051 34.2691V35.2993H51.1322Z" fill="white"/>
<path id="Vector_8" d="M58.4528 35.6518V30.9344C58.4528 30.0397 58.2902 29.389 57.9648 28.9552C57.6395 28.5215 57.1244 28.3046 56.4466 28.3046C56.1212 28.3046 55.823 28.3588 55.5248 28.4944C55.2265 28.6299 54.9825 28.8197 54.7656 29.0637C54.5488 29.3077 54.359 29.6059 54.2505 29.9584C54.115 30.3108 54.0607 30.7175 54.0607 31.1513V35.6247H53.0576V23.7769H54.0607V29.0095H54.0879C54.7114 27.9521 55.6061 27.437 56.7719 27.437C57.6666 27.437 58.3444 27.7081 58.7782 28.2503C59.2391 28.7926 59.4559 29.6059 59.4559 30.6633V35.6247H58.4528V35.6518Z" fill="white"/>
<path id="Vector_9" d="M67.1013 35.6515V34.2959H67.0742C66.5319 35.3262 65.6915 35.8413 64.5528 35.8413C62.655 35.8413 61.7061 34.6755 61.7061 32.3439V27.6265H62.7092V32.1541C62.7092 33.103 62.8719 33.835 63.2243 34.2959C63.5768 34.7568 64.0919 34.9737 64.7968 34.9737C65.1492 34.9737 65.4475 34.9195 65.7457 34.7839C66.0168 34.6484 66.2879 34.4586 66.4777 34.2146C66.6946 33.9706 66.8573 33.6724 66.9657 33.347C67.0742 33.0217 67.1284 32.6421 67.1284 32.2083V27.6265H68.1315V35.6515H67.1013Z" fill="white"/>
<path id="Vector_10" d="M76.102 35.6518V31.0428C76.102 29.2263 75.4513 28.3317 74.1228 28.3317C73.7704 28.3317 73.4451 28.413 73.1468 28.5485C72.8486 28.6841 72.6046 28.8739 72.3877 29.1179C72.1708 29.3619 72.0082 29.6601 71.8726 29.9855C71.737 30.3108 71.6828 30.6904 71.6828 31.0699V35.6518H70.6797V27.6268H71.6828V29.0094H71.7099C72.3064 27.9521 73.2011 27.437 74.394 27.437C75.2615 27.437 75.9393 27.7081 76.4002 28.2774C76.8611 28.8468 77.078 29.6601 77.078 30.7446V35.6247H76.102V35.6518Z" fill="white"/>
<path id="Vector_11" d="M37.712 41.1012H37.4409V40.8301C37.3054 41.047 37.1427 41.1554 36.8987 41.1554C36.736 41.1554 36.5733 41.1012 36.492 41.0199C36.3836 40.9386 36.3564 40.803 36.3564 40.6403C36.3564 40.315 36.5462 40.1252 36.9258 40.071L37.4409 39.9897C37.4409 39.6914 37.3325 39.5288 37.0885 39.5288C36.8716 39.5288 36.6818 39.6101 36.5191 39.7456V39.4474C36.6818 39.339 36.8987 39.2847 37.1156 39.2847C37.5222 39.2847 37.7391 39.5016 37.7391 39.9354V41.1012H37.712ZM37.4138 40.2065L36.98 40.2608C36.8445 40.2879 36.7631 40.315 36.6818 40.3692C36.6276 40.4234 36.5733 40.5048 36.5733 40.6132C36.5733 40.6946 36.6004 40.7759 36.6547 40.8301C36.7089 40.8843 36.7902 40.9114 36.8987 40.9114C37.0342 40.9114 37.1427 40.8572 37.2511 40.7759C37.3325 40.6674 37.3867 40.559 37.3867 40.3963V40.2065H37.4138Z" fill="white"/>
<path id="Vector_12" d="M39.6372 39.3389L38.8239 41.3723C38.6883 41.7248 38.4714 41.9145 38.2274 41.9145C38.1461 41.9145 38.0918 41.9145 38.0376 41.8874V41.6434C38.0918 41.6705 38.1461 41.6705 38.2003 41.6705C38.3358 41.6705 38.4443 41.5892 38.5256 41.4265L38.6612 41.1012L37.9834 39.3389H38.3087L38.7967 40.6945C38.7967 40.7216 38.8239 40.7487 38.8239 40.8301C38.8239 40.803 38.851 40.7487 38.851 40.6945L39.339 39.3389H39.6372Z" fill="white"/>
<path id="Vector_13" d="M40.6674 41.1283C40.3963 41.1283 40.2065 41.047 40.0438 40.8843C39.8811 40.7217 39.7998 40.5048 39.7998 40.2337C39.7998 39.9354 39.8811 39.7185 40.0438 39.5288C40.2065 39.3661 40.4234 39.2847 40.6945 39.2847C40.9656 39.2847 41.1554 39.3661 41.318 39.5288C41.4807 39.6914 41.5349 39.9083 41.5349 40.2065C41.5349 40.4777 41.4536 40.7217 41.2909 40.8843C41.1283 41.047 40.9114 41.1283 40.6674 41.1283ZM40.6674 39.5288C40.4776 39.5288 40.342 39.583 40.2336 39.7185C40.1251 39.8541 40.0709 40.0168 40.0709 40.2337C40.0709 40.4505 40.1251 40.6132 40.2336 40.7217C40.342 40.8301 40.4776 40.9114 40.6674 40.9114C40.8572 40.9114 40.9927 40.8572 41.1012 40.7217C41.2096 40.6132 41.2367 40.4234 41.2367 40.2065C41.2367 39.9897 41.1825 39.827 41.1012 39.6914C40.9927 39.583 40.8572 39.5288 40.6674 39.5288Z" fill="white"/>
<path id="Vector_14" d="M42.2672 41.1012H41.9961V38.4985H42.2672V41.1012Z" fill="white"/>
<path id="Vector_15" d="M43.1071 41.1012H42.8359V38.4985H43.1071V41.1012Z" fill="white"/>
<path id="Vector_16" d="M44.9513 41.1012H44.6802V40.8301C44.5446 41.047 44.3819 41.1554 44.1379 41.1554C43.9753 41.1554 43.8126 41.1012 43.7313 41.0199C43.6228 40.9386 43.5957 40.803 43.5957 40.6403C43.5957 40.315 43.7855 40.1252 44.165 40.071L44.6802 39.9897C44.6802 39.6914 44.5717 39.5288 44.3277 39.5288C44.1108 39.5288 43.921 39.6101 43.7584 39.7456V39.4474C43.921 39.339 44.1379 39.2847 44.3548 39.2847C44.7615 39.2847 44.9784 39.5016 44.9784 39.9354V41.1012H44.9513ZM44.6802 40.2065L44.2464 40.2608C44.1108 40.2879 44.0295 40.315 43.9482 40.3692C43.8939 40.4234 43.8397 40.5048 43.8397 40.6132C43.8397 40.6946 43.8668 40.7759 43.921 40.8301C43.9753 40.8843 44.0566 40.9114 44.165 40.9114C44.3006 40.9114 44.409 40.8572 44.5175 40.7759C44.5988 40.6674 44.653 40.559 44.653 40.3963V40.2065H44.6802Z" fill="white"/>
<path id="Vector_17" d="M46.4152 39.6098C46.361 39.5827 46.3067 39.5556 46.1983 39.5556C46.0898 39.5556 45.9814 39.6098 45.9001 39.7182C45.8187 39.8267 45.7916 39.9894 45.7916 40.1791V41.0738H45.5205V39.3116H45.7916V39.664C45.8187 39.5285 45.9001 39.4471 45.9814 39.3658C46.0627 39.2845 46.1441 39.2573 46.2525 39.2573C46.3339 39.2573 46.3881 39.2573 46.4152 39.2845V39.6098Z" fill="white"/>
<path id="Vector_18" d="M49.099 41.1012H48.8279V40.8301C48.7195 41.047 48.5297 41.1554 48.2857 41.1554C47.879 41.1554 47.6621 40.9114 47.6621 40.3963V39.3389H47.9332V40.3421C47.9332 40.7216 48.0688 40.9114 48.367 40.9114C48.5026 40.9114 48.611 40.8572 48.7195 40.7488C48.8008 40.6403 48.855 40.5047 48.855 40.3421V39.3389H49.1261V41.1012H49.099Z" fill="white"/>
<path id="Vector_19" d="M50.8607 41.0196C50.7251 41.1009 50.5625 41.1551 50.3727 41.1551C50.1287 41.1551 49.9118 41.0738 49.7762 40.9111C49.6136 40.7485 49.5322 40.5316 49.5322 40.2876C49.5322 39.9893 49.6136 39.7724 49.7762 39.5827C49.9389 39.3929 50.1558 39.3115 50.454 39.3115C50.6167 39.3115 50.7523 39.3387 50.8607 39.3929V39.6911C50.7251 39.6098 50.5896 39.5556 50.454 39.5556C50.2642 39.5556 50.1287 39.6098 50.0202 39.7453C49.9118 39.8809 49.8576 40.0436 49.8576 40.2605C49.8576 40.4773 49.9118 40.64 50.0202 40.7485C50.1287 40.8569 50.2642 40.9382 50.454 40.9382C50.6167 40.9382 50.7523 40.884 50.8878 40.7756V41.0196H50.8607Z" fill="white"/>
<path id="Vector_20" d="M52.7592 41.101H52.4881V40.0979C52.4881 39.7183 52.3525 39.5556 52.0814 39.5556C51.9458 39.5556 51.8374 39.6099 51.7289 39.7183C51.6476 39.8268 51.5934 39.9623 51.5934 40.125V41.1281H51.3223V38.5254H51.5934V39.6641C51.7289 39.4472 51.9187 39.3387 52.1627 39.3387C52.5694 39.3387 52.7592 39.5827 52.7592 40.0436V41.101Z" fill="white"/>
<path id="Vector_21" d="M54.7113 41.1012H54.4402V40.8301C54.3318 41.047 54.142 41.1554 53.898 41.1554C53.4913 41.1554 53.2744 40.9114 53.2744 40.3963V39.3389H53.5455V40.3421C53.5455 40.7216 53.6811 40.9114 53.9793 40.9114C54.1149 40.9114 54.2233 40.8572 54.3318 40.7488C54.4131 40.6403 54.4673 40.5047 54.4673 40.3421V39.3389H54.7384V41.1012H54.7113Z" fill="white"/>
<path id="Vector_22" d="M56.7445 41.1009H56.4734V40.0978C56.4734 39.7182 56.3379 39.5284 56.0667 39.5284C55.9312 39.5284 55.7956 39.5827 55.7143 39.6911C55.633 39.7996 55.5787 39.9351 55.5787 40.0978V41.1009H55.3076V39.3387H55.5787V39.6369C55.7143 39.42 55.9041 39.3115 56.1481 39.3115C56.3379 39.3115 56.5005 39.3658 56.5819 39.5013C56.6632 39.6369 56.7445 39.7996 56.7445 40.0436V41.1009Z" fill="white"/>
<path id="Vector_23" d="M60.7301 41.1012H60.459V40.0981C60.459 39.9083 60.4319 39.7728 60.3776 39.6643C60.3234 39.5559 60.215 39.5288 60.0794 39.5288C59.971 39.5288 59.8625 39.583 59.7812 39.6914C59.6998 39.7999 59.6456 39.9354 59.6456 40.0981V41.1012H59.3745V40.0439C59.3745 39.6914 59.2389 39.5288 58.9678 39.5288C58.8323 39.5288 58.7509 39.583 58.6696 39.6914C58.5883 39.7999 58.5612 39.9354 58.5612 40.0981V41.1012H58.29V39.339H58.5612V39.6101C58.6967 39.3932 58.8594 39.2847 59.1034 39.2847C59.2118 39.2847 59.3203 39.3119 59.4287 39.3932C59.5101 39.4474 59.5914 39.5559 59.6185 39.6643C59.7541 39.4203 59.9439 39.3119 60.215 39.3119C60.5945 39.3119 60.7843 39.5559 60.7843 40.0168V41.1012H60.7301Z" fill="white"/>
<path id="Vector_24" d="M62.546 41.1012H62.2749V40.8301C62.1393 41.047 61.9767 41.1554 61.7327 41.1554C61.57 41.1554 61.4073 41.1012 61.326 41.0199C61.2175 40.9386 61.1904 40.803 61.1904 40.6403C61.1904 40.315 61.3802 40.1252 61.7598 40.071L62.2749 39.9897C62.2749 39.6914 62.1664 39.5288 61.9224 39.5288C61.7055 39.5288 61.5158 39.6101 61.3531 39.7456V39.4474C61.5158 39.339 61.7327 39.2847 61.9496 39.2847C62.3562 39.2847 62.5731 39.5016 62.5731 39.9354V41.1012H62.546ZM62.2478 40.2065L61.814 40.2608C61.6784 40.2879 61.5971 40.315 61.5158 40.3692C61.4615 40.4234 61.4073 40.5048 61.4073 40.6132C61.4073 40.6946 61.4344 40.7759 61.4887 40.8301C61.5429 40.8843 61.6242 40.9114 61.7327 40.9114C61.8682 40.9114 61.9767 40.8572 62.0851 40.7759C62.1664 40.6674 62.2207 40.559 62.2207 40.3963V40.2065H62.2478Z" fill="white"/>
<path id="Vector_25" d="M64.3627 39.3389L63.7663 40.2336L64.3356 41.1012H64.0103L63.6578 40.5319C63.6307 40.5047 63.6036 40.4505 63.5765 40.3963C63.5765 40.3963 63.5494 40.4505 63.4952 40.5319L63.1427 41.1012H62.8174L63.4138 40.2336L62.8445 39.3389H63.1698L63.5223 39.9354C63.5494 39.9896 63.5765 40.0167 63.6036 40.071L64.0374 39.3389H64.3627Z" fill="white"/>
<path id="Vector_26" d="M64.5801 41.0199V40.7217C64.7427 40.8301 64.9054 40.8843 65.0952 40.8843C65.3392 40.8843 65.4748 40.803 65.4748 40.6403C65.4748 40.5861 65.4748 40.559 65.4476 40.5319C65.4205 40.5048 65.3934 40.4777 65.3663 40.4505C65.3392 40.4234 65.285 40.3963 65.2308 40.3692C65.1765 40.3421 65.1223 40.315 65.0681 40.315C64.9868 40.2879 64.9325 40.2608 64.8512 40.2337C64.7699 40.2065 64.7427 40.1794 64.7156 40.1252C64.6885 40.0981 64.6343 40.0439 64.6343 39.9897C64.6072 39.9354 64.6072 39.8812 64.6072 39.7999C64.6072 39.7185 64.6343 39.6372 64.6614 39.583C64.6885 39.5288 64.7427 39.4745 64.8241 39.4203C64.8783 39.3661 64.9596 39.339 65.041 39.3119C65.1223 39.2848 65.2036 39.2847 65.285 39.2847C65.4476 39.2847 65.5832 39.3119 65.6917 39.3661V39.6643C65.5561 39.583 65.4205 39.5288 65.2579 39.5288C65.2036 39.5288 65.1494 39.5288 65.1223 39.5559C65.0681 39.5559 65.041 39.583 65.0139 39.6101C64.9868 39.6372 64.9596 39.6643 64.9325 39.6914C64.9054 39.7185 64.9054 39.7456 64.9054 39.7999C64.9054 39.8541 64.9054 39.8812 64.9325 39.9083C64.9596 39.9354 64.9868 39.9625 65.0139 39.9897C65.041 40.0168 65.0952 40.0439 65.1223 40.0439C65.1765 40.071 65.2308 40.0981 65.285 40.0981C65.3663 40.1252 65.4205 40.1523 65.5019 40.1794C65.5832 40.2065 65.6103 40.2337 65.6645 40.2879C65.7188 40.315 65.7459 40.3692 65.773 40.4234C65.8001 40.4777 65.8001 40.5319 65.8001 40.6132C65.8001 40.6946 65.773 40.7759 65.7459 40.8301C65.7188 40.8843 65.6645 40.9386 65.5832 40.9928C65.5019 41.047 65.4476 41.0741 65.3663 41.0741C65.285 41.1012 65.2036 41.1012 65.0952 41.1012C64.8783 41.1283 64.7156 41.1012 64.5801 41.0199Z" fill="white"/>
<path id="Vector_27" d="M67.6156 41.1012H67.3445V40.8301C67.2361 41.047 67.0463 41.1554 66.8023 41.1554C66.3956 41.1554 66.1787 40.9114 66.1787 40.3963V39.3389H66.4498V40.3421C66.4498 40.7216 66.5854 40.9114 66.8836 40.9114C67.0192 40.9114 67.1276 40.8572 67.2361 40.7488C67.3174 40.6403 67.3716 40.5047 67.3716 40.3421V39.3389H67.6427V41.1012H67.6156Z" fill="white"/>
<path id="Vector_28" d="M68.0771 41.0199V40.7217C68.2398 40.8301 68.4025 40.8843 68.5923 40.8843C68.8363 40.8843 68.9718 40.803 68.9718 40.6403C68.9718 40.5861 68.9718 40.559 68.9447 40.5319C68.9176 40.5048 68.8905 40.4777 68.8634 40.4505C68.8363 40.4234 68.782 40.3963 68.7278 40.3692C68.6736 40.3421 68.6194 40.315 68.5652 40.315C68.4838 40.2879 68.4296 40.2608 68.3483 40.2337C68.2669 40.2065 68.2398 40.1794 68.2127 40.1252C68.1856 40.0981 68.1314 40.0439 68.1314 39.9897C68.1043 39.9354 68.1043 39.8812 68.1043 39.7999C68.1043 39.7185 68.1314 39.6372 68.1585 39.583C68.1856 39.5288 68.2398 39.4745 68.3212 39.4203C68.3754 39.3661 68.4567 39.339 68.538 39.3119C68.6194 39.2848 68.7007 39.2847 68.782 39.2847C68.9447 39.2847 69.0803 39.3119 69.1887 39.3661V39.6643C69.0532 39.583 68.9176 39.5288 68.7549 39.5288C68.7007 39.5288 68.6465 39.5288 68.6194 39.5559C68.5652 39.5559 68.538 39.583 68.5109 39.6101C68.4838 39.6372 68.4567 39.6643 68.4296 39.6914C68.4025 39.7185 68.4025 39.7456 68.4025 39.7999C68.4025 39.8541 68.4025 39.8812 68.4296 39.9083C68.4567 39.9354 68.4838 39.9625 68.5109 39.9897C68.538 40.0168 68.5923 40.0439 68.6194 40.0439C68.6736 40.071 68.7278 40.0981 68.782 40.0981C68.8634 40.1252 68.9176 40.1523 68.9989 40.1794C69.0803 40.2065 69.1074 40.2337 69.1616 40.2879C69.2158 40.315 69.2429 40.3692 69.2701 40.4234C69.2972 40.4777 69.2972 40.5319 69.2972 40.6132C69.2972 40.6946 69.2701 40.7759 69.2429 40.8301C69.2158 40.8843 69.1616 40.9386 69.0803 40.9928C68.9989 41.047 68.9447 41.0741 68.8634 41.0741C68.782 41.1012 68.7007 41.1012 68.5923 41.1012C68.3483 41.1283 68.2127 41.1012 68.0771 41.0199Z" fill="white"/>
<path id="Vector_29" d="M70.9235 40.8299V41.0739H70.6523V38.4712H70.9235V39.637C71.059 39.393 71.2759 39.2845 71.5199 39.2845C71.7368 39.2845 71.9266 39.3659 72.0621 39.5285C72.1977 39.6912 72.2519 39.9081 72.2519 40.1521C72.2519 40.4503 72.1706 40.6943 72.035 40.857C71.8995 41.0468 71.6826 41.1281 71.4386 41.1281C71.2217 41.1281 71.0319 41.0197 70.9235 40.8299ZM70.9235 40.125V40.369C70.9235 40.5046 70.9777 40.6401 71.059 40.7486C71.1404 40.857 71.2759 40.9112 71.4115 40.9112C71.5741 40.9112 71.7097 40.857 71.8181 40.7215C71.9266 40.5859 71.9537 40.3961 71.9537 40.1792C71.9537 39.9894 71.8995 39.8268 71.8181 39.7183C71.7368 39.6099 71.6013 39.5557 71.4386 39.5557C71.2759 39.5557 71.1404 39.6099 71.0319 39.7183C70.9235 39.8268 70.9235 39.9623 70.9235 40.125Z" fill="white"/>
<path id="Vector_30" d="M72.984 41.1012H72.7129V38.4985H72.984V41.1012Z" fill="white"/>
<path id="Vector_31" d="M74.2855 41.1283C74.0144 41.1283 73.8247 41.047 73.662 40.8843C73.4993 40.7217 73.418 40.5048 73.418 40.2337C73.418 39.9354 73.4993 39.7185 73.662 39.5288C73.8247 39.3661 74.0415 39.2847 74.3127 39.2847C74.5838 39.2847 74.7736 39.3661 74.9362 39.5288C75.0989 39.6914 75.1531 39.9083 75.1531 40.2065C75.1531 40.4777 75.0718 40.7217 74.9091 40.8843C74.7464 41.047 74.5567 41.1283 74.2855 41.1283ZM74.3127 39.5288C74.1229 39.5288 73.9873 39.583 73.8789 39.7185C73.7704 39.8541 73.7162 40.0168 73.7162 40.2337C73.7162 40.4505 73.7704 40.6132 73.8789 40.7217C73.9873 40.8301 74.1229 40.9114 74.3127 40.9114C74.5024 40.9114 74.638 40.8572 74.7464 40.7217C74.8549 40.6132 74.882 40.4234 74.882 40.2065C74.882 39.9897 74.8278 39.827 74.7464 39.6914C74.638 39.583 74.5024 39.5288 74.3127 39.5288Z" fill="white"/>
<path id="Vector_32" d="M77.1318 40.9383C77.1318 41.5889 76.8336 41.9143 76.21 41.9143C75.9931 41.9143 75.8033 41.8601 75.6407 41.7787V41.5076C75.8305 41.6161 76.0202 41.6703 76.21 41.6703C76.6438 41.6703 76.8607 41.4534 76.8607 40.9654V40.7756C76.7251 40.9925 76.5354 41.1009 76.2642 41.1009C76.0473 41.1009 75.8576 41.0196 75.722 40.8569C75.5864 40.6943 75.5322 40.4774 75.5322 40.2334C75.5322 39.9351 75.6136 39.6911 75.7491 39.5285C75.8847 39.3387 76.1016 39.2573 76.3456 39.2573C76.5896 39.2573 76.7522 39.3658 76.8607 39.5556V39.3116H77.1318V40.9383ZM76.8336 40.2876V40.0165C76.8336 39.8809 76.7794 39.7454 76.698 39.664C76.6167 39.5556 76.4811 39.5014 76.3456 39.5014C76.1829 39.5014 76.0473 39.5556 75.9389 39.6911C75.8305 39.8267 75.8033 39.9894 75.8033 40.2334C75.8033 40.4231 75.8576 40.5858 75.9389 40.6943C76.0202 40.8027 76.1558 40.884 76.3185 40.884C76.4811 40.884 76.6167 40.8298 76.698 40.7214C76.8065 40.6129 76.8336 40.4774 76.8336 40.2876Z" fill="white"/>
<path id="Vector_33" d="M99.3366 2.16882C93.4533 -2.06058 87.0279 2.27727 85.835 3.17195C85.7265 3.25329 85.5639 3.22617 85.4554 3.14484C80.1416 -2.00636 68.836 -0.379668 67.372 7.88936C65.9893 15.6162 75.2615 21.7163 81.3887 25.0781C85.0488 27.0844 85.3199 29.3346 85.1301 30.5275C85.103 30.7173 85.3741 30.8258 85.4825 30.6631C86.7839 28.8466 87.1364 26.3523 87.055 24.4003C86.9466 20.8758 83.0696 21.4451 82.0394 20.7131C81.1176 20.0625 81.9038 18.3815 82.0936 18.0562C82.1207 18.0291 82.1207 17.9749 82.0936 17.9478C81.6598 17.2971 82.1207 16.7006 82.2563 16.538C82.2834 16.5108 82.2834 16.4837 82.2563 16.4566C81.958 15.7788 82.2834 15.5891 82.5003 15.3179C82.7172 15.0468 83.0425 14.8299 82.7172 14.4775C82.4189 14.125 81.9851 13.7726 82.2291 13.3117C82.3918 12.9592 83.395 12.7423 83.9643 12.2001C83.9101 12.173 83.8558 12.1459 83.8016 12.1188C83.7203 12.0645 83.639 12.0103 83.5847 11.929C83.5305 11.8477 83.4763 11.7934 83.4221 11.7121C83.4763 11.7934 83.5305 11.8477 83.6118 11.9019C83.6932 11.9561 83.7474 12.0103 83.8287 12.0374C83.9101 12.0645 83.9914 12.0917 84.0727 12.0917C84.2083 11.929 84.3167 11.7392 84.3439 11.5223C84.5065 10.2481 84.8047 8.64849 85.6181 7.2658C86.4314 5.88311 87.3804 4.9342 89.1968 8.86538C90.6609 12.0645 92.7484 13.1219 93.5076 13.4201C93.6702 13.4743 93.7245 13.6641 93.6702 13.7997C91.5284 19.466 93.1009 23.587 93.7245 24.8612C93.8329 25.0781 94.104 25.1865 94.348 25.051C99.3908 22.2856 101.939 18.002 101.939 18.002C104.352 14.5859 105.843 6.83201 99.3366 2.16882Z" fill="white"/>
</g>
</g>
</g>
</g>
<defs>
<clipPath id="clip0_10_227">
<rect width="104" height="42" fill="white" transform="translate(0 0.189453)"/>
</clipPath>
</defs>
</svg>
