<svg width="25" height="25" viewBox="0 0 25 25" fill="none" xmlns="http://www.w3.org/2000/svg">
<g id="SVG - icon">
<path id="Vector" d="M24.13 12.69C24.13 6.06259 18.7574 0.690002 12.13 0.690002C5.50256 0.690002 0.129974 6.06259 0.129974 12.69C0.129974 19.3174 5.50256 24.69 12.13 24.69C18.7574 24.69 24.13 19.3174 24.13 12.69Z" fill="white" fill-opacity="0.3"/>
<path id="Vector_2" d="M13.0995 14.3477C12.8626 14.5844 12.6257 14.9395 12.4481 15.2355C11.3822 14.4068 10.4347 13.4006 9.60563 12.3944C9.96094 12.2169 10.2571 11.9801 10.4939 11.7434C11.6783 10.5596 11.2637 9.02068 10.0794 7.83691C8.89503 6.65314 7.4146 6.17963 6.17104 7.42259C4.92747 8.66555 4.80904 10.7963 5.75652 12.1577C7.47381 14.762 10.0794 17.3663 12.685 19.0827C14.1062 20.0298 16.238 19.8522 17.4223 18.6684C18.6067 17.4846 18.1922 15.9457 17.0078 14.762C15.8235 13.5782 14.2838 13.1047 13.0995 14.3477Z" stroke="white" stroke-width="1.6" stroke-miterlimit="10" stroke-linejoin="round"/>
<path id="Vector_3" d="M19.13 11.69C19.13 8.35667 16.4633 5.69 13.13 5.69" stroke="white" stroke-width="1.6" stroke-miterlimit="10" stroke-linecap="round" stroke-linejoin="round"/>
<path id="Vector_4" d="M16.13 11.69C16.13 10.0304 14.7831 8.69 13.13 8.69" stroke="white" stroke-width="1.6" stroke-miterlimit="10" stroke-linecap="round" stroke-linejoin="round"/>
</g>
</svg>
