<svg width="25" height="25" viewBox="0 0 25 25" fill="none" xmlns="http://www.w3.org/2000/svg">
<g id="SVG - icon">
<path id="Vector" d="M7.01289 5.42732L10.5129 8.92732C10.6354 9.0494 10.7874 9.13766 10.9542 9.1835C11.1209 9.22935 11.2967 9.23121 11.4644 9.18892C11.6321 9.14662 11.7859 9.0616 11.911 8.94215C12.036 8.8227 12.128 8.67289 12.1779 8.50732L13.6779 3.50732C13.7298 3.3344 13.7338 3.15067 13.6896 2.97563C13.6455 2.80059 13.5548 2.64076 13.4271 2.51311C13.2995 2.38546 13.1397 2.29475 12.9646 2.25059C12.7896 2.20644 12.6058 2.21049 12.4329 2.26232L7.43289 3.76232C7.2677 3.81273 7.11832 3.90495 6.99923 4.03004C6.88014 4.15513 6.79536 4.30885 6.75312 4.47632C6.71088 4.64379 6.71259 4.81933 6.7581 4.98594C6.80361 5.15255 6.89138 5.30458 7.01289 5.42732Z" fill="white" fill-opacity="0.6"/>
<path id="Vector_2" d="M5.68006 8.37738C3.97206 9.87838 3.72806 12.5454 5.13206 14.3454C6.54606 16.1574 9.12206 16.4524 10.8881 15.0034L15.7681 10.9994C15.9869 10.8196 16.2397 10.6857 16.5114 10.6056C16.783 10.5255 17.0681 10.5008 17.3494 10.5331C17.6308 10.5654 17.9028 10.6539 18.1493 10.7935C18.3958 10.933 18.6116 11.1207 18.7841 11.3454C19.5331 12.3054 19.4011 13.7454 18.4911 14.5454L17.4481 15.4614C17.0391 15.8214 16.9921 16.4514 17.3421 16.8714C17.6921 17.2914 18.3081 17.3394 18.7171 16.9794L19.7601 16.0634C21.4681 14.5614 21.7131 11.8974 20.3071 10.0954C18.8951 8.28538 16.3151 7.98938 14.5511 9.43738L9.67106 13.4414C9.45233 13.6214 9.19957 13.7556 8.92787 13.8358C8.65617 13.9161 8.37109 13.9408 8.08962 13.9085C7.80816 13.8762 7.53608 13.7876 7.28962 13.6479C7.04315 13.5082 6.82734 13.3203 6.65506 13.0954C5.90806 12.1374 6.03906 10.6954 6.94806 9.89538L7.49006 9.48038C7.89906 9.12038 7.95006 8.49038 7.60006 8.07038C7.51784 7.97082 7.41646 7.88879 7.30193 7.82916C7.1874 7.76953 7.06206 7.73352 6.93335 7.72326C6.80463 7.713 6.67517 7.7287 6.55264 7.76943C6.43011 7.81017 6.31702 7.8751 6.22006 7.96038L5.68006 8.37738Z" fill="white" fill-opacity="0.6"/>
<path id="Vector_3" d="M10.72 19.2202C10.72 18.4246 11.0361 17.6615 11.5987 17.0989C12.1613 16.5363 12.9244 16.2202 13.72 16.2202C14.5156 16.2202 15.2787 16.5363 15.8413 17.0989C16.4039 17.6615 16.72 18.4246 16.72 19.2202C16.72 20.0158 16.4039 20.7789 15.8413 21.3415C15.2787 21.9041 14.5156 22.2202 13.72 22.2202C12.9244 22.2202 12.1613 21.9041 11.5987 21.3415C11.0361 20.7789 10.72 20.0158 10.72 19.2202Z" fill="white" fill-opacity="0.6"/>
</g>
</svg>
