<svg width="112" height="27" viewBox="0 0 112 27" fill="none" xmlns="http://www.w3.org/2000/svg">
<g id="about-express24.svg" clip-path="url(#clip0_10_114)">
<path id="Vector" fill-rule="evenodd" clip-rule="evenodd" d="M49.4872 11.7133H46.1227V10.0605H49.2669V8.80201H46.1227V7.36154H49.4188V6.10303H44.4062V12.9794H49.4872V11.7133Z" fill="white"/>
<path id="Vector_2" fill-rule="evenodd" clip-rule="evenodd" d="M60.3574 6.10328V12.9796H62.0739V10.2124H63.4409C65.0282 10.2124 65.7118 9.10552 65.7118 8.1351C65.7118 7.19501 65.0055 6.0957 63.4257 6.0957H60.3574V6.10328ZM62.0742 7.36181H62.6818C63.6084 7.36181 63.9425 7.57409 63.9425 8.15786C63.9425 8.6734 63.6615 8.95391 62.8717 8.95391H62.0742V7.36181Z" fill="white"/>
<path id="Vector_3" fill-rule="evenodd" clip-rule="evenodd" d="M67.2598 6.10303V12.9794H68.9762V10.1818H69.4699C70.3964 10.1818 70.6698 11.501 71.4065 12.9794H73.3052C72.3331 10.9627 72.1205 10.1136 71.4141 9.76485C72.204 9.40094 72.5989 8.83992 72.5989 8.08178C72.5989 7.0507 71.7635 6.10303 70.3433 6.10303H67.2598ZM68.9763 7.36157H69.8422C70.4877 7.36157 70.8219 7.62692 70.8219 8.13488C70.8219 8.71864 70.3586 8.92334 69.8801 8.92334H68.9688V7.36157H68.9763Z" fill="white"/>
<path id="Vector_4" fill-rule="evenodd" clip-rule="evenodd" d="M80.5438 11.7133H77.1793V10.0605H80.3236V8.80201H77.1793V7.36154H80.4755V6.10303H75.4629V12.9794H80.5438V11.7133Z" fill="white"/>
<path id="Vector_5" fill-rule="evenodd" clip-rule="evenodd" d="M87.6977 6.54291C86.8319 6.17142 86.1332 6.01221 85.3661 6.01221C83.7712 6.01221 82.7383 6.80068 82.7383 7.99096C82.7383 10.4625 86.2471 10.0455 86.2471 11.1752C86.2471 11.577 85.8901 11.812 85.237 11.812C84.4775 11.812 83.8699 11.577 82.8826 10.925V12.4109C83.5661 12.7673 84.1661 13.0781 85.3661 13.0781C86.9002 13.0781 88.0167 12.3124 88.0167 10.9932C88.0167 8.58989 84.5079 8.88557 84.5079 7.84692C84.5079 7.50575 84.9028 7.28589 85.518 7.28589C86.1028 7.28589 86.7028 7.46026 87.6977 7.89999V6.54291Z" fill="white"/>
<path id="Vector_6" fill-rule="evenodd" clip-rule="evenodd" d="M94.9809 6.54291C94.1151 6.17142 93.4164 6.01221 92.6493 6.01221C91.0544 6.01221 90.0215 6.80068 90.0215 7.99096C90.0215 10.4625 93.5303 10.0455 93.5303 11.1752C93.5303 11.577 93.1733 11.812 92.5202 11.812C91.7607 11.812 91.1531 11.577 90.1658 10.925V12.4109C90.8493 12.7673 91.4493 13.0781 92.6493 13.0781C94.1834 13.0781 95.2999 12.3124 95.2999 10.9932C95.2999 8.58989 91.7911 8.88557 91.7911 7.84692C91.7911 7.50575 92.186 7.28589 92.8012 7.28589C93.386 7.28589 93.986 7.46026 94.9809 7.89999V6.54291Z" fill="white"/>
<path id="Vector_7" fill-rule="evenodd" clip-rule="evenodd" d="M104.975 11.577H102.75C103.98 10.0152 104.618 8.8325 104.618 7.96822C104.618 6.74761 103.79 6.01221 102.438 6.01221C101.785 6.01221 101.253 6.19417 100.509 6.66422V8.10468C101.064 7.5664 101.679 7.24798 102.165 7.24798C102.681 7.24798 103.084 7.70287 103.084 8.23357C103.084 8.77185 102.901 9.27222 102.339 10.1289C101.846 10.8871 101.147 11.8954 100.418 12.7824V12.9719H104.975V11.577Z" fill="white"/>
<path id="Vector_8" fill-rule="evenodd" clip-rule="evenodd" d="M111.035 6.01221H110.063L106.82 10.1896V11.2889H109.509V12.9796H111.035V11.2889H111.499V10.1896H111.035V6.01221ZM109.494 8.30936H109.516V10.182H108.043L109.494 8.30936Z" fill="white"/>
<path id="Vector_9" fill-rule="evenodd" clip-rule="evenodd" d="M54.9789 8.24098L53.6118 6.10303H51.6599L53.87 9.4161L51.584 12.9794H53.4979L54.9789 10.5912L56.4675 12.9794H58.3813L56.0953 9.4161L58.3054 6.10303H56.3535L54.9789 8.24098Z" fill="white"/>
<path id="Vector_10" fill-rule="evenodd" clip-rule="evenodd" d="M49.4501 11.6982H46.0856V10.0454H49.2298V8.78687H46.0856V7.3464H49.3817V6.08789H44.3691V12.9567H49.4501V11.6982Z" fill="white"/>
<path id="Vector_11" fill-rule="evenodd" clip-rule="evenodd" d="M60.3125 6.08789V12.9643H62.0289V10.2046H63.3884C64.9757 10.2046 65.6593 9.09771 65.6593 8.12729C65.6593 7.18719 64.9529 6.08789 63.3808 6.08789H60.3125ZM62.0293 7.34644H62.6369C63.5635 7.34644 63.8976 7.55871 63.8976 8.14248C63.8976 8.65802 63.6166 8.93853 62.8268 8.93853H62.0293V7.34644Z" fill="white"/>
<path id="Vector_12" fill-rule="evenodd" clip-rule="evenodd" d="M67.207 6.08789V12.9643H68.9235V10.1743H69.4171C70.3437 10.1743 70.6171 11.4935 71.3538 12.9643H73.2449C72.2728 10.9476 72.0601 10.0985 71.3538 9.74971C72.1437 9.3858 72.5386 8.82478 72.5386 8.06664C72.5386 7.03557 71.7032 6.08789 70.2905 6.08789H67.207ZM68.9236 7.34644H69.7894C70.435 7.34644 70.7692 7.61178 70.7692 8.11974C70.7692 8.70351 70.3059 8.90821 69.8274 8.90821H68.916V7.34644H68.9236Z" fill="white"/>
<path id="Vector_13" fill-rule="evenodd" clip-rule="evenodd" d="M80.4833 11.6982H77.1188V10.0454H80.2554V8.78687H77.1188V7.3464H80.4073V6.08789H75.4023V12.9567H80.4833V11.6982Z" fill="white"/>
<path id="Vector_14" fill-rule="evenodd" clip-rule="evenodd" d="M87.6293 6.52777C86.7635 6.15628 86.0648 5.99707 85.2977 5.99707C83.7028 5.99707 82.6699 6.78553 82.6699 7.97582C82.6699 10.4474 86.1711 10.0304 86.1711 11.16C86.1711 11.5618 85.8142 11.7969 85.161 11.7969C84.4015 11.7969 83.8015 11.5618 82.8066 10.9098V12.3882C83.4902 12.7445 84.0902 13.0554 85.2901 13.0554C86.8243 13.0554 87.9331 12.2896 87.9331 10.9705C87.9331 8.57475 84.4319 8.86284 84.4319 7.82419C84.4319 7.48302 84.8269 7.26316 85.442 7.26316C86.0268 7.26316 86.6268 7.43754 87.6217 7.87726V6.52777H87.6293Z" fill="white"/>
<path id="Vector_15" fill-rule="evenodd" clip-rule="evenodd" d="M94.9047 6.52777C94.0389 6.15628 93.3402 5.99707 92.5731 5.99707C90.9782 5.99707 89.9453 6.78553 89.9453 7.97582C89.9453 10.4474 93.4465 10.0304 93.4465 11.16C93.4465 11.5618 93.0896 11.7969 92.4364 11.7969C91.6769 11.7969 91.0769 11.5618 90.082 10.9098V12.3882C90.7656 12.7445 91.3655 13.0554 92.5655 13.0554C94.0997 13.0554 95.2085 12.2896 95.2085 10.9705C95.2085 8.57475 91.7073 8.86284 91.7073 7.82419C91.7073 7.48302 92.1022 7.26316 92.7174 7.26316C93.3022 7.26316 93.9022 7.43754 94.8971 7.87726V6.52777H94.9047Z" fill="white"/>
<path id="Vector_16" fill-rule="evenodd" clip-rule="evenodd" d="M104.893 11.5618H102.675C103.906 10.0001 104.544 8.81735 104.544 7.95307C104.544 6.73246 103.716 5.99707 102.364 5.99707C101.711 5.99707 101.179 6.17902 100.435 6.64907V8.08954C100.989 7.55884 101.604 7.23284 102.091 7.23284C102.607 7.23284 103.01 7.68772 103.01 8.21842C103.01 8.74912 102.827 9.25707 102.265 10.1138C101.772 10.8719 101.073 11.8803 100.344 12.7673V12.9568H104.901V11.5618H104.893Z" fill="white"/>
<path id="Vector_17" fill-rule="evenodd" clip-rule="evenodd" d="M110.953 5.99707H109.981L106.738 10.1668V11.2661H109.427V12.9568H110.953V11.2661H111.417V10.1668H110.953V5.99707ZM109.412 8.29422H109.434V10.1668H107.961L109.412 8.29422Z" fill="white"/>
<path id="Vector_18" fill-rule="evenodd" clip-rule="evenodd" d="M54.9415 8.22585L53.5669 6.08789H51.615L53.8251 9.40097L51.5391 12.9567H53.453L54.9415 10.5761L56.4301 12.9567H58.3364L56.0504 9.40097L58.2605 6.08789H56.3086L54.9415 8.22585Z" fill="white"/>
<path id="Vector_19" fill-rule="evenodd" clip-rule="evenodd" d="M47.0121 17.7255C46.6096 17.5587 46.2982 17.4829 45.9944 17.4829C45.0527 17.4829 44.3691 18.1425 44.3691 19.0447C44.3691 19.6664 44.8552 20.5231 45.9716 20.5231C46.4349 20.5231 46.7539 20.4169 47.0501 20.2653V19.8028C46.7159 20.0227 46.3514 20.1364 46.0172 20.1364C45.3033 20.1364 44.8172 19.6739 44.8172 19.0144C44.8172 18.3624 45.3185 17.8772 46.002 17.8772C46.3438 17.8772 46.6628 17.9757 47.0273 18.188V17.7255H47.0121ZM49.3512 17.5057H49.0474L47.7715 20.4852H48.2044L49.1917 18.0819L50.2398 20.4852H50.6727L49.3512 17.5057ZM51.6382 17.521H51.2129L52.5116 20.4853C52.4888 20.69 52.2838 20.8113 52.1698 20.8113C51.9952 20.8113 51.8736 20.7734 51.7749 20.6749V21.0539C51.8736 21.1146 52.0028 21.1601 52.1471 21.1601C52.4888 21.1601 52.7091 20.963 52.8838 20.4853L53.9926 17.521H53.5749L52.7015 20.0001L51.6382 17.521ZM56.6125 18.7264C56.3011 18.7264 56.096 18.6431 55.9213 18.2033C55.7163 17.6802 55.4884 17.5286 55.0707 17.5286H55.0024V17.9077C55.3821 17.9077 55.4656 18.0441 55.5872 18.3929C55.6631 18.6127 55.853 18.8326 56.0353 18.916C55.7922 19.0297 55.6403 19.1358 55.4581 19.4088L54.7441 20.4853H55.2378L55.815 19.5831C55.9745 19.333 56.2783 19.0752 56.6125 19.0752V20.4853H57.0378V19.0752C57.3719 19.0752 57.6757 19.333 57.8352 19.5831L58.4124 20.4853H58.9061L58.1922 19.4088C58.0099 19.1358 57.858 19.0297 57.615 18.916C57.7973 18.8326 57.9871 18.6051 58.0631 18.3929C58.1846 18.0441 58.2605 17.9077 58.6479 17.9077V17.5286H58.5795C58.1618 17.5286 57.934 17.6802 57.7289 18.2033C57.5542 18.6431 57.3492 18.7264 57.0378 18.7264V17.521H56.6125V18.7264ZM59.9473 20.4854H60.9726C61.6029 20.4854 62.0358 20.1519 62.0358 19.5984C62.0358 19.0374 61.5953 18.7114 60.9726 18.7114H60.3726V17.9078H61.8384V17.5287H59.9473V20.4854ZM60.3711 19.0902H60.9407C61.3812 19.0902 61.6015 19.2722 61.6015 19.5982C61.6015 19.8711 61.3812 20.0985 61.0242 20.0985H60.3711V19.0902ZM64.283 17.5058H63.9792L62.7032 20.4853H63.1362L63.5083 19.6134H64.769L65.164 20.4853H65.5969L64.283 17.5058ZM64.1239 18.1576L64.6023 19.2342H63.6758L64.1239 18.1576ZM70.5633 20.1062H70.1304L69.1051 17.5057H68.8013L67.8216 20.1062H67.3887V21.0311H67.8216V20.4852H70.1304V21.0311H70.5633V20.1062ZM68.9468 18.1273L69.6987 20.1061H68.248L68.9468 18.1273ZM71.3379 19.0068C71.3379 19.8104 71.9531 20.5306 72.9252 20.5306C73.9277 20.5306 74.5277 19.8104 74.5277 19.0068C74.5277 18.1804 73.9125 17.4829 72.9328 17.4829C71.9683 17.4829 71.3379 18.1804 71.3379 19.0068ZM71.7793 19.0068C71.7793 18.3548 72.273 17.8772 72.9337 17.8772C73.6021 17.8772 74.0881 18.3548 74.0881 19.0068C74.0881 19.6512 73.5945 20.1364 72.9337 20.1364C72.273 20.1364 71.7793 19.6512 71.7793 19.0068ZM78.1137 17.7255C77.7112 17.5587 77.3998 17.4829 77.096 17.4829C76.1542 17.4829 75.4707 18.1425 75.4707 19.0447C75.4707 19.6664 75.9568 20.5231 77.0732 20.5231C77.5365 20.5231 77.8555 20.4169 78.1517 20.2653V19.8028C77.8175 20.0227 77.4529 20.1364 77.1188 20.1364C76.4049 20.1364 75.9188 19.6739 75.9188 19.0144C75.9188 18.3624 76.4201 17.8772 77.1036 17.8772C77.4454 17.8772 77.7643 17.9757 78.1289 18.188V17.7255H78.1137ZM81.4327 17.521H78.9492V17.9001H79.9745V20.4778H80.3998V17.9001H81.4251V17.521H81.4327ZM83.611 17.5057H83.3072L82.0312 20.4852H82.4642L82.8363 19.6134H84.097L84.492 20.4852H84.9249L83.611 17.5057ZM83.4522 18.1576L83.9307 19.2342H83.0117L83.4522 18.1576ZM85.7988 20.4853H86.8165C87.5608 20.4853 87.8342 20.0608 87.8342 19.6969C87.8342 19.2951 87.5608 19.007 87.1203 18.9236V18.916C87.4317 18.7871 87.576 18.59 87.576 18.2791C87.576 17.9077 87.3026 17.521 86.6646 17.521H85.8064V20.4853H85.7988ZM86.2246 17.9075H86.6195C87.0145 17.9075 87.136 18.097 87.136 18.3169C87.136 18.6353 86.9309 18.7869 86.5056 18.7869H86.2246V17.9075ZM86.2246 19.1736H86.7411C87.1892 19.1736 87.4018 19.3631 87.4018 19.6361C87.4018 19.8559 87.2651 20.1061 86.7638 20.1061H86.2322V19.1736H86.2246ZM88.7832 17.521V20.4853H89.2085V19.0752H89.33C89.611 19.0752 89.9072 19.2496 90.1579 19.6893L90.6212 20.4853H91.1072L90.5908 19.5831C90.3781 19.2117 90.1503 18.9994 89.9452 18.9084C90.1047 18.8326 90.2794 18.6051 90.3553 18.3929C90.4768 18.0441 90.5528 17.9077 90.9401 17.9077V17.5286H90.8718C90.4541 17.5286 90.2262 17.6802 90.0212 18.2033C89.8465 18.6431 89.6414 18.7264 89.33 18.7264H89.2085V17.521H88.7832ZM94.7302 17.521H94.5252L92.6417 19.7727V17.521H92.2088V20.5157H92.4138L94.2973 18.3019V20.4778H94.7226V17.521H94.7302Z" fill="#FFC521"/>
<path id="Vector_20" fill-rule="evenodd" clip-rule="evenodd" d="M19.0622 0.80957C26.1026 0.80957 31.8139 6.51079 31.8139 13.5388C31.8139 20.5668 26.1026 26.268 19.0622 26.268C12.0219 26.268 6.31055 20.5668 6.31055 13.5388C6.31814 6.51079 12.0219 0.80957 19.0622 0.80957Z" fill="#FFC521"/>
<path id="Vector_21" fill-rule="evenodd" clip-rule="evenodd" d="M19.0617 20.8626C8.80873 20.8626 0.5 17.7164 0.5 15.8437C0.5 13.9711 4.85943 12.7809 11.1327 11.583C11.1252 11.9242 11.1252 12.2805 11.1252 12.6216C11.391 13.9939 14.8238 14.7141 19.0693 14.7141C23.3148 14.7141 26.7553 13.9408 27.0135 12.6216C27.0135 12.2729 27.0135 11.9242 27.0059 11.583C33.2792 12.7809 37.6311 13.9711 37.6311 15.8437C37.6311 17.7164 29.3147 20.8626 19.0617 20.8626Z" fill="#8CC798"/>
<path id="Vector_22" fill-rule="evenodd" clip-rule="evenodd" d="M26.2837 20.3394C24.6356 21.8556 22.0154 22.8412 19.0686 22.8412C16.1218 22.8412 13.5016 21.8632 11.8535 20.3394C14.0712 20.6654 16.5091 20.8549 19.0686 20.8549C21.6205 20.8625 24.066 20.6654 26.2837 20.3394Z" fill="#8CC798"/>
<path id="Vector_23" fill-rule="evenodd" clip-rule="evenodd" d="M18.8939 22.841C16.0155 22.8031 13.4636 21.8327 11.8535 20.3467C13.0155 20.5135 14.2383 20.65 15.5066 20.741C15.7421 21.067 16.661 22.1587 18.8939 22.841Z" fill="#4FA26C"/>
<path id="Vector_24" fill-rule="evenodd" clip-rule="evenodd" d="M19.0692 4.23633C14.9224 4.23633 11.4288 7.45843 11.1326 11.5903L11.125 11.977C11.3528 13.1445 14.8237 14.0694 19.0692 14.0694C23.3147 14.0694 26.7855 13.1445 27.0134 11.977L27.0058 11.5903C26.7096 7.45843 23.216 4.23633 19.0692 4.23633Z" fill="#009DE2"/>
<path id="Vector_25" fill-rule="evenodd" clip-rule="evenodd" d="M24.5914 13.4553L24.6597 13.4401C25.3281 13.2582 26.8622 12.7654 27.0141 11.9845L27.0065 11.5979C26.8167 8.88369 25.2142 6.43489 22.7534 5.14605C22.6395 5.0854 22.556 5.03991 22.3965 4.97168C22.518 5.06266 24.5914 6.74573 24.5914 10.7563V13.4553Z" fill="#A0D8F7"/>
<path id="Vector_26" fill-rule="evenodd" clip-rule="evenodd" d="M11.125 11.9844V12.6288C11.3908 14.0011 14.8237 14.7213 19.0692 14.7213C23.3147 14.7213 26.7551 13.948 27.0134 12.6288V11.9844C26.7855 13.152 23.3147 14.0769 19.0692 14.0769C14.8161 14.0769 11.3452 13.152 11.125 11.9844Z" fill="#FFEC00"/>
<path id="Vector_27" fill-rule="evenodd" clip-rule="evenodd" d="M19.0706 16.4956C19.777 16.4956 20.3542 17.0718 20.3542 17.7768V17.7844C19.9896 17.9588 19.5491 18.0574 19.0706 18.0574C18.5922 18.0574 18.1517 17.9588 17.7871 17.7844V17.7768C17.7871 17.0718 18.3643 16.4956 19.0706 16.4956Z" fill="#FFEC00"/>
<path id="Vector_28" fill-rule="evenodd" clip-rule="evenodd" d="M17.7871 17.7918V17.7842V17.7539C17.8023 17.2005 18.182 16.7228 18.6909 16.5636L18.7213 16.556L18.7517 16.5485L18.7744 16.5409H18.782L18.8048 16.5333H18.8124H18.82L18.8504 16.5257L18.8732 16.5181H18.8808H18.9035H18.9111H18.9339H18.9491H18.9719H18.9947C18.9871 16.5257 18.4327 16.8366 18.3339 17.4355C18.3036 17.6326 18.296 17.8221 18.296 17.9889C18.1137 17.9207 17.939 17.8601 17.7871 17.7918Z" fill="#FFCB00"/>
<path id="Vector_29" fill-rule="evenodd" clip-rule="evenodd" d="M20.3542 17.792V18.1635C19.9896 18.3378 19.5491 18.4364 19.0706 18.4364C18.5922 18.4364 18.1517 18.3378 17.7871 18.1635V17.792C18.1517 17.9664 18.5922 18.0649 19.0706 18.0649C19.5415 18.0649 19.9896 17.9588 20.3542 17.792Z" fill="#EE7C00"/>
<path id="Vector_30" fill-rule="evenodd" clip-rule="evenodd" d="M11.8402 15.8433C12.5465 15.8433 13.1237 16.4195 13.1237 17.1246V17.1322C12.7591 17.3065 12.3186 17.4051 11.8402 17.4051C11.3617 17.4051 10.9212 17.3065 10.5566 17.1322V17.1246C10.5566 16.4195 11.1338 15.8433 11.8402 15.8433Z" fill="#FFEC00"/>
<path id="Vector_31" fill-rule="evenodd" clip-rule="evenodd" d="M10.5566 17.1328V17.1252V17.0949C10.5718 16.5338 10.9516 16.0638 11.4604 15.9046L11.4908 15.897L11.5212 15.8894L11.544 15.8818H11.5516L11.5743 15.8743H11.5819H11.5895L11.6199 15.8667H11.6427H11.6503H11.6731H11.6807H11.7035H11.7186H11.7414H11.7642C11.7566 15.8743 11.2022 16.1851 11.1035 16.784C11.0731 16.9736 11.0655 17.1707 11.0655 17.3375C10.8756 17.2692 10.7085 17.2086 10.5566 17.1328Z" fill="#FFCB00"/>
<path id="Vector_32" fill-rule="evenodd" clip-rule="evenodd" d="M13.1237 17.1323V17.5037C12.7591 17.6781 12.3186 17.7767 11.8402 17.7767C11.3617 17.7767 10.9212 17.6781 10.5566 17.5037V17.1323C10.9212 17.3066 11.3617 17.4052 11.8402 17.4052C12.311 17.4052 12.7591 17.3066 13.1237 17.1323Z" fill="#EE7C00"/>
<path id="Vector_33" fill-rule="evenodd" clip-rule="evenodd" d="M25.9281 15.8433C26.6344 15.8433 27.2116 16.4195 27.2116 17.1246V17.1322C26.847 17.3065 26.4065 17.4051 25.9281 17.4051C25.4496 17.4051 25.0091 17.3065 24.6445 17.1322V17.1246C24.6445 16.4195 25.2217 15.8433 25.9281 15.8433Z" fill="#FFEC00"/>
<path id="Vector_34" fill-rule="evenodd" clip-rule="evenodd" d="M24.6445 17.1323V17.1247V17.0944C24.6597 16.5333 25.0395 16.0633 25.5483 15.9041L25.5787 15.8965L25.6091 15.8889L25.6319 15.8813H25.6395L25.6622 15.8737H25.6698H25.6774L25.7078 15.8662H25.7306H25.7382H25.761H25.7686H25.7913H25.8065H25.8293H25.8521C25.8445 15.8737 25.2901 16.1846 25.1914 16.7835C25.161 16.973 25.1534 17.1702 25.1534 17.337C24.9711 17.2687 24.804 17.2081 24.6445 17.1323Z" fill="#FFCB00"/>
<path id="Vector_35" fill-rule="evenodd" clip-rule="evenodd" d="M27.2116 17.1323V17.5037C26.847 17.6781 26.4065 17.7767 25.9281 17.7767C25.4496 17.7767 25.0091 17.6781 24.6445 17.5037V17.1323C25.0091 17.3066 25.4496 17.4052 25.9281 17.4052C26.4065 17.4052 26.847 17.3066 27.2116 17.1323Z" fill="#EE7C00"/>
<path id="Vector_36" fill-rule="evenodd" clip-rule="evenodd" d="M30.8187 13.8193C31.525 13.8193 32.1022 14.3955 32.1022 15.1006V15.1082C31.7377 15.2826 31.2972 15.3811 30.8187 15.3811C30.3402 15.3811 29.8997 15.2826 29.5352 15.1082V15.1006C29.5352 14.3955 30.1124 13.8193 30.8187 13.8193Z" fill="#FFEC00"/>
<path id="Vector_37" fill-rule="evenodd" clip-rule="evenodd" d="M29.5352 15.1159V15.1084V15.078C29.5503 14.517 29.9301 14.047 30.4389 13.8878L30.4693 13.8802L30.4997 13.8726L30.5225 13.865H30.5301L30.5529 13.8574H30.5605L30.5908 13.8499L30.6136 13.8423H30.6212H30.644H30.6516H30.6744H30.6896H30.7124H30.7351C30.7275 13.8499 30.1731 14.1607 30.0744 14.7596C30.044 14.9492 30.0364 15.1463 30.0364 15.3131C29.8617 15.2448 29.6946 15.1842 29.5352 15.1159Z" fill="#FFCB00"/>
<path id="Vector_38" fill-rule="evenodd" clip-rule="evenodd" d="M32.1022 15.1157V15.4872C31.7377 15.6616 31.2972 15.7602 30.8187 15.7602C30.3402 15.7602 29.8997 15.6616 29.5352 15.4872V15.1157C29.8997 15.2901 30.3402 15.3887 30.8187 15.3887C31.2972 15.3887 31.7377 15.2825 32.1022 15.1157Z" fill="#EE7C00"/>
<path id="Vector_39" fill-rule="evenodd" clip-rule="evenodd" d="M1.90592 14.1455C3.42488 13.2964 6.09826 12.5913 9.45516 11.909C10.0172 11.8029 10.5792 11.6891 11.126 11.583V11.6133C11.1184 11.9469 11.1184 12.2956 11.1184 12.6292C11.3463 13.8271 13.9893 14.5322 17.4829 14.6914C17.8626 14.7141 18.2576 14.7293 18.6525 14.7369C14.126 14.7596 10.7083 14.8961 3.13628 17.0947C1.49579 16.2077 0.85783 15.1993 1.90592 14.1455Z" fill="#4FA26C"/>
<path id="Vector_40" fill-rule="evenodd" clip-rule="evenodd" d="M19.0617 20.8626C9.62897 20.8626 1.84428 18.194 0.659491 16.3138C0.568353 16.1546 0.522785 16.0181 0.507595 15.9044C0.507595 15.8816 0.5 15.8589 0.5 15.8437C0.5 15.2069 1.00126 14.6534 1.90504 14.1531C-1.14808 17.2008 10.0619 19.9377 19.0617 19.9377C28.0692 19.9377 39.2791 17.1932 36.2184 14.1455C37.1222 14.6459 37.6235 15.2069 37.6235 15.8361C37.6235 15.8589 37.6235 15.8816 37.6159 15.8968C37.6007 16.0105 37.5551 16.147 37.464 16.3062C36.2868 18.194 28.4945 20.8626 19.0617 20.8626Z" fill="#006126"/>
<path id="Vector_41" fill-rule="evenodd" clip-rule="evenodd" d="M7.09212 13.8193C7.79844 13.8193 8.37564 14.3955 8.37564 15.1006V15.1082C8.01109 15.2826 7.57059 15.3811 7.09212 15.3811C6.61364 15.3811 6.17315 15.2826 5.80859 15.1082V15.1006C5.80859 14.3955 6.3858 13.8193 7.09212 13.8193Z" fill="#FFEC00"/>
<path id="Vector_42" fill-rule="evenodd" clip-rule="evenodd" d="M5.80859 15.1159V15.1084V15.078C5.82378 14.517 6.20352 14.047 6.71238 13.8878L6.74276 13.8802L6.77314 13.8726L6.79592 13.865H6.80352L6.8263 13.8574H6.83389H6.84149L6.87187 13.8499L6.89465 13.8423H6.90225H6.92503H6.93263H6.95541H6.9706H6.99339H7.01617C7.00858 13.8499 6.45415 14.1607 6.35542 14.7596C6.32504 14.9492 6.31745 15.1463 6.31745 15.3131C6.13517 15.2448 5.96049 15.1842 5.80859 15.1159Z" fill="#FFCB00"/>
<path id="Vector_43" fill-rule="evenodd" clip-rule="evenodd" d="M8.37564 15.1157V15.4872C8.01109 15.6616 7.57059 15.7602 7.09212 15.7602C6.61364 15.7602 6.17315 15.6616 5.80859 15.4872V15.1157C6.17315 15.2901 6.61364 15.3887 7.09212 15.3887C7.563 15.3887 8.01109 15.2825 8.37564 15.1157Z" fill="#EE7C00"/>
</g>
<defs>
<clipPath id="clip0_10_114">
<rect width="111" height="26" fill="white" transform="translate(0.5 0.80957)"/>
</clipPath>
</defs>
</svg>
