<svg width="38" height="39" viewBox="0 0 38 39" fill="none" xmlns="http://www.w3.org/2000/svg">
<g id="facebook.svg">
<path id="Vector" d="M23.2284 10.5153L20.9941 10.5117C18.484 10.5117 16.8618 12.1788 16.8618 14.7592V16.7176H14.6152C14.4211 16.7176 14.2639 16.8753 14.2639 17.0697V19.9072C14.2639 20.1016 14.4213 20.2591 14.6152 20.2591H16.8618V27.419C16.8618 27.6135 17.0189 27.771 17.2131 27.771H20.144C20.3381 27.771 20.4954 27.6133 20.4954 27.419V20.2591H23.1221C23.3162 20.2591 23.4734 20.1016 23.4734 19.9072L23.4744 17.0697C23.4744 16.9763 23.4374 16.8869 23.3716 16.8208C23.3057 16.7548 23.2161 16.7176 23.1229 16.7176H20.4954V15.0574C20.4954 14.2595 20.6852 13.8544 21.7228 13.8544L23.2279 13.8539C23.4219 13.8539 23.5791 13.6963 23.5791 13.502V10.8672C23.5791 10.6731 23.4222 10.5157 23.2284 10.5153Z" fill="white"/>
</g>
</svg>
