<svg width="25" height="25" viewBox="0 0 25 25" fill="none" xmlns="http://www.w3.org/2000/svg">
<g id="SVG - icon">
<path id="Vector" d="M12.53 3.08C7.15403 3.08 2.78003 7.454 2.78003 12.83C2.78003 18.206 7.15403 22.58 12.53 22.58C17.906 22.58 22.28 18.206 22.28 12.83C22.28 7.454 17.906 3.08 12.53 3.08ZM12.53 4.58C12.7835 4.58 13.0325 4.59559 13.28 4.61809V5.33H14.78V4.89934C16.6235 5.42359 18.2045 6.57073 19.28 8.10148V10.58L20.03 12.08V12.83H20.78C20.78 13.1045 20.7652 13.3767 20.739 13.6445C20.7322 13.7165 20.7172 13.7856 20.7082 13.8569C20.6835 14.0541 20.6579 14.25 20.6189 14.4428C20.6046 14.5148 20.5856 14.5854 20.5691 14.6567C20.5256 14.8472 20.4788 15.0368 20.4226 15.2221C20.4031 15.2858 20.3806 15.3481 20.3596 15.4111C20.2966 15.6016 20.2295 15.7905 20.153 15.975C20.1305 16.029 20.106 16.0814 20.0827 16.1347C19.9987 16.3259 19.9107 16.5142 19.8132 16.6972C19.79 16.7414 19.7647 16.7848 19.74 16.8276C19.635 17.0166 19.5238 17.1998 19.4045 17.3798C19.3813 17.4151 19.3567 17.4515 19.3327 17.4867C19.2067 17.6705 19.0731 17.8489 18.9328 18.0214C18.9096 18.0499 18.8887 18.0772 18.8654 18.1049C18.7199 18.2797 18.566 18.4468 18.407 18.6088C18.3837 18.6321 18.3614 18.6573 18.3381 18.6806C18.1754 18.8418 18.0053 18.9965 17.8298 19.1435C17.8051 19.1645 17.7835 19.1862 17.758 19.2065C17.5825 19.3505 17.3984 19.4847 17.2116 19.6137C17.1824 19.6339 17.1559 19.6572 17.1267 19.6767C16.9474 19.7974 16.7605 19.9071 16.5715 20.0136C15.691 20.5078 14.7122 20.8481 13.6682 20.9906L16.677 18.7231L17.5017 17.8984L18.53 15.83V15.08L17.03 14.33H16.28L14.78 12.83H13.28L12.53 13.58V14.33L11.78 15.08V16.58L13.28 17.7797L11.7976 21.0434C7.59086 20.6699 4.28003 17.1313 4.28003 12.83C4.28003 10.274 5.44928 7.98611 7.28003 6.47111V6.83L6.53003 7.58V9.22941L7.28003 12.08L11.03 13.58H11.78V12.83L9.53003 12.08V10.58H11.78L12.53 8.705L14.03 7.58V6.83L11.78 5.33L10.7019 4.79094C11.2906 4.65744 11.9008 4.58 12.53 4.58ZM11.78 11.33V12.08H13.28V11.33H11.78Z" fill="white" fill-opacity="0.6"/>
</g>
</svg>
