<svg width="38" height="39" viewBox="0 0 38 39" fill="none" xmlns="http://www.w3.org/2000/svg">
<g id="instagram.svg">
<path id="Vector" fill-rule="evenodd" clip-rule="evenodd" d="M15.4375 9.72021H22.5625C25.8412 9.72021 28.5 12.3791 28.5 15.6577V22.7827C28.5 26.0614 25.8412 28.7202 22.5625 28.7202H15.4375C12.1588 28.7202 9.5 26.0614 9.5 22.7827V15.6577C9.5 12.3791 12.1588 9.72021 15.4375 9.72021ZM22.5625 26.939C24.8544 26.939 26.7188 25.0746 26.7188 22.7827V15.6577C26.7188 13.3659 24.8544 11.5015 22.5625 11.5015H15.4375C13.1457 11.5015 11.2812 13.3659 11.2812 15.6577V22.7827C11.2812 25.0746 13.1457 26.939 15.4375 26.939H22.5625ZM14.25 19.2202C14.25 16.5971 16.3768 14.4702 19 14.4702C21.6232 14.4702 23.75 16.5971 23.75 19.2202C23.75 21.8434 21.6232 23.9702 19 23.9702C16.3768 23.9702 14.25 21.8434 14.25 19.2202ZM16.0312 19.2202C16.0312 20.8566 17.3636 22.189 19 22.189C20.6364 22.189 21.9688 20.8566 21.9688 19.2202C21.9688 17.5826 20.6364 16.2515 19 16.2515C17.3636 16.2515 16.0312 17.5826 16.0312 19.2202ZM24.1458 15.2619C24.8017 15.2619 25.3333 14.7302 25.3333 14.0744C25.3333 13.4185 24.8017 12.8869 24.1458 12.8869C23.49 12.8869 22.9583 13.4185 22.9583 14.0744C22.9583 14.7302 23.49 15.2619 24.1458 15.2619Z" fill="white"/>
</g>
</svg>
