<svg width="49" height="49" viewBox="0 0 49 49" fill="none" xmlns="http://www.w3.org/2000/svg">
<g id="SVG - icon">
<path id="Vector" d="M30.5 16C30.5 16.5523 30.9477 17 31.5 17H32.5C33.0523 17 33.5 16.5523 33.5 16V4.5C33.5 3.94772 33.9477 3.5 34.5 3.5H44.5C45.0523 3.5 45.5 3.94772 45.5 4.5V44.5C45.5 45.0523 45.0523 45.5 44.5 45.5H34.5C33.9477 45.5 33.5 45.0523 33.5 44.5V33C33.5 32.4477 33.0523 32 32.5 32H31.5C30.9477 32 30.5 32.4477 30.5 33V47.5C30.5 48.0523 30.9477 48.5 31.5 48.5H47.5C48.0523 48.5 48.5 48.0523 48.5 47.5V1.5C48.5 0.947714 48.0523 0.5 47.5 0.5H31.5C30.9477 0.5 30.5 0.947715 30.5 1.5V16Z" fill="#00A795"/>
<path id="Vector_2" d="M41.5 28.9999C42.0523 28.9999 42.5 28.5522 42.5 27.9999V22.8141C42.5 22.5489 42.3946 22.2946 42.2071 22.107L40.3929 20.2928C40.2054 20.1053 39.951 19.9999 39.6858 19.9999H21.796C21.3534 19.9999 20.9679 19.7065 20.8123 19.2923C18.8937 14.186 13.3095 11.3714 8 12.9499C3.5 14.2999 0.5 18.3499 0.5 22.9999V25.9999C0.5 31.8499 5.15 36.4999 11 36.4999C15.4026 36.4999 19.2674 33.8106 20.8119 29.7051C20.9674 29.2918 21.3524 28.9999 21.794 28.9999H41.5ZM38.4858 22.9999C38.751 22.9999 39.0054 23.1053 39.1929 23.2928L39.2071 23.307C39.3946 23.4946 39.5 23.7489 39.5 24.0141V24.9999C39.5 25.5522 39.0523 25.9999 38.5 25.9999H22.5C21.9477 25.9999 21.5 25.5522 21.5 24.9999V23.9999C21.5 23.4476 21.9477 22.9999 22.5 22.9999H38.4858ZM11 33.4999C6.8 33.4999 3.5 30.1999 3.5 25.9999V22.9999C3.5 18.7999 6.8 15.4999 11 15.4999C15.2 15.4999 18.5 18.7999 18.5 22.9999V25.9999C18.5 30.1999 15.2 33.4999 11 33.4999Z" fill="#00A795"/>
<path id="Vector_3" d="M8.5 21.5H7.5C6.94772 21.5 6.5 21.9477 6.5 22.5V26.5C6.5 27.0523 6.94772 27.5 7.5 27.5H8.5C9.05228 27.5 9.5 27.0523 9.5 26.5V22.5C9.5 21.9477 9.05228 21.5 8.5 21.5Z" fill="#00A795"/>
</g>
</svg>
