<svg width="38" height="39" viewBox="0 0 38 39" fill="none" xmlns="http://www.w3.org/2000/svg">
<g id="linkedin.svg">
<path id="Vector" d="M14.3894 26.6088V15.9257H10.769V26.6088H14.3894ZM12.5799 14.4674C13.8422 14.4674 14.628 13.6471 14.628 12.6218C14.6043 11.5734 13.8422 10.7759 12.604 10.7759C11.3648 10.7759 10.5555 11.5734 10.5555 12.6217C10.5555 13.647 11.3411 14.4673 12.5562 14.4673L12.5799 14.4674ZM16.3933 26.6088H20.0135V20.6435C20.0135 20.3246 20.0372 20.005 20.1328 19.7772C20.3944 19.139 20.99 18.4784 21.9905 18.4784C23.3001 18.4784 23.8244 19.458 23.8244 20.8943V26.6088H27.4444V20.4835C27.4444 17.2022 25.6586 15.6752 23.2767 15.6752C21.3239 15.6752 20.4662 16.7458 19.9897 17.475H20.0137V15.9261H16.3935C16.4408 16.9283 16.3933 26.6088 16.3933 26.6088Z" fill="white"/>
</g>
</svg>
