<svg width="60" height="44" viewBox="0 0 60 44" fill="none" xmlns="http://www.w3.org/2000/svg">
<g id="logo_big_white.svg" clip-path="url(#clip0_2_1422)">
<path id="Vector" d="M30.5682 41.6835C30.1003 41.7626 29.6264 41.7991 29.1524 41.7929C28.2629 41.7929 27.3094 41.1951 27.3094 39.5259V38.5488C27.3094 36.7788 28.3091 36.2755 29.2153 36.2755C29.6683 36.2713 30.1208 36.3054 30.5682 36.3774C30.6313 36.3848 30.6895 36.4133 30.6895 36.4868V36.8509C30.6895 36.9019 30.6615 36.9243 30.5973 36.9243H30.5695C30.1497 36.8881 29.822 36.8732 29.2166 36.8732C28.5553 36.8732 27.9573 37.2375 27.9573 38.5488V39.5259C27.9573 40.7291 28.491 41.2026 29.1535 41.2026C29.5867 41.2026 29.8815 41.1741 30.0489 41.159V39.0745C30.0474 39.0562 30.0496 39.0376 30.0554 39.0201C30.0612 39.0028 30.0703 38.9865 30.0824 38.9728C30.0943 38.9592 30.109 38.948 30.1254 38.9403C30.1418 38.9326 30.1596 38.9284 30.1776 38.9279H30.562C30.5987 38.9299 30.6332 38.9462 30.6582 38.9736C30.6833 39.0009 30.6971 39.0371 30.6968 39.0745V41.5233C30.6979 41.5615 30.6854 41.5986 30.6619 41.6282C30.6383 41.6576 30.6049 41.6774 30.5682 41.6835Z" fill="white" fill-opacity="0.6"/>
<path id="Vector_2" d="M33.3495 38.2428C33.0184 38.2294 32.6867 38.254 32.3608 38.3163V41.5963C32.3624 41.6319 32.3509 41.6667 32.3284 41.6937C32.3058 41.7209 32.2739 41.7381 32.2395 41.7418H31.8694C31.8334 41.7397 31.7999 41.7235 31.7759 41.6961C31.7516 41.6689 31.7391 41.6332 31.7408 41.5963V38.0539C31.7429 38.0173 31.7557 37.9821 31.7775 37.9531C31.7993 37.9241 31.8293 37.9025 31.8633 37.891C32.2686 37.7084 32.7599 37.6871 33.3495 37.6871C33.4429 37.6871 33.4999 37.6946 33.4999 37.7965V38.131C33.4999 38.2069 33.4854 38.2428 33.3495 38.2428Z" fill="white" fill-opacity="0.6"/>
<path id="Vector_3" d="M35.7104 41.7928C34.6646 41.7928 34.1331 41.0856 34.1331 40.0141V39.4597C34.1331 38.3882 34.667 37.6824 35.7104 37.6824C36.7539 37.6824 37.2877 38.3882 37.2877 39.4597V40.0141C37.2877 41.0856 36.7502 41.7928 35.7104 41.7928ZM36.6713 39.4597C36.6713 38.714 36.3789 38.2429 35.7104 38.2429C35.0419 38.2429 34.7568 38.7102 34.7568 39.4597V40.0141C34.7568 40.7599 35.0419 41.2322 35.7104 41.2322C36.3789 41.2322 36.6713 40.7649 36.6713 40.0141V39.4597Z" fill="white" fill-opacity="0.6"/>
<path id="Vector_4" d="M39.6609 41.7931H39.593C39.1077 41.7931 38.1273 41.516 38.1273 40.0804V37.8791C38.1259 37.8604 38.1281 37.8418 38.134 37.8241C38.14 37.8066 38.1493 37.7904 38.1616 37.7768C38.1739 37.7632 38.189 37.7522 38.2056 37.7447C38.2221 37.7372 38.2403 37.7335 38.2583 37.7335H38.6284C38.6465 37.7339 38.6642 37.7379 38.6804 37.7455C38.6968 37.7531 38.7115 37.7641 38.7236 37.7777C38.7355 37.7913 38.7449 37.8073 38.7506 37.8249C38.7564 37.8422 38.7585 37.8606 38.757 37.8791V40.0804C38.757 40.9504 39.1211 41.2325 39.5967 41.2325H39.6609C40.1365 41.2325 40.5006 40.9555 40.5006 40.0804V37.8791C40.4989 37.8608 40.5012 37.8424 40.507 37.8251C40.5125 37.8077 40.5217 37.7917 40.5336 37.7781C40.5456 37.7645 40.5601 37.7535 40.5763 37.7458C40.5925 37.7382 40.61 37.7341 40.6279 37.7335H40.998C41.0159 37.7339 41.0336 37.7379 41.05 37.7455C41.0664 37.7531 41.0811 37.7641 41.0932 37.7777C41.1051 37.7913 41.1144 37.8073 41.1202 37.8249C41.1258 37.8422 41.128 37.8606 41.1265 37.8791V40.0804C41.1265 41.516 40.1438 41.7931 39.6609 41.7931Z" fill="white" fill-opacity="0.6"/>
<path id="Vector_5" d="M43.5518 41.7929C43.2727 41.7892 42.9943 41.7625 42.7194 41.7133V43.0323C42.7194 43.0503 42.7158 43.0682 42.7092 43.085C42.7025 43.1018 42.6924 43.1169 42.6799 43.1297C42.6674 43.1426 42.6527 43.1526 42.6363 43.1597C42.6199 43.1666 42.6024 43.1702 42.5847 43.1702H42.2208C42.2034 43.17 42.1863 43.1662 42.1702 43.1592C42.1544 43.1521 42.14 43.1419 42.1279 43.129C42.1161 43.1161 42.1067 43.101 42.1005 43.0842C42.0944 43.0677 42.0914 43.05 42.0922 43.0323V38.0155C42.0922 37.921 42.1139 37.8776 42.2415 37.849C42.6702 37.7424 43.1095 37.6862 43.5505 37.6812C44.611 37.6812 45.1022 38.3872 45.1022 39.4811V40.0043C45.1035 41.1515 44.5904 41.7929 43.5518 41.7929ZM44.4763 39.4822C44.4763 38.7165 44.2566 38.2219 43.5518 38.2219C43.2728 38.2236 42.9946 38.2477 42.7194 38.2941V41.1802C42.9946 41.2264 43.2728 41.251 43.5518 41.2534C44.2493 41.2534 44.4763 40.7873 44.4763 40.0105V39.4822Z" fill="white" fill-opacity="0.6"/>
<path id="Vector_6" d="M18.1845 41.7334C17.8642 41.7845 16.9712 41.8491 16.6618 41.8491C15.2884 41.8491 14.3566 41.496 14.3566 39.7285V36.5068C14.3569 36.4881 14.3608 36.4697 14.3682 36.4526C14.3755 36.4354 14.3861 36.4201 14.3993 36.4072C14.4125 36.3944 14.4281 36.3844 14.4451 36.3778C14.4622 36.3711 14.4803 36.3682 14.4986 36.3687H15.6584C15.6767 36.368 15.6949 36.3709 15.712 36.3774C15.7291 36.384 15.7448 36.3941 15.758 36.4069C15.7713 36.4197 15.7819 36.4352 15.7891 36.4524C15.7964 36.4695 15.8002 36.4879 15.8004 36.5068V39.7285C15.8004 40.3848 16.0139 40.5985 16.5199 40.5985C16.7483 40.5978 16.9764 40.5829 17.203 40.5538V36.5068C17.203 36.4879 17.2069 36.4695 17.2142 36.4524C17.2215 36.4352 17.2321 36.4197 17.2453 36.4069C17.2586 36.3941 17.2742 36.384 17.2913 36.3774C17.3085 36.3709 17.3266 36.368 17.3448 36.3687H18.4975C18.535 36.367 18.5719 36.3806 18.5997 36.4063C18.6276 36.4322 18.6446 36.4682 18.6468 36.5068V41.1716C18.6468 41.5793 18.5255 41.6826 18.1845 41.7334Z" fill="white"/>
<path id="Vector_7" d="M20.8803 41.7845H19.7132C19.6758 41.7833 19.6403 41.7674 19.6142 41.7401C19.5881 41.7127 19.5736 41.676 19.5736 41.6378V36.5067C19.574 36.4883 19.5778 36.4701 19.585 36.4531C19.5923 36.4361 19.6025 36.4208 19.6155 36.4082C19.6284 36.3953 19.6437 36.3852 19.6605 36.3784C19.6773 36.3717 19.6951 36.3683 19.7132 36.3686H20.8803C20.8985 36.3679 20.9168 36.3709 20.934 36.3774C20.9511 36.3839 20.9668 36.3938 20.98 36.4069C20.9932 36.4197 21.0039 36.4352 21.0111 36.4523C21.0184 36.4695 21.0221 36.4879 21.0223 36.5067V41.6378C21.0225 41.6569 21.0189 41.676 21.0118 41.6937C21.0048 41.7115 20.9943 41.7277 20.9811 41.7413C20.9679 41.755 20.9522 41.7658 20.9349 41.7733C20.9175 41.7805 20.8991 41.7845 20.8803 41.7845Z" fill="white"/>
<path id="Vector_8" d="M25.0069 41.7183C24.6832 41.813 24.3474 41.8569 24.0107 41.8489C22.7016 41.8489 21.8197 41.1205 21.8197 39.4512V38.7052C21.8197 37.0311 22.7016 36.3027 24.0107 36.3027C24.3472 36.2952 24.683 36.3392 25.0069 36.4331C25.121 36.4704 25.1635 36.4917 25.1635 36.5936V37.527C25.1635 37.6215 25.121 37.6649 25.0421 37.6649H25.0204C24.6896 37.6254 24.3571 37.6038 24.0241 37.6004C23.6395 37.6004 23.2962 37.7743 23.2962 38.7004V39.4461C23.2962 40.3647 23.6384 40.5475 24.0241 40.5475C24.3571 40.5436 24.6896 40.5216 25.0204 40.4815H25.0335C25.1186 40.4815 25.1549 40.5251 25.1549 40.6196V41.558C25.1635 41.6525 25.121 41.6823 25.0069 41.7183Z" fill="white"/>
<path id="Vector_9" d="M19.7258 8.13125C11.6368 6.18863 5.98385 10.8049 2.50674 5.61419C2.49632 5.59332 2.4859 5.58287 2.4755 5.56198C2.38179 5.41575 2.50674 5.20688 2.67329 5.24866C9.83578 6.96148 11.0017 5.89619 14.0104 6.26175C16.79 6.59596 19.7258 8.13125 19.7258 8.13125Z" fill="white"/>
<path id="Vector_10" d="M21.1522 9.43713C14.0314 8.38226 8.9822 13.7192 5.17195 9.61468C5.16154 9.60423 5.15114 9.58332 5.13031 9.57294C5.02621 9.45804 5.09907 9.24914 5.25523 9.25959C11.7618 9.74003 13.2922 8.59115 15.9677 8.47625C18.4663 8.37187 21.1522 9.43713 21.1522 9.43713Z" fill="white"/>
<path id="Vector_11" d="M22.4741 11.1186C16.2589 10.2726 13.5938 15.8706 8.55511 12.445C8.54466 12.4345 8.53427 12.4241 8.51343 12.4032C8.40935 12.3092 8.44058 12.0377 8.58634 12.0377C14.0935 12.0481 15.5302 10.7635 17.8517 10.4815C20.9958 10.1055 22.4741 11.1186 22.4741 11.1186Z" fill="white"/>
<path id="Vector_12" d="M25.2747 12.9669C22.0267 13.3116 22.5367 15.9227 18.9764 15.3377C18.5077 15.2646 18.6119 14.9304 18.8202 14.8677C21.8079 14.0113 21.8079 13.4369 22.8803 13.0087C23.9006 12.6222 25.2747 12.9669 25.2747 12.9669Z" fill="white"/>
<path id="Vector_13" d="M23.807 12.1627C19.1222 12.2567 17.9249 15.6301 13.9793 14.5335C13.3755 14.3665 13.5837 13.9069 13.9065 13.8651C18.4247 13.1445 18.6433 12.476 20.3193 12.0792C21.8913 11.7032 23.807 12.1627 23.807 12.1627Z" fill="white"/>
<path id="Vector_14" d="M21.1311 8.12117C21.0998 8.17337 21.0269 8.18382 20.9749 8.16291C20.0067 7.60938 19.101 6.96185 18.0599 6.25165C17.0814 5.59367 14.9784 4.69546 10.606 4.90435C8.52389 5.00878 5.35908 5.43701 2.09016 3.1915C1.29896 2.65885 0.497336 1.75021 0.0809201 0.904237C0.0392775 0.831134 0.0184572 0.737123 0.00804606 0.64313C-0.00236323 0.549137 0.101741 0.476033 0.195437 0.507358C8.28444 3.76593 10.5956 2.49176 15.6864 3.67194C17.7789 4.16281 20.3712 7.21249 21.1207 7.97492C21.1622 8.00627 21.1622 8.06892 21.1311 8.12117Z" fill="white"/>
<path id="Vector_15" d="M28.169 25.9806C28.0752 26.2729 28.0961 26.6176 27.9087 26.8683C27.6796 27.2026 27.1174 27.2339 26.8469 26.9309C26.6698 26.7743 26.6698 26.5237 26.6074 26.3253C26.2014 24.5393 25.8057 22.7534 25.4101 20.9568C25.3686 20.8316 25.4101 20.7479 25.5352 20.6958C25.7329 20.6436 25.7538 20.8629 25.8162 20.9884C26.2638 22.2102 26.6803 23.4427 27.1383 24.6645C27.284 25.0823 27.7734 24.9465 28.0961 25.051C28.4398 25.2704 28.2314 25.6777 28.169 25.9806Z" fill="white"/>
<path id="Vector_16" d="M28.6996 21.051C28.7414 21.1658 28.6787 21.3016 28.5539 21.3225C28.481 21.333 28.4186 21.3225 28.3977 21.2182C28.0959 20.6123 27.8355 19.9753 27.5232 19.3694C27.1172 19.0249 26.6904 18.6697 26.4405 18.1789C25.9929 17.385 26.0345 16.3512 26.5343 15.5887C26.5758 15.5365 26.6071 15.4739 26.6487 15.4215C26.7215 15.3172 26.8777 15.338 26.9195 15.4634C26.9508 15.5574 26.9714 15.6512 27.0132 15.7349C27.5754 17.5 28.1167 19.2859 28.6996 21.051Z" fill="white"/>
<path id="Vector_17" d="M28.7831 12.6431C28.7623 13.1131 28.5854 13.5518 28.4708 14.0008C28.4603 14.0322 28.4499 14.053 28.4188 14.0635C28.3459 14.0948 28.2731 14.0426 28.2731 13.9695C28.2835 13.3533 28.5021 12.7475 28.3459 12.1418C28.1169 11.3167 27.5547 10.596 27.5129 9.71875C27.4923 9.25922 27.6067 8.81007 27.7004 8.36098C27.3673 7.66126 27.2111 6.85702 27.3881 6.09461C27.4194 6.00061 27.4296 6.00061 27.4818 6.07372C27.8046 6.5437 28.2313 7.01366 28.2313 7.6299C28.1898 8.50723 27.7108 9.3845 28.0336 10.2618C28.2937 11.0452 28.8559 11.7763 28.7831 12.6431Z" fill="white"/>
<path id="Vector_18" d="M31.5312 9.61456C31.5103 10.7634 30.511 11.6825 30.6256 12.8523C30.6256 13.3014 30.74 13.7609 30.688 14.21C30.6151 14.6069 30.1674 14.6695 29.8448 14.7635C29.6574 14.8471 29.4492 14.6278 29.5012 14.4398C29.5012 13.082 29.5012 11.7139 29.5012 10.3561C29.522 9.79211 29.6574 9.19683 30.0425 8.76858C30.282 8.48659 30.5318 8.2046 30.792 7.9226C30.8442 7.85996 30.8753 7.78686 30.8649 7.71371C30.8442 7.46307 30.792 7.24378 30.9066 6.95134C31.0836 6.58576 31.3126 6.36643 31.5521 6.12622C31.5936 6.08446 31.6561 6.10533 31.6666 6.15756C31.8332 6.89908 31.6666 7.70332 31.3231 8.37175C31.4064 8.76858 31.5312 9.18638 31.5312 9.61456Z" fill="white"/>
<path id="Vector_19" d="M44.6801 5.41611C43.2642 5.81299 42.6083 6.29343 42.0462 6.74249C42.0462 6.74249 43.3266 6.29343 45.1694 6.09499C50.3954 5.52055 50.6974 7.47363 56.548 5.20723C56.746 5.17591 56.7979 5.33257 56.746 5.41611C55.9652 6.77385 55.1011 8.27781 51.832 8.41361C48.2717 8.5598 46.4187 7.12893 43.0767 7.55718C40.9427 7.82872 39.8392 8.49716 39.225 8.90444C46.5122 7.50493 45.9085 10.7217 53.0501 9.00889C53.1334 8.98805 53.2272 8.96715 53.3105 8.9776C53.4977 8.99844 53.5707 9.22824 53.4562 9.35359C53.4041 9.41623 53.3311 9.47888 53.2792 9.54158C52.3422 10.5547 51.3533 11.6617 48.0218 11.4111C44.1074 11.1186 43.8575 8.68515 36.3829 10.5442C43.6285 10.5129 43.5037 12.8941 48.9588 12.1839C49.1462 12.163 49.2606 12.3928 49.1149 12.5182C49.0316 12.5913 48.9379 12.6539 48.865 12.7166C48.0427 13.3641 46.8454 14.1579 44.5968 13.6983C39.912 12.7166 40.5053 10.774 34.4776 11.8393C39.1728 11.9646 38.8501 13.7923 43.6703 14.2414C43.6703 14.2414 43.6703 14.2414 43.6807 14.2414C43.9408 14.2728 44.0137 14.6174 43.7951 14.7636C43.6285 14.8785 43.4412 14.9621 43.2642 15.0352C39.7454 16.4034 38.111 11.9751 33.7906 12.9672C36.8826 13.2388 36.6327 14.2832 39.4227 15.0456C39.7245 15.1292 39.6934 15.5365 39.3602 15.5678C36.0497 15.9021 36.3411 13.667 34.311 13.5835C33.7697 13.5626 33.2701 13.855 32.9994 14.3355C32.1977 15.735 32.5204 17.0614 32.4685 17.782C32.6559 18.5341 32.9369 19.2651 32.9474 20.0588C32.9578 20.6124 32.9056 21.1869 32.7288 21.7195C32.3956 22.8265 32.0624 23.9336 31.719 25.0511C31.6461 25.2809 31.6564 25.5315 31.7396 25.7509C31.8647 26.0852 31.9895 26.4088 32.0415 26.764C32.1666 27.3592 32.0833 27.9755 31.8751 28.55C31.4378 29.6257 31.0006 30.7015 30.5632 31.7876C30.4799 31.986 30.4175 32.1949 30.2718 32.3621C30.0532 32.4038 30.0741 32.1219 30.0948 31.986C30.5217 27.965 30.9277 23.9441 31.344 19.9231L31.6772 18.9621C31.0215 19.5262 30.7298 20.3096 30.3031 21.0093C30.2509 21.1763 30.0012 21.2077 29.949 21.0198C29.9908 20.32 30.0843 19.6201 30.1052 18.9204C30.1676 18.2102 30.1574 17.4896 30.3966 16.8108C30.6674 16.1214 31.1879 15.5678 31.5939 14.9725C32.2603 14.1161 32.7599 13.1448 33.1035 12.1213C33.3117 11.4946 33.749 10.9411 34.311 10.5964C36.258 9.36404 37.3927 8.29871 39.2352 6.8992C40.9323 5.61455 42.244 4.61192 42.9934 4.30903C46.4187 2.89908 53.3 4.41348 59.1923 0.570021C59.338 0.486482 59.5255 0.653578 59.4109 0.893796C58.8593 2.29331 58.2034 3.19151 56.6418 3.96439C52.1443 6.18898 46.9807 4.76858 44.6801 5.41611Z" fill="white"/>
<path id="Vector_20" d="M31.0212 7.82873C31.0212 7.82873 30.636 7.14985 29.6991 7.0663C28.9912 7.00366 28.6686 7.24385 28.6686 7.24385C28.6686 7.24385 29.5223 6.99321 30.1884 7.58848C30.8548 8.18382 30.4903 8.69561 30.4903 8.69561C30.4903 8.69561 31.2191 8.26737 31.0212 7.82873Z" fill="white"/>
<path id="Vector_21" d="M30.9794 7.73479C30.9794 7.73479 30.4901 7.21255 29.4907 7.17075C29.4907 7.17075 30.0841 7.317 30.1571 7.6408C30.2819 8.25698 29.7406 9.08205 29.6365 9.47895C29.5532 9.83403 30.9794 7.73479 30.9794 7.73479Z" fill="white"/>
</g>
<defs>
<clipPath id="clip0_2_1422">
<rect width="59.9854" height="42.67" fill="white" transform="translate(0.00732422 0.5)"/>
</clipPath>
</defs>
</svg>
