<?xml version="1.0" encoding="UTF-8" standalone="no"?>
<svg
   xmlns:dc="http://purl.org/dc/elements/1.1/"
   xmlns:cc="http://creativecommons.org/ns#"
   xmlns:rdf="http://www.w3.org/1999/02/22-rdf-syntax-ns#"
   xmlns:svg="http://www.w3.org/2000/svg"
   xmlns="http://www.w3.org/2000/svg"
   viewBox="0 0 682.66669 682.66669"
   height="682.66669"
   width="682.66669"
   xml:space="preserve"
   id="svg2"
   version="1.1"><metadata
     id="metadata8"><rdf:RDF><cc:Work
         rdf:about=""><dc:format>image/svg+xml</dc:format><dc:type
           rdf:resource="http://purl.org/dc/dcmitype/StillImage" /></cc:Work></rdf:RDF></metadata><defs
     id="defs6"><linearGradient
       id="linearGradient32"
       spreadMethod="pad"
       gradientTransform="matrix(306.69897,0,0,-306.69897,86.270813,294.45139)"
       gradientUnits="userSpaceOnUse"
       y2="0"
       x2="1"
       y1="0"
       x1="0"><stop
         id="stop24"
         offset="0"
         style="stop-opacity:1;stop-color:#00ede2" /><stop
         id="stop26"
         offset="0.137838"
         style="stop-opacity:1;stop-color:#00ede2" /><stop
         id="stop28"
         offset="0.894595"
         style="stop-opacity:1;stop-color:#5978ff" /><stop
         id="stop30"
         offset="1"
         style="stop-opacity:1;stop-color:#5978ff" /></linearGradient><clipPath
       id="clipPath42"
       clipPathUnits="userSpaceOnUse"><path
         id="path40"
         d="M 0,512 H 512 V 0 H 0 Z" /></clipPath><linearGradient
       id="linearGradient80"
       spreadMethod="pad"
       gradientTransform="matrix(324.78406,0,0,-324.78406,74.104835,293.12958)"
       gradientUnits="userSpaceOnUse"
       y2="0"
       x2="1"
       y1="0"
       x1="0"><stop
         id="stop72"
         offset="0"
         style="stop-opacity:1;stop-color:#00ede2" /><stop
         id="stop74"
         offset="0.137838"
         style="stop-opacity:1;stop-color:#00ede2" /><stop
         id="stop76"
         offset="0.894595"
         style="stop-opacity:1;stop-color:#5978ff" /><stop
         id="stop78"
         offset="1"
         style="stop-opacity:1;stop-color:#5978ff" /></linearGradient><clipPath
       id="clipPath90"
       clipPathUnits="userSpaceOnUse"><path
         id="path88"
         d="M 0,512 H 512 V 0 H 0 Z" /></clipPath></defs><g
     transform="matrix(1.3333333,0,0,-1.3333333,0,682.66667)"
     id="g10"><g
       id="g12"><g
         id="g14"><g
           id="g20"><g
             id="g22"><path
               id="path34"
               style="fill:url(#linearGradient32);stroke:none"
               d="m 130.193,419.3 c -7.957,-0.435 -15.727,-1.872 -22.992,-5.368 v 0 C 96.225,408.65 89.414,400.133 87.123,388.097 v 0 c -1.406,-7.384 -0.962,-14.731 0.525,-22.035 v 0 c 2.663,-13.079 8.054,-25.084 14.6,-36.624 v 0 c 11.557,-20.372 26.249,-38.348 42.545,-55.02 v 0 c 29.587,-30.269 63.193,-55.237 100.63,-74.98 v 0 c 23.681,-12.489 48.287,-22.614 74.743,-27.633 v 0 c 12.532,-2.377 25.151,-3.283 37.824,-1.186 v 0 c 8.476,1.402 16.337,4.377 22.864,10.16 v 0 c 9.312,8.251 12.346,19.021 12.102,31.028 v 0 c -0.016,0.77 -0.444,2.304 -0.444,2.304 v 0 c 0,0 -2.34,-9.666 -5.027,-13.854 v 0 C 382.461,192.42 374.88,188.421 366.129,186.38 v 0 c -12.067,-2.814 -24.153,-1.859 -36.187,0.323 v 0 c -16.989,3.081 -33.201,8.675 -48.831,15.869 v 0 c -46.926,21.602 -87.716,51.647 -122.455,89.86 v 0 c -13.018,14.319 -24.456,29.811 -33.083,47.227 v 0 c -4.895,9.881 -8.649,20.144 -9.547,31.247 v 0 c -1.307,16.153 5.83,29.371 22.025,34.725 v 0 c 5.182,1.713 10.502,2.578 15.935,2.789 v 0 c 14.024,0.544 27.594,-2.068 40.976,-5.944 v 0 c 22.074,-6.392 42.656,-16.175 62.535,-27.55 v 0 c 0.866,-0.495 1.765,-0.933 2.649,-1.396 v 0 c 0.094,0.209 0.187,0.42 0.28,0.631 v 0 c -1.789,1.11 -3.571,2.232 -5.368,3.33 v 0 c -24.316,14.865 -49.753,27.296 -77.221,35.232 v 0 c -13.69,3.955 -27.573,6.735 -41.816,6.735 v 0 c -1.936,0 -3.879,-0.051 -5.828,-0.158" /></g></g></g></g><g
       id="g36"><g
         clip-path="url(#clipPath42)"
         id="g38"><g
           transform="translate(268.9238,283.978)"
           id="g44"><path
             id="path46"
             style="fill:#ffffff;fill-opacity:1;fill-rule:nonzero;stroke:none"
             d="m 0,0 c 1.343,-0.146 3.366,-0.184 3.366,-0.184 l 12.773,0.173 c 2.943,0.04 5.88,0.432 8.698,1.281 2.74,0.824 5.598,2.15 6.806,4.238 4.122,7.125 4.425,14.563 0.698,21.945 -2.194,4.345 -5.868,6.674 -10.858,6.67 C 15.145,34.117 2.926,33.829 2.926,33.829 L 0,33.861 Z M -30.178,-50.094 V 60.803 c 1.227,0.119 2.241,0.303 3.256,0.305 16.373,0.022 32.746,0.014 49.119,0.03 7.669,0.008 14.933,-1.586 21.622,-5.435 C 52.954,50.446 58.848,42.53 62.125,32.677 65.374,22.911 65.602,12.972 62.777,3.039 57.396,-15.882 42.589,-27.256 22.863,-27.604 16.791,-27.712 10.716,-27.636 4.642,-27.643 3.216,-27.645 1.79,-27.644 -0.143,-27.644 v -30.44 z" /></g><g
           transform="translate(438.9941,344.5767)"
           id="g48"><path
             id="path50"
             style="fill:#ffffff;fill-opacity:1;fill-rule:nonzero;stroke:none"
             d="m 0,0 v -25.637 h -37.254 c -0.933,-3.265 -0.366,-66.434 -0.366,-66.434 l 0.641,-26.581 h -31.58 l -0.195,26.465 c 0,0 1.253,58.153 0.414,66.238 -4.306,0.112 -36.99,0.346 -36.99,0.346 v 25.412 z" /></g><g
           transform="translate(224.5581,243.2109)"
           id="g52"><path
             id="path54"
             style="fill:#ffffff;fill-opacity:1;fill-rule:nonzero;stroke:none"
             d="m 0,0 c -7.93,6.071 -15.459,11.836 -22.489,17.219 v 84.538 c 9.885,0.282 19.311,0.118 29.173,0.074 0.062,-1.53 0.157,-2.801 0.158,-4.072 C 6.846,72.674 6.839,47.588 6.833,22.503 6.831,14.525 4.854,7.147 0,0" /></g><g
           transform="translate(185.8486,223.0146)"
           id="g56"><path
             id="path58"
             style="fill:#ffffff;fill-opacity:1;fill-rule:nonzero;stroke:none"
             d="m 0,0 c -2.261,0.892 -4.644,1.385 -7.313,1.474 -7.91,0.262 -15.313,2.751 -22.11,6.806 -11.949,7.13 -18.647,17.613 -19.775,31.553 -0.085,1.051 -0.145,2.103 -0.228,3.321" /></g></g></g><g
       id="g60"><g
         id="g62"><g
           id="g68"><g
             id="g70"><path
               id="path82"
               style="fill:url(#linearGradient80);stroke:none"
               d="m 114.682,425.711 c -10.03,-1.846 -19.387,-5.286 -26.986,-12.386 v 0 C 76.702,403.053 73.486,389.934 74.2,375.468 v 0 c 0.593,-12.034 3.989,-23.386 8.704,-34.373 v 0 c 9.371,-21.846 23.039,-40.892 38.61,-58.658 v 0 c 4.867,-5.552 9.972,-10.895 14.909,-16.268 v 0 c 16.474,-17.15 33.311,-32.192 49.425,-43.154 v 0 c 1.942,-0.766 3.794,-1.826 5.66,-3.176 v 0 c 28.285,-20.458 58.541,-37.294 91.651,-48.7 v 0 c 17.423,-6.003 35.217,-10.273 53.701,-11.224 v 0 c 11.71,-0.602 23.243,0.284 34.364,4.283 v 0 c 12.611,4.536 21.851,12.608 26.266,25.579 v 0 c 0.577,1.696 1.399,5.207 1.399,5.207 v 0 c 0,0 -1.009,-0.988 -1.198,-1.57 v 0 c -4.009,-12.385 -12.412,-20.583 -24.24,-25.574 v 0 c -8.152,-3.44 -16.72,-4.834 -25.471,-5.219 v 0 c -12.085,-0.532 -23.989,0.989 -35.773,3.559 v 0 c -23.783,5.189 -46.088,14.323 -67.607,25.503 v 0 c -25.406,13.2 -49.008,29.163 -71.291,47.083 v 0 c -20.443,16.441 -39.36,34.461 -55.778,54.984 v 0 C 105.435,308.871 94.904,324.968 87.587,343 v 0 c -5.474,13.488 -8.992,27.379 -7.573,42.077 v 0 c 1.549,16.033 9.198,28.111 23.806,35.443 v 0 c 6.32,3.172 13.118,4.464 19.88,5.995 v 0 c -3.172,0 -6.055,-0.259 -9.018,-0.804" /></g></g></g></g><g
       id="g84"><g
         clip-path="url(#clipPath90)"
         id="g86"><g
           transform="translate(165.3418,344.5249)"
           id="g92"><path
             id="path94"
             style="fill:#ffffff;fill-opacity:1;fill-rule:nonzero;stroke:none"
             d="m 0,0 v -48.612 c -0.96,0.875 -1.76,1.482 -2.412,2.218 -8.774,9.907 -16.769,20.397 -23.854,31.586 -0.614,0.971 -1.11,2.351 -1.496,3.736 -0.729,2.618 -1.049,5.334 -1.031,8.051 l 0.019,2.864 z" /></g></g></g><text
       id="text98"
       style="font-variant:normal;font-weight:normal;font-stretch:normal;font-size:27.47909927px;font-family:'Myriad Pro';-inkscape-font-specification:MyriadPro-Regular;writing-mode:lr-tb;fill:#ffffff;fill-opacity:1;fill-rule:nonzero;stroke:none"
       transform="matrix(1,0,0,-0.98261952,74.105,92.1182)"><tspan
         id="tspan96"
         y="0"
         x="0 12.777781 27.863808 43.004791 51.990456 57.816025 71.717705 84.962631 94.607796 103.70338 118.95428 132.7213 141.70697 147.53255 153.96265 169.21355 175.03912 193.34019 199.77031 214.96625 221.39636 230.49194 243.73686 250.22194 256.04752 269.37488 282.31754 297.40356 303.88861 319.0296 328.12518 334.5553 349.64133">Your Partner in Digital Evolution</tspan></text>
<text
       id="text102"
       style="font-variant:normal;font-weight:normal;font-stretch:normal;font-size:27.47909927px;font-family:Azonix;-inkscape-font-specification:AzonixRegular;writing-mode:lr-tb;fill:#ffffff;fill-opacity:1;fill-rule:nonzero;stroke:none"
       transform="matrix(1,0,0,-0.98261952,228.0704,126.70712)"><tspan
         id="tspan100"
         y="0"
         x="0 21.98328 42.043022">UPT</tspan></text>
</g></svg>