<svg width="24" height="25" viewBox="0 0 24 25" fill="none" xmlns="http://www.w3.org/2000/svg">
<g id="SVG - icon">
<path id="Vector" d="M24 12.2202C24 5.5928 18.6274 0.220215 12 0.220215C5.37258 0.220215 0 5.5928 0 12.2202C0 18.8476 5.37258 24.2202 12 24.2202C18.6274 24.2202 24 18.8476 24 12.2202Z" fill="white" fill-opacity="0.3"/>
<path id="Vector_2" fill-rule="evenodd" clip-rule="evenodd" d="M12 5.02022C8.02355 5.02022 4.8 8.24376 4.8 12.2202C4.8 16.1967 8.02355 19.4202 12 19.4202C13.1511 19.4202 14.2367 19.1507 15.1995 18.6723C15.6446 18.4511 16.1847 18.6326 16.4059 19.0777C16.6272 19.5228 16.4456 20.063 16.0005 20.2842C14.7944 20.8836 13.4352 21.2202 12 21.2202C7.02943 21.2202 3 17.1907 3 12.2202C3 7.24964 7.02943 3.22021 12 3.22021C16.9705 3.22021 21 7.24964 21 12.2202V13.1202C21 14.3883 20.6826 15.402 20.0883 16.1151C19.485 16.839 18.663 17.1702 17.85 17.1702C16.7458 17.1702 15.6292 16.5482 15.0691 15.5112C14.2651 16.2613 13.1862 16.7202 12 16.7202C9.51472 16.7202 7.5 14.7055 7.5 12.2202C7.5 9.73493 9.51472 7.72021 12 7.72021C13.013 7.72021 13.9479 8.05496 14.7 8.61988C14.7002 8.12298 15.103 7.72021 15.6 7.72021C16.0971 7.72021 16.5 8.12316 16.5 8.62021V14.0202C16.5 14.8157 17.1626 15.3702 17.85 15.3702C18.162 15.3702 18.465 15.2514 18.7055 14.9628C18.9549 14.6634 19.2 14.1021 19.2 13.1202V12.2202C19.2 8.24376 15.9765 5.02022 12 5.02022ZM14.7 12.2202C14.7 10.729 13.4912 9.52022 12 9.52022C10.5088 9.52022 9.3 10.729 9.3 12.2202C9.3 13.7114 10.5088 14.9202 12 14.9202C13.4912 14.9202 14.7 13.7114 14.7 12.2202Z" fill="white"/>
</g>
</svg>
