<svg width="96" height="26" viewBox="0 0 96 26" fill="none" xmlns="http://www.w3.org/2000/svg">
<g id="about-prosm.svg" clip-path="url(#clip0_10_87)">
<path id="Vector" d="M16.5236 3.82052C17.9694 2.81775 19.4021 1.79816 20.8536 0.804199C15.6226 5.77801 10.3744 10.735 5.13526 15.7008C5.10504 15.7377 5.04459 15.8114 5.01355 15.8482C4.98986 13.4999 5.00375 11.1507 5.00702 8.80235C5.4138 9.34378 5.82957 9.87801 6.22328 10.4283C6.22574 10.4323 6.23145 10.4387 6.2339 10.4427C6.32866 10.5716 6.42994 10.6974 6.55492 10.7999C9.86719 8.45874 13.2031 6.15045 16.5236 3.82052Z" fill="#ED1B24"/>
<path id="Vector_2" d="M0.501953 10.8186C1.62102 10.8202 2.74008 10.8161 3.85997 10.8202C3.8567 11.4849 3.85997 12.1497 3.85833 12.8145C3.42051 12.8153 2.9835 12.8105 2.54649 12.8161C2.54976 14.828 2.54404 16.8408 2.54894 18.8527C5.30903 18.8495 8.06994 18.8543 10.83 18.8511C11.8454 18.8359 12.7537 17.9717 12.7962 16.9762C12.8051 16.2529 12.7945 15.5297 12.8002 14.8064C12.8125 13.8869 12.0806 13.0243 11.1584 12.8633C11.6616 12.3331 12.2203 11.8558 12.7333 11.3344C14.0132 12.048 14.8407 13.4488 14.8513 14.8905C14.8472 15.609 14.8603 16.3282 14.844 17.0474C14.7623 18.6493 13.6122 20.1382 12.0594 20.6444C11.5635 20.8166 11.0351 20.8719 10.5115 20.8647C7.85674 20.8631 5.20284 20.8663 2.54813 20.8631C2.54813 22.2015 2.54404 23.5398 2.55058 24.8782C1.86852 24.883 1.18646 24.879 0.504404 24.8798C0.50032 20.1927 0.504404 15.5056 0.501953 10.8186Z" fill="white"/>
<path id="Vector_3" d="M16.4941 10.8181C19.9722 10.8197 23.4503 10.8157 26.9284 10.8197C28.9329 10.8909 30.7185 12.5905 30.8296 14.5584C30.8402 15.3882 30.8353 16.218 30.8329 17.0477C30.7683 18.6785 29.5627 20.1594 27.9919 20.6592C28.928 21.5843 29.8731 22.5013 30.81 23.4264C30.8688 23.9038 30.8206 24.3963 30.8329 24.8801C30.3509 24.8801 29.8698 24.8801 29.3887 24.8793C28.0246 23.5409 26.6588 22.2034 25.2947 20.8642C23.0435 20.8618 20.7915 20.8674 18.5403 20.8618C18.5338 22.2002 18.533 23.5393 18.5403 24.8785C17.8591 24.8825 17.177 24.8761 16.4958 24.8825C16.4925 20.1938 16.4958 15.5059 16.4941 10.8181ZM18.537 12.8124C18.5387 14.826 18.5305 16.8395 18.5411 18.8531C21.3069 18.8475 24.0727 18.8563 26.8386 18.8491C27.8506 18.8306 28.745 17.9624 28.7924 16.9741C28.8063 16.2484 28.7965 15.522 28.7973 14.7963C28.7941 14.0194 28.2803 13.2817 27.5525 12.9822C27.2037 12.8196 26.8108 12.8044 26.4326 12.8132C23.8007 12.814 21.1689 12.814 18.537 12.8124Z" fill="white"/>
<path id="Vector_4" d="M36.2551 10.8264C38.3985 10.8063 40.5427 10.8256 42.6861 10.8175C43.9162 10.7911 45.1194 11.387 45.8905 12.3153C46.4836 13.0057 46.8242 13.8987 46.8364 14.8022C46.8364 16.8334 46.8364 18.8646 46.8356 20.8965C46.8242 21.8408 46.468 22.7787 45.8301 23.4884C45.0778 24.3534 43.9334 24.8772 42.7727 24.878C40.6759 24.8804 38.579 24.8844 36.4822 24.8764C34.9016 24.8668 33.3954 23.8552 32.804 22.4199C32.6039 21.9361 32.4854 21.4155 32.4928 20.8917C32.492 18.8638 32.492 16.8366 32.4928 14.8094C32.4879 13.8211 32.8841 12.8359 33.5751 12.1159C34.258 11.3734 35.239 10.904 36.2551 10.8264ZM36.4961 12.8191C35.471 12.8415 34.5692 13.7217 34.5333 14.7253C34.5267 16.7837 34.53 18.8429 34.5316 20.9013C34.53 21.9257 35.4383 22.8444 36.483 22.8732C38.5799 22.8812 40.6759 22.8756 42.7727 22.8764C43.8411 22.8788 44.7968 21.9466 44.7886 20.8965C44.7919 18.8477 44.7968 16.7989 44.787 14.7509C44.7715 13.7169 43.8264 12.8175 42.7759 12.8167C40.6824 12.8135 38.5888 12.8087 36.4961 12.8191Z" fill="white"/>
<path id="Vector_5" d="M52.3101 10.9562C53.4373 10.6927 54.6062 10.8521 55.7416 10.9738C55.7408 11.5705 55.7441 12.1672 55.74 12.7639C55.5284 12.7647 55.3177 12.7639 55.1069 12.7615C55.0163 12.4155 54.9141 12.0719 54.8194 11.7275C53.9388 11.7788 52.9799 11.5665 52.1704 12.0038C51.5602 12.3066 51.3707 13.2445 51.9213 13.6874C52.4775 14.0983 53.1767 14.2376 53.8171 14.4755C54.5384 14.7318 55.3217 15.0442 55.7367 15.7186C56.1157 16.3954 56.0357 17.2828 55.5815 17.9075C55.12 18.5403 54.3293 18.8486 53.5656 18.9488C52.4718 19.0721 51.2833 18.9768 50.3301 18.3937C50.4281 18.107 50.5016 17.8122 50.6143 17.5311C51.325 17.9476 52.1663 18.103 52.9872 18.0821C53.4863 18.0589 54.0181 17.9732 54.4151 17.6536C54.8578 17.298 54.973 16.6012 54.6421 16.1383C54.3505 15.741 53.8531 15.5768 53.4022 15.4206C52.5772 15.1395 51.6689 14.9385 51.017 14.3305C50.3905 13.7667 50.3121 12.7855 50.6813 12.0639C50.9974 11.4584 51.655 11.106 52.3101 10.9562Z" fill="white"/>
<path id="Vector_6" d="M82.9053 11.7874C83.7507 11.081 84.8886 10.7879 85.9848 10.8175C86.733 10.8335 87.4804 10.9016 88.2237 10.9849C88.2237 11.5776 88.2221 12.1711 88.2253 12.7638C88.0146 12.7638 87.8047 12.7638 87.5956 12.7646C87.4992 12.4186 87.3995 12.0742 87.3023 11.729C86.3964 11.7602 85.4514 11.6088 84.5855 11.946C83.785 12.236 83.1463 12.8983 82.8751 13.6897C82.6014 14.4842 82.6137 15.3732 82.9069 16.1606C83.1863 16.9054 83.7777 17.5366 84.5308 17.8377C85.1949 18.1245 85.9456 18.1092 86.6472 17.9891C87.103 17.8986 87.5621 17.7656 87.946 17.4997C88.0366 17.7889 88.1232 18.0804 88.2286 18.3655C87.6985 18.7412 87.0352 18.8765 86.3973 18.9542C85.0895 19.104 83.6739 18.7668 82.7158 17.8473C81.0307 16.2671 81.1222 13.262 82.9053 11.7874Z" fill="white"/>
<path id="Vector_7" d="M57.4395 10.9495C59.1238 10.9559 60.8073 10.9479 62.4916 10.9535C62.494 11.2603 62.4932 11.5679 62.4932 11.8754C61.1814 11.8746 59.8695 11.8778 58.5569 11.8738C58.5602 12.6595 58.5577 13.4445 58.5577 14.2302C59.6882 14.235 60.8195 14.2446 61.95 14.2254C61.999 14.5297 61.9631 14.8397 61.9745 15.1472C60.835 15.148 59.6964 15.144 58.5577 15.1496C58.5659 16.0803 58.543 17.0126 58.57 17.9433C59.9153 17.9361 61.2614 17.9401 62.6068 17.9409C62.6092 18.2469 62.6084 18.5536 62.6051 18.8604C60.884 18.8548 59.163 18.8556 57.4427 18.8596C57.437 16.2229 57.4419 13.5862 57.4395 10.9495Z" fill="white"/>
<path id="Vector_8" d="M64.1859 10.948C65.0534 10.9601 65.9208 10.9432 66.7891 10.9577C67.5945 10.9945 68.4661 11.1923 69.0322 11.7962C69.6424 12.445 69.72 13.4293 69.4823 14.2471C69.2731 14.9976 68.6442 15.5775 67.9131 15.8466C68.5225 16.8501 69.1376 17.8497 69.7363 18.8597C69.3336 18.8541 68.9309 18.8565 68.529 18.8573C67.9466 17.9274 67.3814 16.9879 66.7949 16.0604C66.2941 16.0893 65.791 16.0724 65.2903 16.0748C65.2919 17.0023 65.2886 17.929 65.2911 18.8565C64.9227 18.8573 64.5535 18.8541 64.1851 18.8605C64.1638 16.2238 64.1777 13.5855 64.1859 10.948ZM65.2919 11.8763C65.2894 12.9712 65.2886 14.0653 65.2927 15.1602C65.7616 15.1498 66.2312 15.1714 66.7001 15.1482C67.2278 15.1177 67.7759 14.9343 68.1247 14.5282C68.5282 14.0276 68.6042 13.2996 68.3501 12.7181C68.1353 12.2408 67.6101 11.9909 67.1077 11.9196C66.5065 11.8371 65.8963 11.8899 65.2919 11.8763Z" fill="white"/>
<path id="Vector_9" d="M69.9961 10.9539C70.3792 10.9756 70.7835 10.9075 71.1544 10.982C71.9295 12.8754 72.6917 14.776 73.4652 16.671C73.6269 17.0995 73.8401 17.5136 73.9185 17.9693C74.1268 17.1812 74.5009 16.4492 74.786 15.6867C75.4289 14.1088 76.0603 12.5254 76.7121 10.9507C77.0944 10.9531 77.4775 10.9531 77.8606 10.9547C76.757 13.589 75.6461 16.2209 74.5434 18.856C74.1309 18.8568 73.7184 18.8584 73.3059 18.856C72.2105 16.2185 71.0858 13.593 69.9961 10.9539Z" fill="white"/>
<path id="Vector_10" d="M78.9315 10.9536C79.3015 10.9528 79.6724 10.952 80.044 10.9504C80.0538 13.5863 80.0448 16.2222 80.0489 18.8572C79.674 18.8516 79.2991 18.8684 78.9258 18.846C78.938 16.2157 78.9266 13.5847 78.9315 10.9536Z" fill="white"/>
<path id="Vector_11" d="M89.6934 18.8565C89.6999 16.2214 89.6868 13.5863 89.6999 10.9512C91.3826 10.9528 93.0653 10.952 94.7471 10.952C94.7455 11.2588 94.7447 11.5655 94.7471 11.8731C93.4369 11.8771 92.1267 11.8771 90.8165 11.8731C90.8043 12.6604 90.8157 13.4469 90.8116 14.2343C91.947 14.2351 93.0832 14.2375 94.2186 14.2327C94.2243 14.5378 94.2211 14.843 94.2211 15.1489C93.084 15.1457 91.947 15.1457 90.81 15.1489C90.8181 16.0796 90.8026 17.0103 90.8173 17.941C92.1659 17.9394 93.5145 17.9378 94.8631 17.9418C94.8623 18.247 94.8623 18.5529 94.8631 18.8589C93.1396 18.8549 91.4169 18.8581 89.6934 18.8565Z" fill="white"/>
<path id="Vector_12" d="M50.6208 21.3129C50.8111 21.3089 51.0022 21.3089 51.1934 21.3161C51.6271 22.0025 52.0355 22.7049 52.4709 23.3905C52.894 22.6969 53.3131 22.0001 53.7501 21.3153C53.9396 21.3097 54.1307 21.3089 54.3219 21.3113C54.3211 22.4462 54.3178 23.5819 54.3243 24.7177C54.1626 24.7193 54.0017 24.7201 53.8416 24.7209C53.8399 23.7766 53.8285 22.8323 53.8669 21.8896C53.5001 22.5511 53.0933 23.1895 52.7094 23.8414C52.5485 23.8406 52.3884 23.8406 52.2291 23.8414C51.8419 23.1847 51.4286 22.5423 51.07 21.8703C51.1248 22.8186 51.0872 23.7694 51.097 24.7185C50.9369 24.7193 50.7776 24.7201 50.6191 24.7209C50.6224 23.5851 50.6183 22.4486 50.6208 21.3129Z" fill="white"/>
<path id="Vector_13" d="M60.9238 21.3114C61.1027 21.3106 61.2816 21.3114 61.4621 21.3114C62.0927 22.2444 62.7511 23.1623 63.3351 24.125C63.3057 23.1879 63.3221 22.25 63.3155 21.313C63.4658 21.3105 63.6178 21.3098 63.7705 21.3106C63.7648 22.4471 63.7697 23.5844 63.7681 24.7209C63.5826 24.7217 63.3988 24.7201 63.2159 24.7145C62.6122 23.7662 61.931 22.8652 61.3568 21.9C61.369 22.8395 61.3739 23.7782 61.3715 24.7177C61.222 24.7185 61.0733 24.7193 60.9255 24.7209C60.9238 23.5844 60.9255 22.4479 60.9238 21.3114Z" fill="white"/>
<path id="Vector_14" d="M74.7188 21.3129C75.4449 21.3073 76.1711 21.3113 76.8981 21.3105C76.8973 21.4467 76.8923 21.582 76.8858 21.719C76.3238 21.7022 75.761 21.711 75.199 21.7126C75.1884 22.0498 75.1941 22.3878 75.1901 22.7258C75.6842 22.7338 76.1784 22.7266 76.6726 22.7306C76.6694 22.8595 76.6669 22.9893 76.6636 23.119C76.1809 23.1126 75.6981 23.1254 75.2162 23.1126C75.1631 23.5139 75.2007 23.9184 75.1884 24.322C75.7741 24.3404 76.3614 24.326 76.9479 24.3292C76.9479 24.4582 76.9487 24.5871 76.9512 24.7177C76.2078 24.7233 75.4645 24.7209 74.722 24.7193C74.7171 23.5836 74.7228 22.4486 74.7188 21.3129Z" fill="white"/>
<path id="Vector_15" d="M88.4126 21.3096C88.5948 21.3096 88.7785 21.3104 88.9623 21.3161C89.5856 22.2563 90.2587 23.167 90.8329 24.1377C90.8108 23.1958 90.8141 22.2531 90.8133 21.3112C90.9611 21.3104 91.1098 21.3096 91.2601 21.3096C91.2585 22.4462 91.2617 23.5819 91.2585 24.7176C91.0779 24.72 90.8974 24.72 90.7194 24.72C90.0937 23.7765 89.4394 22.8514 88.8333 21.8959C88.8978 22.8346 88.8496 23.7773 88.8643 24.7184C88.7124 24.7192 88.5605 24.7192 88.4102 24.7208C88.4183 23.5835 88.4142 22.447 88.4126 21.3096Z" fill="white"/>
<path id="Vector_16" d="M66.7678 21.3177C66.9491 21.3097 67.1313 21.3097 67.3135 21.3161C67.7799 22.4534 68.2683 23.5827 68.738 24.7193C68.5738 24.7201 68.4097 24.7201 68.2463 24.7209C68.1107 24.3989 67.98 24.0761 67.8509 23.7525C67.3094 23.7549 66.7686 23.7549 66.2287 23.7509C66.1045 24.0745 65.9706 24.3941 65.8448 24.7177C65.6773 24.7185 65.5115 24.7193 65.3457 24.7185C65.8187 23.5843 66.3063 22.4566 66.7678 21.3177ZM67.0382 21.6973C66.8626 22.2756 66.5946 22.8219 66.3823 23.3881C66.8201 23.3937 67.2587 23.3905 67.6982 23.3913C67.4874 22.8227 67.2285 22.2724 67.0382 21.6973Z" fill="white"/>
<path id="Vector_17" d="M70.2904 21.9377C70.6106 21.5044 71.1571 21.2738 71.6938 21.2561C72.0768 21.2449 72.4608 21.2786 72.8414 21.3282C72.8422 21.5813 72.8422 21.8336 72.843 22.0875C72.7752 22.0883 72.6388 22.0907 72.571 22.0915C72.5294 21.9417 72.4877 21.7928 72.4493 21.6438C71.9747 21.6494 71.4536 21.5749 71.037 21.8512C70.2145 22.359 70.252 23.727 71.0852 24.2076C71.5189 24.4679 72.0605 24.4126 72.5212 24.2589C72.5204 24.0074 72.5212 23.7567 72.5204 23.506C72.2664 23.51 72.0131 23.51 71.7599 23.5028C71.7583 23.3858 71.7566 23.2697 71.755 23.1536C72.1577 23.1007 72.5653 23.1439 72.9713 23.1271C72.9884 23.5548 72.9697 23.9833 72.9835 24.411C72.3709 24.8539 71.4961 24.8964 70.8271 24.5512C69.8902 24.073 69.6721 22.7419 70.2904 21.9377Z" fill="white"/>
<path id="Vector_18" d="M78.7368 21.3125C78.9288 21.3085 79.1216 21.3093 79.3151 21.3165C79.7456 22.0053 80.1598 22.7037 80.5894 23.3925C81.0093 22.6997 81.4389 22.0125 81.858 21.3189C82.0515 21.3101 82.246 21.3085 82.4412 21.3125C82.4387 22.4482 82.4436 23.5839 82.4379 24.7189C82.2803 24.7205 82.1226 24.7205 81.9674 24.7205C81.9641 23.7762 81.9592 22.8311 81.9838 21.8868C81.6252 22.5531 81.2102 23.1891 80.8296 23.8434C80.667 23.8418 80.5061 23.8402 80.3452 23.841C79.9784 23.1867 79.5455 22.5683 79.2171 21.8948C79.2032 22.8367 79.2188 23.7786 79.2163 24.7205C79.0546 24.7197 78.8945 24.7197 78.7344 24.7197C78.7409 23.5839 78.736 22.4482 78.7368 21.3125Z" fill="white"/>
<path id="Vector_19" d="M84.3998 21.3121C85.1268 21.3089 85.8529 21.3105 86.5799 21.3105C86.5799 21.4435 86.5791 21.5772 86.5799 21.711C86.013 21.711 85.4461 21.7054 84.8801 21.7142C84.8825 22.0522 84.8784 22.391 84.8801 22.729C85.3702 22.729 85.8611 22.7322 86.352 22.7266C86.3545 22.8563 86.3569 22.9869 86.3586 23.1182C85.8668 23.1174 85.3751 23.119 84.8841 23.1166C84.876 23.5195 84.8817 23.9232 84.8809 24.3269C85.4649 24.3341 86.049 24.3277 86.6338 24.3309C86.6314 24.459 86.6322 24.5888 86.6322 24.7185C85.8872 24.7217 85.1415 24.7217 84.3965 24.7185C84.403 23.5828 84.3973 22.4479 84.3998 21.3121Z" fill="white"/>
<path id="Vector_20" d="M92.8615 21.3101C93.7412 21.3125 94.621 21.3069 95.5007 21.3133C95.4983 21.447 95.4974 21.5808 95.4966 21.7154C95.1339 21.7138 94.7713 21.7146 94.4094 21.7154C94.4102 22.7165 94.4119 23.7185 94.4086 24.7205C94.2477 24.7197 94.0892 24.7205 93.9307 24.7213C93.9307 23.7201 93.9283 22.7189 93.9324 21.7178C93.5803 21.7154 93.2282 21.7065 92.8778 21.725C92.8215 21.592 92.8492 21.4478 92.8615 21.3101Z" fill="white"/>
<path id="Vector_21" d="M57.3163 21.3218C57.5058 21.3058 57.6969 21.3058 57.8873 21.3258C58.3308 22.4672 58.8283 23.5893 59.3012 24.7194C59.1313 24.7194 58.963 24.7194 58.7948 24.7178C58.6722 24.3942 58.5334 24.0771 58.4092 23.7551C57.8693 23.7511 57.3294 23.7567 56.7902 23.7527C56.6538 24.0714 56.5313 24.3966 56.3998 24.7186C56.2332 24.7194 56.0673 24.7194 55.9023 24.7194C56.3712 23.5861 56.8687 22.4632 57.3163 21.3218ZM57.581 21.6871C57.4421 22.2781 57.1407 22.8188 56.9381 23.3906C57.3784 23.3922 57.8178 23.3898 58.2589 23.3914C58.0367 22.822 57.7901 22.2613 57.581 21.6871Z" fill="white"/>
</g>
<defs>
<clipPath id="clip0_10_87">
<rect width="95" height="25" fill="white" transform="translate(0.5 0.699951)"/>
</clipPath>
</defs>
</svg>
