<svg width="112" height="18" viewBox="0 0 112 18" fill="none" xmlns="http://www.w3.org/2000/svg">
<g id="about-safenetpay.svg">
<path id="Vector" d="M2.94576 13.9739V3.76034H5.45006L7.12923 2.38969L5.45006 1.01904H0.954071C0.700941 1.0193 0.458273 1.11305 0.27938 1.27971C0.100486 1.44636 4.0996e-07 1.67229 5.57562e-07 1.90785V15.8255C-0.000134985 15.9421 0.0244434 16.0577 0.0723292 16.1655C0.120215 16.2734 0.19047 16.3713 0.279077 16.4539C0.367685 16.5364 0.472906 16.6019 0.588726 16.6466C0.704546 16.6913 0.828694 16.7143 0.954071 16.7143H7.43866V13.9739H2.94576Z" fill="#D12E56"/>
<path id="Vector_2" d="M13.9204 3.76035V13.974H11.4161L9.74107 15.3446L11.4202 16.7153H15.9162C16.0416 16.7153 16.1658 16.6923 16.2816 16.6476C16.3974 16.6029 16.5026 16.5374 16.5912 16.4549C16.6798 16.3723 16.7501 16.2743 16.798 16.1665C16.8459 16.0587 16.8704 15.9431 16.8703 15.8264V1.90883C16.8703 1.67327 16.7698 1.44734 16.5909 1.28068C16.412 1.11403 16.1694 1.02027 15.9162 1.02002H9.43164V3.76131L13.9204 3.76035Z" fill="#D12E56"/>
<path id="Vector_3" d="M27.7994 10.1463L25.5522 9.58568C24.7234 9.3596 24.1509 9.05092 23.8347 8.65966C23.5185 8.26839 23.36 7.7273 23.3594 7.0364C23.3594 6.16344 23.6487 5.54579 24.2274 5.18346C24.806 4.82113 25.7955 4.64026 27.1958 4.64087C28.8158 4.66438 30.2045 4.77229 31.3618 4.96461L31.1791 6.57972C29.644 6.55742 28.487 6.54596 27.7081 6.54536C27.2814 6.54536 26.9859 6.54536 26.8216 6.5535C26.6558 6.5597 26.4909 6.57938 26.3288 6.61228C26.1636 6.64664 26.0635 6.70271 26.0275 6.77505C25.9846 6.88061 25.9657 6.99333 25.9721 7.10603C25.9718 7.15709 25.9747 7.20813 25.9808 7.25886C25.9872 7.30409 26.0031 7.34772 26.0275 7.38728C26.0508 7.42617 26.0732 7.45691 26.0907 7.47771C26.1181 7.50807 26.151 7.53377 26.1879 7.55367C26.2252 7.57717 26.2649 7.59717 26.3065 7.61336C26.3366 7.62511 26.391 7.64501 26.4707 7.67214C26.5504 7.69927 26.6107 7.72097 26.6535 7.73273L26.8906 7.79241C27.0063 7.82045 27.0947 7.83944 27.156 7.85119L29.4577 8.42905C30.2618 8.64428 30.8343 8.93035 31.1752 9.28725C31.516 9.64416 31.6865 10.174 31.6865 10.877C31.6865 11.8748 31.3761 12.5518 30.7553 12.9081C30.1345 13.2644 29.0685 13.4425 27.5574 13.4425C26.2056 13.4505 24.8555 13.3543 23.5207 13.155L23.685 11.5218C24.123 11.5465 25.1644 11.558 26.809 11.5561C27.7466 11.5561 28.3587 11.5194 28.6451 11.4458C28.7723 11.4235 28.8862 11.3585 28.9652 11.2631C29.0443 11.1677 29.0829 11.0487 29.0737 10.9285C29.0741 10.8772 29.0711 10.8259 29.065 10.7748C29.059 10.7299 29.0434 10.6866 29.0193 10.6473C28.9988 10.6147 28.9743 10.5843 28.9464 10.5569C28.9103 10.5271 28.8705 10.5016 28.8278 10.4809C28.7724 10.4529 28.7306 10.4303 28.6995 10.4122C28.6437 10.3859 28.5859 10.3636 28.5265 10.3453C28.441 10.3163 28.3739 10.2973 28.3253 10.2856L28.0697 10.2259C27.9777 10.2052 27.8874 10.1786 27.7994 10.1463Z" fill="white"/>
<path id="Vector_4" d="M32.818 6.74712L32.5624 5.047C34.1115 4.78148 35.6829 4.64499 37.2581 4.63916C38.475 4.63916 39.3702 4.86885 39.9437 5.32825C40.5172 5.78764 40.8033 6.58344 40.802 7.71565V13.2582H38.6636L38.3895 11.9831C37.4888 12.9688 36.3804 13.4616 35.0643 13.4616C34.1992 13.4616 33.4929 13.2506 32.9454 12.8286C32.3978 12.4066 32.1237 11.8146 32.123 11.0525V10.2025C32.123 9.53333 32.366 9.01334 32.854 8.63805C33.3419 8.26276 34.0204 8.07737 34.8816 8.07737H38.0969V7.70389C38.0853 7.27344 37.9787 6.98466 37.7771 6.83755C37.5769 6.69015 37.1939 6.61509 36.6175 6.61509C35.619 6.61207 34.3525 6.65609 32.818 6.74712ZM34.7912 10.3852V10.7071C34.7912 11.2859 35.1443 11.5749 35.8506 11.5743C36.5816 11.5743 37.3307 11.303 38.0979 10.7604V9.58487H35.6679C35.0834 9.59753 34.7912 9.8643 34.7912 10.3852Z" fill="white"/>
<path id="Vector_5" d="M47.7487 2.85842H46.0486C45.5983 2.85842 45.2847 2.9377 45.1078 3.09626C44.9309 3.25482 44.8427 3.53817 44.8434 3.94632V4.88138H46.939V6.56341H44.8434V13.258H42.1218V6.5598H41.2305V4.96277L42.1218 4.87777V3.60268C42.1218 1.87965 43.108 1.01844 45.0805 1.01904C46.3597 1.01904 47.3343 1.07571 48.0043 1.18905L47.7487 2.85842Z" fill="white"/>
<path id="Vector_6" d="M53.2095 9.91223H49.9533C50.0389 10.5235 50.2368 10.9341 50.5472 11.1439C50.8576 11.3537 51.3721 11.4586 52.0907 11.4586C53.2142 11.449 54.3364 11.3856 55.4529 11.2687L55.7085 12.8322C54.7702 13.2542 53.4609 13.4653 51.7807 13.4653C50.0875 13.4653 48.8815 13.1255 48.1629 12.4461C47.4443 11.7666 47.0853 10.6432 47.0859 9.07574C47.0859 7.4329 47.4362 6.2829 48.1367 5.62576C48.8371 4.96863 50.0155 4.63976 51.6718 4.63916C53.1706 4.63916 54.2547 4.88031 54.9241 5.36261C55.5935 5.84491 55.934 6.57771 55.9457 7.56101C55.9457 8.34415 55.7299 8.92924 55.2973 9.32081C54.8648 9.71238 54.1679 9.91223 53.2095 9.91223ZM49.9047 8.39931H52.462C52.7915 8.39931 53.0132 8.32606 53.1288 8.17775C53.2445 8.02944 53.3028 7.81602 53.3028 7.53297C53.3028 7.13507 53.193 6.85986 52.9733 6.70733C52.7536 6.5548 52.3499 6.47763 51.7622 6.47583C51.0669 6.47583 50.5919 6.60303 50.3373 6.85745C50.0826 7.11186 49.9365 7.62491 49.8989 8.3966L49.9047 8.39931Z" fill="white"/>
<path id="Vector_7" d="M58.7553 4.8779L58.9556 6.11862C60.2587 5.13171 61.544 4.63855 62.8115 4.63916C63.6273 4.63916 64.2513 4.83751 64.6835 5.2342C65.1157 5.63089 65.3322 6.20875 65.3328 6.96778V13.2582H62.6462V7.75001C62.6462 7.37563 62.5821 7.11699 62.4518 6.97772C62.3216 6.83846 62.0961 6.7643 61.7714 6.7643C61.1986 6.7643 60.3643 7.01962 59.2685 7.53026V13.2582H56.5625V4.8779H58.7553Z" fill="white"/>
<path id="Vector_8" d="M72.105 9.91228H68.8566C68.9422 10.5236 69.1401 10.9342 69.4505 11.144C69.7615 11.3538 70.2748 11.4587 70.994 11.4587C72.1162 11.449 73.2371 11.3856 74.3523 11.2688L74.6079 12.8324C73.6696 13.2544 72.3603 13.4654 70.6801 13.4654C68.9869 13.4654 67.7809 13.1257 67.0623 12.4462C66.3437 11.7668 65.9844 10.6445 65.9844 9.0794C65.9844 7.43656 66.3346 6.28657 67.0351 5.62943C67.7356 4.97229 68.914 4.64342 70.5702 4.64282C72.0678 4.64282 73.1515 4.88397 73.8216 5.36627C74.4916 5.84857 74.8328 6.58017 74.8451 7.56105C74.8451 8.34419 74.6283 8.92929 74.1968 9.32086C73.7652 9.71243 73.0673 9.91228 72.105 9.91228ZM68.8002 8.39936H71.3576C71.6861 8.39936 71.9087 8.32611 72.0244 8.1778C72.14 8.02949 72.1974 7.81607 72.1974 7.53302C72.1974 7.13512 72.0879 6.8599 71.8688 6.70738C71.6498 6.55485 71.2474 6.47768 70.6616 6.47587C69.9663 6.47587 69.4913 6.60308 69.2367 6.85749C68.9801 7.10889 68.8352 7.62616 68.7983 8.39664L68.8002 8.39936Z" fill="white"/>
<path id="Vector_9" d="M78.8708 6.55981V10.5208C78.8708 10.8382 78.9447 11.0633 79.0895 11.1836C79.2343 11.3039 79.4929 11.3699 79.8574 11.3699H81.0092L81.3008 13.1216C80.6068 13.3477 79.7602 13.461 78.7609 13.4616C77.9458 13.4616 77.3124 13.2506 76.8607 12.8286C76.409 12.4066 76.1822 11.8145 76.1803 11.0525V6.55981H75.2715V4.96278L76.1803 4.87778V2.53198H78.8708V4.87778H81.3737V6.55981H78.8708Z" fill="white"/>
<path id="Vector_10" d="M84.6118 4.87769L84.8062 6.10123C85.0978 5.59843 85.4749 5.03504 86.1738 4.85237C86.9514 4.64799 87.7056 4.65704 88.388 4.65704C90.4616 4.65704 91.4983 6.15248 91.4983 9.14336C91.4983 10.753 91.2213 11.8777 90.6673 12.5173C90.1132 13.157 89.2453 13.4771 88.0633 13.4777C86.8451 13.4777 85.8407 13.2064 85.0501 12.6638C85.1107 13.2629 85.1289 13.8649 85.1046 14.4662V16.4891H82.418V4.87769H84.6118ZM85.1046 7.42787V11.2685C86.0539 11.4952 86.7343 11.6085 87.1458 11.6085C87.7426 11.6085 88.1537 11.45 88.3792 11.1328C88.6047 10.8157 88.7175 10.1526 88.7175 9.14336C88.7175 8.15765 88.6138 7.49207 88.4064 7.14662C88.2004 6.80208 87.8339 6.62845 87.31 6.62845C86.7181 6.62845 86.0629 6.40509 85.1046 7.42787Z" fill="white"/>
<path id="Vector_11" d="M92.8669 6.74712L92.6102 5.047C94.1597 4.78148 95.7315 4.64499 97.3069 4.63916C98.5239 4.63916 99.4188 4.86885 99.9916 5.32825C100.564 5.78764 100.851 6.58344 100.851 7.71565V13.2582H98.7124L98.4383 11.9831C97.5376 12.9688 96.4292 13.4616 95.1131 13.4616C94.2481 13.4616 93.5417 13.2506 92.9942 12.8286C92.4466 12.4066 92.1725 11.8146 92.1719 11.0525V10.2025C92.1719 9.53333 92.4158 9.01334 92.9028 8.63805C93.3898 8.26276 94.0692 8.07737 94.9314 8.07737H98.1467V7.70389C98.1344 7.27344 98.0278 6.98466 97.8269 6.83755C97.6257 6.69015 97.2437 6.61509 96.6674 6.61509C95.6701 6.61207 94.4033 6.65609 92.8669 6.74712ZM94.84 10.3852V10.7071C94.84 11.2859 95.1932 11.5749 95.8995 11.5743C96.6304 11.5743 97.3795 11.303 98.1467 10.7604V9.58487H95.7167C95.1335 9.59753 94.8423 9.8643 94.8429 10.3852H94.84Z" fill="white"/>
<path id="Vector_12" d="M111.002 4.87769L107.804 13.3782C107.641 13.8165 107.43 14.238 107.174 14.6361C106.906 15.043 106.583 15.417 106.215 15.7493C105.804 16.1179 105.304 16.389 104.757 16.5397C104.133 16.7132 103.475 16.7594 102.83 16.6754L102.612 15.1968C103.341 15.0159 103.914 14.7808 104.329 14.4914C104.757 14.1885 105.092 13.787 105.301 13.3267L105.338 13.2598H104.824C104.373 13.2598 104.081 13.0554 103.949 12.6475L101.008 4.8795H103.895L105.575 10.3008C105.685 10.6987 105.776 11.1147 105.849 11.5587H106.087C106.123 11.4231 106.184 11.2121 106.27 10.9257C106.355 10.6363 106.416 10.4302 106.452 10.3045L108.115 4.88312L111.002 4.87769Z" fill="white"/>
</g>
</svg>
