<svg width="66" height="65" viewBox="0 0 66 65" fill="none" xmlns="http://www.w3.org/2000/svg">
<g id="about-tdiu.svg" clip-path="url(#clip0_10_162)">
<path id="Vector" d="M33 64.4199C15.3572 64.4199 1 50.0627 1 32.4199C1 14.7771 15.3572 0.419922 33 0.419922C50.6428 0.419922 65 14.7771 65 32.4199C65 50.0627 50.6428 64.4199 33 64.4199ZM33 1.86015C16.1224 1.86015 2.44023 15.5423 2.44023 32.4199C2.44023 49.2975 16.1224 62.9797 33 62.9797C49.8326 62.9797 63.5598 49.2975 63.5598 32.4199C63.5598 15.5423 49.8326 1.86015 33 1.86015Z" fill="white"/>
<path id="Vector_2" d="M32.9982 56.1839C19.9011 56.1839 9.18945 45.5172 9.18945 32.3752C9.18945 19.2331 19.8561 8.56641 32.9982 8.56641C46.0952 8.56641 56.8069 19.2331 56.8069 32.3752C56.8069 45.5172 46.0952 56.1839 32.9982 56.1839ZM32.9982 10.0516C20.6662 10.0516 10.6297 20.0882 10.6297 32.4202C10.6297 44.7521 20.6662 54.7887 32.9982 54.7887C45.3301 54.7887 55.3667 44.7521 55.3667 32.4202C55.3667 20.0882 45.3301 10.0516 32.9982 10.0516Z" fill="white"/>
<path id="Vector_3" fill-rule="evenodd" clip-rule="evenodd" d="M39.4955 5.9309C39.559 5.69058 39.8053 5.54724 40.0456 5.61075C48.8753 7.94396 56.0112 14.5306 59.0768 22.9953C59.1614 23.229 59.0406 23.487 58.8068 23.5717C58.5731 23.6563 58.3151 23.5355 58.2304 23.3018C55.265 15.1138 48.3588 8.73852 39.8157 6.48101C39.5753 6.41751 39.432 6.17121 39.4955 5.9309Z" fill="white"/>
<path id="Vector_4" d="M7.34537 23.5984C7.30036 23.5984 7.25535 23.5984 7.21035 23.5534C6.98531 23.4634 6.85029 23.1933 6.9403 22.9683C10.0008 14.4169 17.1119 7.93591 25.9333 5.59554C26.1583 5.55053 26.4283 5.68555 26.4734 5.91059C26.5184 6.13562 26.3833 6.40567 26.1583 6.45067C17.652 8.70102 10.7659 15.002 7.75043 23.2833C7.70542 23.5084 7.5254 23.5984 7.34537 23.5984Z" fill="white"/>
<path id="Vector_5" d="M7.66153 28.1891L7.12145 28.0091L7.30147 27.289L4.87109 26.7489L5.00611 26.0288L7.43649 26.5689L7.61652 25.8037L8.15661 25.9388L7.66153 28.1891Z" fill="white"/>
<path id="Vector_6" d="M7.03049 30.5299C6.71544 30.7549 6.31038 30.7999 5.8153 30.7549C5.50025 30.7099 5.1852 30.6199 4.96017 30.4849C4.73513 30.3498 4.55511 30.1698 4.46509 29.9448C4.37508 29.7197 4.33007 29.4497 4.37508 29.1797C4.42009 28.9096 4.5101 28.6396 4.64512 28.4595C4.78014 28.2795 5.00518 28.1445 5.23021 28.0545C5.50025 27.9645 5.7703 27.9645 6.13035 28.0095C6.4454 28.0545 6.71544 28.1445 6.98549 28.2795C7.21052 28.4145 7.39055 28.5946 7.48056 28.8196C7.57058 29.0446 7.61558 29.2697 7.57058 29.5847C7.52557 29.9898 7.34554 30.3048 7.03049 30.5299ZM6.85046 28.9996C6.71544 28.8646 6.4454 28.8196 6.04034 28.7746C5.68028 28.7296 5.36523 28.7746 5.1852 28.8196C5.00518 28.9096 4.91516 29.0446 4.87016 29.2697C4.82515 29.4947 4.91516 29.6297 5.05018 29.7648C5.1852 29.8998 5.45525 29.9448 5.86031 29.9898C6.22037 30.0348 6.53542 29.9898 6.71544 29.9448C6.89547 29.8548 6.98549 29.7197 7.03049 29.4947C7.0755 29.2697 6.98549 29.0896 6.85046 28.9996Z" fill="white"/>
<path id="Vector_7" d="M7.29901 32.8697C7.25401 33.0498 7.11899 33.1848 6.98397 33.3198L6.5789 32.9597C6.75893 32.7347 6.84894 32.5097 6.84894 32.2846C6.84894 32.1496 6.80394 32.0596 6.75893 31.9696C6.71392 31.8796 6.62391 31.8796 6.5339 31.8796C6.44388 31.8796 6.39887 31.8796 6.35387 31.9246C6.30886 31.9696 6.26385 32.0146 6.21885 32.1046C6.17384 32.1946 6.12883 32.3296 6.08383 32.4647C5.99381 32.7797 5.85879 33.0047 5.72377 33.1398C5.58875 33.2748 5.36371 33.3648 5.09367 33.3648C4.91364 33.3648 4.73361 33.3198 4.59859 33.2298C4.46357 33.1398 4.32855 33.0047 4.23854 32.8247C4.14852 32.6447 4.10352 32.4197 4.10352 32.1946C4.10352 31.9246 4.14852 31.7445 4.23854 31.5195C4.32855 31.3395 4.41856 31.1595 4.55359 31.0244L5.04866 31.3845C4.95865 31.5195 4.86864 31.6095 4.82363 31.7445C4.77862 31.8796 4.73361 32.0146 4.73361 32.1496C4.73361 32.2846 4.77862 32.4197 4.82363 32.5097C4.86864 32.5997 5.00366 32.6447 5.09367 32.6447C5.18368 32.6447 5.22869 32.6447 5.2737 32.5997C5.31871 32.5547 5.36371 32.5097 5.40872 32.4197C5.45373 32.3296 5.49873 32.2396 5.54374 32.0596C5.63375 31.6995 5.76878 31.4745 5.9488 31.3395C6.08382 31.2045 6.30886 31.1144 6.5339 31.1144C6.71392 31.1144 6.84894 31.1595 6.98397 31.2495C7.11899 31.3395 7.209 31.4745 7.29901 31.6545C7.38903 31.8346 7.38903 32.0146 7.38903 32.2396C7.38903 32.5097 7.38903 32.6897 7.29901 32.8697Z" fill="white"/>
<path id="Vector_8" d="M4.46518 35.7053L5.77039 35.5703L5.68037 34.6702L4.37517 34.8052L4.28516 34.0851L7.34564 33.77L7.43565 34.4901L6.22046 34.6252L6.31047 35.5253L7.48066 35.3903L7.57067 36.1104L4.5552 36.4254L4.46518 35.7053Z" fill="white"/>
<path id="Vector_9" d="M7.83995 37.3705L4.82447 38.0006L4.68945 37.2805L7.70492 36.6504L7.83995 37.3705ZM8.2 39.0808L6.66976 38.4057L5.22954 39.8009L5.04951 38.9908L6.44473 37.6856L8.06498 38.3156L8.2 39.0808Z" fill="white"/>
<path id="Vector_10" d="M8.83273 41.1064L8.33765 41.1964L8.0226 40.1613L7.30249 40.3864L7.57253 41.2864L7.07746 41.4215L6.80741 40.5214L6.04229 40.7463L6.40235 41.8265L5.95228 42.0516L5.36719 40.2513L8.29265 39.3062L8.83273 41.1064Z" fill="white"/>
<path id="Vector_11" d="M7.12093 44.8867L6.76087 44.0316L8.60616 42.2763C8.42613 42.4113 8.2461 42.5014 8.06608 42.5914C7.93106 42.6814 7.70602 42.7714 7.48098 42.8614L6.44582 43.3115L6.17578 42.7264L8.96622 41.5112L9.32627 42.3213L7.48098 44.0766C7.84104 43.8516 8.15609 43.6715 8.47114 43.5365L9.59632 43.0414L9.86636 43.6265L7.12093 44.8867Z" fill="white"/>
<path id="Vector_12" d="M11.1726 45.9667L10.6325 46.1918L10.2724 45.5167L8.06709 46.7319L7.70703 46.1018L9.91238 44.8866L9.55232 44.2115L10.0474 43.9414L11.1726 45.9667Z" fill="white"/>
<path id="Vector_13" d="M13.6041 49.7026C13.6041 50.0627 13.4241 50.4227 12.974 50.7828C12.524 51.1428 12.1189 51.2778 11.7588 51.2328C11.3988 51.1428 11.0837 50.9628 10.7687 50.6027L10.1836 49.8826L12.524 47.9023L13.064 48.5774C13.4241 48.9825 13.5591 49.3425 13.6041 49.7026ZM12.614 48.8475L11.0837 50.1527L11.2188 50.3327C11.3538 50.5127 11.5338 50.6027 11.7588 50.6027C11.9389 50.6027 12.2089 50.4677 12.479 50.2427C12.659 50.0627 12.839 49.9276 12.884 49.7926C12.974 49.6576 12.974 49.5226 12.974 49.3876C12.929 49.2525 12.884 49.1625 12.794 49.0275L12.614 48.8475Z" fill="white"/>
<path id="Vector_14" d="M13.3757 53.3932L13.7357 52.8081L13.1056 52.178L12.5206 52.5381L11.9805 51.998L14.7709 50.4678L15.401 51.0979L13.9158 53.9333L13.3757 53.3932ZM13.5557 51.908L14.0058 52.3581L14.7259 51.1429L13.5557 51.908Z" fill="white"/>
<path id="Vector_15" d="M17.9691 53.258L15.4037 55.1033L14.6836 54.5182L15.8988 51.5928L16.4839 52.0879L15.3587 54.3832L17.339 52.763L17.9691 53.258Z" fill="white"/>
<path id="Vector_16" d="M18.7308 53.7532L17.3806 55.8235L18.3708 56.4986L18.0107 56.9487L16.4805 55.9135L18.1457 53.3481L18.7308 53.7532Z" fill="white"/>
<path id="Vector_17" d="M19.9916 58.0289L20.1716 57.3538L19.3615 56.9488L18.9114 57.4439L18.2363 57.0838L20.4867 54.8335L21.2518 55.2385L20.6217 58.389L19.9916 58.0289ZM19.7216 56.5437L20.3067 56.8588L20.6667 55.5086L19.7216 56.5437Z" fill="white"/>
<path id="Vector_18" d="M24.0441 56.4537L23.774 56.9488L23.0539 56.6788L22.0638 58.9741L21.3887 58.7041L22.3788 56.4087L21.6587 56.0937L21.8838 55.5986L24.0441 56.4537Z" fill="white"/>
<path id="Vector_19" d="M26.0244 57.084L25.1692 60.0094L24.4941 59.7844L25.3493 56.8589L26.0244 57.084Z" fill="white"/>
<path id="Vector_20" d="M28.3193 60.6392C28.4543 60.7292 28.5443 60.8192 28.6793 60.9092L28.1392 61.3593C28.0042 61.1342 27.8692 60.9542 27.7342 60.8192C27.5992 60.6842 27.3741 60.5941 27.1041 60.5491C26.834 60.5041 26.609 60.3691 26.429 60.2341C26.2489 60.0541 26.1589 59.874 26.0689 59.604C26.0239 59.3339 26.0239 59.0639 26.0689 58.7489C26.1139 58.4338 26.2489 58.1638 26.429 57.9387C26.609 57.7137 26.789 57.5787 27.0141 57.4887C27.2391 57.3986 27.5091 57.3986 27.7792 57.4436C28.1842 57.5337 28.4993 57.7587 28.6793 58.0737C28.8593 58.3888 28.9044 58.7939 28.8143 59.2889C28.6793 59.919 28.3643 60.2791 27.8242 60.4591C28.0042 60.5041 28.1842 60.5491 28.3193 60.6392ZM26.834 59.739C26.879 59.919 27.0141 60.0541 27.2391 60.0991C27.4641 60.1441 27.5992 60.0991 27.7342 59.964C27.8692 59.829 27.9592 59.559 28.0492 59.1989C28.1392 58.8389 28.1392 58.5688 28.0492 58.3438C28.0042 58.1638 27.8692 58.0287 27.6442 57.9837C27.4191 57.9387 27.2841 57.9837 27.1491 58.1188C27.0141 58.2538 26.924 58.5238 26.834 58.8839C26.789 59.2439 26.789 59.559 26.834 59.739Z" fill="white"/>
<path id="Vector_21" d="M31.4244 58.0288L31.2894 58.5689L30.5243 58.4789L30.2543 60.9543L29.5341 60.8643L29.8042 58.3889L29.0391 58.2989L29.0841 57.7588L31.4244 58.0288Z" fill="white"/>
<path id="Vector_22" d="M32.4605 58.0738L32.3705 61.1343L31.6504 61.0893L31.7404 58.0288L32.4605 58.0738Z" fill="white"/>
<path id="Vector_23" d="M34.6204 58.029C34.8004 58.074 34.9355 58.164 35.1155 58.299L34.8004 58.7041C34.5754 58.5241 34.3504 58.479 34.1253 58.479C33.9903 58.479 33.9003 58.5241 33.8103 58.5691C33.7203 58.6141 33.7203 58.7041 33.7203 58.7941C33.7203 58.8841 33.7203 58.9291 33.7653 58.9741C33.8103 59.0191 33.8553 59.0641 33.9453 59.1091C34.0353 59.1541 34.1704 59.1992 34.3054 59.2442C34.6204 59.3342 34.8455 59.4242 35.0255 59.6042C35.1605 59.7392 35.2505 59.9643 35.2505 60.2343C35.2505 60.4143 35.2055 60.5944 35.1155 60.7294C35.0255 60.8644 34.8905 60.9994 34.7104 61.0895C34.5304 61.1795 34.3054 61.2245 34.0803 61.2245C33.8103 61.2245 33.5853 61.2245 33.4052 61.1345C33.2252 61.0444 33.0452 60.9544 32.9102 60.8194L33.2702 60.4143C33.4052 60.5044 33.4952 60.5944 33.6303 60.6394C33.7653 60.6844 33.9003 60.6844 34.0353 60.6844C34.1704 60.6844 34.3054 60.6394 34.3954 60.5494C34.4854 60.4594 34.5304 60.3693 34.5304 60.2793C34.5304 60.1893 34.5304 60.1443 34.4854 60.0993C34.4404 60.0543 34.3954 60.0093 34.3054 59.9643C34.2154 59.9193 34.1253 59.8743 33.9453 59.8293C33.5853 59.7392 33.3602 59.6042 33.2252 59.4692C33.0902 59.3342 33.0002 59.1542 33.0002 58.9291C33.0002 58.7491 33.0452 58.6141 33.1352 58.479C33.2252 58.344 33.3602 58.254 33.4952 58.164C33.6753 58.074 33.8553 58.029 34.0803 58.029C34.2154 57.939 34.4404 57.984 34.6204 58.029Z" fill="white"/>
<path id="Vector_24" d="M37.772 57.9839C38.0421 58.209 38.2221 58.614 38.3121 59.1091C38.3571 59.4242 38.3571 59.7392 38.2671 59.9642C38.1771 60.2343 38.0421 60.4143 37.862 60.5943C37.682 60.7294 37.457 60.8644 37.1419 60.9094C36.8719 60.9544 36.6018 60.9094 36.3768 60.8194C36.1518 60.7294 35.9717 60.5493 35.8367 60.3243C35.7017 60.0993 35.6117 59.8292 35.5667 59.4692C35.5217 59.1541 35.5217 58.8391 35.6117 58.614C35.7017 58.344 35.8367 58.164 36.0167 57.9839C36.1968 57.8489 36.4218 57.7139 36.7369 57.6689C37.1419 57.6689 37.502 57.7589 37.772 57.9839ZM36.3768 58.569C36.2868 58.7491 36.2868 59.0191 36.3318 59.4242C36.3768 59.7842 36.4668 60.0543 36.6018 60.2343C36.7369 60.3693 36.9169 60.4593 37.0969 60.4143C37.3219 60.3693 37.457 60.2793 37.547 60.0993C37.637 59.9192 37.637 59.6492 37.592 59.2441C37.547 58.8841 37.457 58.614 37.3219 58.434C37.1869 58.299 37.0069 58.209 36.8269 58.254C36.6018 58.254 36.4218 58.389 36.3768 58.569Z" fill="white"/>
<path id="Vector_25" d="M40.4727 57.3086C40.7877 57.4437 41.0578 57.8037 41.1928 58.3438C41.3278 58.8839 41.3278 59.334 41.1028 59.604C40.8777 59.874 40.5627 60.0991 40.1126 60.2341L39.2125 60.4591L38.4023 57.4887L39.2125 57.2636C39.7526 57.1286 40.1576 57.1736 40.4727 57.3086ZM39.3025 57.8037L39.8426 59.739L40.0676 59.694C40.2926 59.649 40.4727 59.514 40.5177 59.334C40.6077 59.1539 40.6077 58.8839 40.4727 58.5238C40.3827 58.2538 40.3376 58.0738 40.2476 57.9387C40.1576 57.8037 40.0226 57.7587 39.9326 57.7137C39.7976 57.6687 39.6625 57.7137 39.5275 57.7137L39.3025 57.8037Z" fill="white"/>
<path id="Vector_26" d="M41.9095 56.4536L42.9446 59.3341L42.2695 59.5591L41.2344 56.6786L41.9095 56.4536Z" fill="white"/>
<path id="Vector_27" d="M44.5672 55.3286L44.4322 57.4889L44.8822 58.5241L44.2071 58.8391L43.7571 57.804L42.0918 56.4537L42.8119 56.1387L43.8921 57.1289L43.8471 55.6886L44.5672 55.3286Z" fill="white"/>
<path id="Vector_28" d="M46.7722 54.4734C47.1322 54.6084 47.4022 54.8785 47.6723 55.3285C47.8523 55.5986 47.9423 55.9136 47.9423 56.1387C47.9873 56.4087 47.8973 56.6337 47.8073 56.8588C47.6723 57.0838 47.4923 57.2638 47.2672 57.3988C46.9972 57.5339 46.7722 57.6239 46.5471 57.5789C46.3221 57.5789 46.097 57.4889 45.872 57.3538C45.647 57.2188 45.4669 56.9938 45.2869 56.6787C45.1069 56.4087 45.0169 56.1386 45.0169 55.8686C44.9719 55.5986 45.0169 55.3735 45.1519 55.1485C45.2869 54.9235 45.4669 54.7434 45.692 54.6084C46.052 54.3834 46.4121 54.3384 46.7722 54.4734ZM45.647 55.5086C45.647 55.6886 45.737 55.9586 45.917 56.3187C46.097 56.6337 46.2771 56.8588 46.4571 56.9488C46.6371 57.0388 46.8172 57.0388 46.9972 56.9488C47.1772 56.8588 47.2672 56.6787 47.2672 56.4987C47.2672 56.3187 47.1772 56.0486 46.9972 55.6886C46.8172 55.3735 46.6371 55.1485 46.4571 55.0585C46.2771 54.9685 46.097 54.9685 45.917 55.0585C45.737 55.1935 45.647 55.3285 45.647 55.5086Z" fill="white"/>
<path id="Vector_29" d="M48.7985 52.6279L49.0685 53.123L48.4384 53.5731L49.8787 55.5984L49.2936 56.0035L47.8533 53.9781L47.2233 54.4282L46.9082 53.9781L48.7985 52.6279Z" fill="white"/>
<path id="Vector_30" d="M53.75 50.7831C53.885 50.9181 54.0201 51.0981 54.0651 51.2781C54.1101 51.4582 54.1101 51.6382 54.0651 51.8182C54.0201 51.9982 53.885 52.2233 53.705 52.4033C53.435 52.6734 53.1649 52.8084 52.8949 52.8534C52.6248 52.8534 52.3548 52.7634 52.1298 52.5383L50.6445 51.0981L51.1396 50.558L52.5798 51.9532C52.7149 52.0883 52.8499 52.1783 52.9849 52.1783C53.1199 52.1783 53.2099 52.1333 53.345 52.0433C53.48 51.9082 53.525 51.8182 53.48 51.6832C53.48 51.5482 53.39 51.4132 53.2549 51.2781L51.8147 49.8829L52.3098 49.3428L53.75 50.7831Z" fill="white"/>
<path id="Vector_31" d="M56.4488 48.9827L55.8637 49.7028L53.4333 48.9377C53.6134 49.0727 53.7934 49.1628 53.9734 49.2528C54.1535 49.3428 54.2885 49.4778 54.4685 49.6128L55.3686 50.2879L54.9636 50.783L52.5332 48.9377L53.0733 48.2176L55.5037 48.9377C55.1436 48.7577 54.8286 48.5327 54.5585 48.3076L53.5684 47.5425L53.9734 47.0474L56.4488 48.9827Z" fill="white"/>
<path id="Vector_32" d="M54.6941 46.0571L57.2595 47.7223L56.8545 48.3524L54.2891 46.6872L54.6941 46.0571Z" fill="white"/>
<path id="Vector_33" d="M56.1332 43.5815L58.4286 45.7869L57.9785 46.597L54.873 45.9219L55.2331 45.2468L57.7085 45.9219L55.7732 44.2566L56.1332 43.5815Z" fill="white"/>
<path id="Vector_34" d="M56.9448 41.6465L57.3949 41.9166L56.9448 42.9067L57.6199 43.1768L57.98 42.3216L58.43 42.5017L58.07 43.3568L58.7901 43.6719L59.2402 42.5917L59.7352 42.8167L58.9701 44.527L56.1797 43.3118L56.9448 41.6465Z" fill="white"/>
<path id="Vector_35" d="M59.1935 40.8812L59.1034 41.1512L60.2286 41.5113L60.0036 42.1864L57.0781 41.2412L57.3932 40.2961C57.5282 39.891 57.7082 39.621 57.8883 39.486C58.1133 39.3509 58.3383 39.3059 58.6534 39.396C58.8334 39.441 58.9684 39.531 59.0584 39.666C59.1484 39.801 59.1935 39.981 59.2385 40.2061L60.7237 39.846L60.4537 40.6111L59.1935 40.8812ZM58.6084 41.0162L58.6984 40.7462C58.7434 40.6111 58.7434 40.4761 58.6984 40.3861C58.6534 40.2961 58.5634 40.2061 58.3833 40.1611C58.2483 40.1161 58.1133 40.1161 58.0233 40.2061C57.9333 40.2511 57.8432 40.3861 57.7982 40.5661L57.7082 40.8362L58.6084 41.0162Z" fill="white"/>
<path id="Vector_36" d="M58.2039 37.1907C58.2939 37.0556 58.429 36.9206 58.609 36.7856L58.924 37.1907C58.699 37.3707 58.564 37.5507 58.519 37.7758C58.474 37.9108 58.474 38.0008 58.519 38.0908C58.564 38.1808 58.609 38.2258 58.699 38.2258C58.744 38.2258 58.834 38.2258 58.879 38.2258C58.924 38.1808 58.969 38.1358 59.0141 38.0908C59.0591 38.0008 59.1491 37.9108 59.2391 37.7758C59.4191 37.5057 59.5541 37.2807 59.7342 37.1907C59.9142 37.0556 60.1392 37.0556 60.4093 37.1006C60.5893 37.1457 60.7693 37.2357 60.8593 37.3707C60.9944 37.5057 61.0844 37.6407 61.0844 37.8658C61.1294 38.0458 61.1294 38.2708 61.0844 38.5409C61.0394 38.7659 60.9494 38.9909 60.8143 39.171C60.6793 39.351 60.5443 39.486 60.4093 39.576L60.0942 39.126C60.2292 39.0359 60.3193 38.9459 60.4093 38.8109C60.4993 38.7209 60.5443 38.5859 60.5893 38.4059C60.6343 38.2708 60.6343 38.1358 60.5893 38.0458C60.5443 37.9558 60.4543 37.8658 60.3643 37.8658C60.2743 37.8658 60.2292 37.8658 60.1842 37.8658C60.1392 37.8658 60.0492 37.9108 60.0042 38.0008C59.9592 38.0908 59.8692 38.1808 59.8242 38.3158C59.6442 38.6309 59.4641 38.8559 59.2841 38.9459C59.1041 39.0359 58.924 39.081 58.699 39.036C58.519 38.9909 58.384 38.9009 58.2939 38.8109C58.2039 38.6759 58.1139 38.5409 58.0689 38.3608C58.0239 38.1808 58.0239 38.0008 58.0689 37.7758C58.0239 37.5507 58.1139 37.3707 58.2039 37.1907Z" fill="white"/>
<path id="Vector_37" d="M58.4279 35.5703L61.4434 35.9754L61.3534 36.6955L58.3379 36.2904L58.4279 35.5703Z" fill="white"/>
<path id="Vector_38" d="M58.6546 32.915L59.1946 33.005L59.1496 33.7701L61.67 33.9502L61.625 34.6703L59.1046 34.4902L59.0596 35.3004L58.5195 35.2554L58.6546 32.915Z" fill="white"/>
<path id="Vector_39" d="M58.6074 30.7545L59.1475 30.7995L59.1925 31.8797H59.9126L59.8676 30.9345H60.3627L60.4077 31.8797H61.1728L61.1278 30.7095H61.6679L61.7129 32.5998L58.6524 32.6898L58.6074 30.7545Z" fill="white"/>
<path id="Vector_40" d="M58.3379 28.2793H58.878L58.968 29.0444L61.4434 28.7744L61.5334 29.4945L59.058 29.7645L59.148 30.5296L58.6079 30.5746L58.3379 28.2793Z" fill="white"/>
<path id="Vector_41" d="M58.1113 27.2891L61.1268 26.7041L61.2618 27.4242L58.2463 28.0093L58.1113 27.2891Z" fill="white"/>
<path id="Vector_42" d="M17.6543 18.8276C17.6543 19.7728 18.4194 20.5379 19.3646 20.5379H46.5938C47.539 20.5379 48.3041 19.7728 48.3041 18.8276H17.6543Z" fill="white"/>
<path id="Vector_43" d="M20.2168 22.2485C20.2168 23.1936 20.9819 23.9587 21.9271 23.9587V45.9222V46.5973C21.9271 47.0473 22.2871 47.4074 22.7372 47.4074H25.6176C27.3279 47.4074 28.9932 47.9025 30.3884 48.8926L33.1788 50.7829L35.3842 49.1177C36.8694 47.9925 38.6697 47.4074 40.515 47.4074H43.2604C43.7105 47.4074 44.0705 47.0473 44.0705 46.5973V45.9222V24.0037H44.2506C45.1957 24.0037 45.9608 23.2386 45.9608 22.2935H20.2168V22.2485ZM34.349 47.7675L33.1338 48.6676L31.3335 47.4524C29.6233 46.3272 27.643 45.6971 25.6176 45.6971H23.6373V40.2963H25.6176C27.3279 40.2963 28.9932 40.7914 30.3884 41.7815L33.1788 43.6718L35.3842 42.0066C36.8694 40.8814 38.6697 40.2963 40.515 40.2963H42.3603V45.6971H40.515C38.2646 45.6971 36.1043 46.4172 34.349 47.7675ZM32.1437 33.7253V40.9264L31.3335 40.3863C30.8385 40.0713 30.2984 39.7562 29.7583 39.5312V33.7253H32.1437ZM33.8539 33.7253H36.1043V39.5312H36.2843C35.6092 39.8462 34.9341 40.2063 34.349 40.6563L33.8539 41.0164V33.7253ZM42.3153 38.631H40.47C39.5698 38.631 38.6697 38.766 37.7695 38.9911V33.7253H39.2098C40.1549 33.7253 40.92 32.9601 40.92 32.015H24.9425C24.9425 32.9601 25.7077 33.7253 26.6528 33.7253H28.093V38.9011C27.2829 38.721 26.4728 38.586 25.6176 38.586H23.6373V24.0037H42.3153V38.631Z" fill="white"/>
<path id="Vector_44" d="M28.0038 29.6297H28.859V27.0193H30.2092V29.6297H31.4244C31.9644 29.6297 32.3695 29.4946 32.6396 29.1796C32.9096 28.9095 33.0896 28.5045 33.0896 27.9644V27.7394C33.0896 27.2443 32.9546 26.8392 32.6846 26.5692C32.4145 26.2991 32.0095 26.1641 31.4694 26.1641H30.3442H30.2092H27.0137V27.0193H28.0038V29.6297ZM31.1093 27.0193H31.4244C31.6944 27.0193 31.8744 27.0643 32.0095 27.1993C32.1445 27.3343 32.1895 27.5143 32.1895 27.7844V28.0094C32.1895 28.3245 32.1445 28.5495 32.0095 28.6395C31.8744 28.7745 31.6944 28.8195 31.4244 28.8195H31.1093V27.0193Z" fill="white"/>
<path id="Vector_45" d="M34.5309 26.1641H33.6758V29.6297H34.5309V26.1641Z" fill="white"/>
<path id="Vector_46" d="M35.4733 29.3144C35.6084 29.4494 35.7434 29.5394 35.9234 29.6294C36.1034 29.6744 36.2835 29.7194 36.5085 29.7194C36.7335 29.7194 36.9136 29.6744 37.0936 29.6294C37.2736 29.5844 37.4086 29.4494 37.5437 29.3144C37.6787 29.1793 37.7687 29.0443 37.8137 28.8643C37.8587 28.6843 37.9037 28.5042 37.9037 28.2792V26.2539H37.0486V28.2792C37.0486 28.5042 37.0036 28.6843 36.9136 28.7743C36.8235 28.8643 36.6885 28.9093 36.5085 28.9093C36.3285 28.9093 36.1934 28.8643 36.1034 28.7743C36.0134 28.6843 35.9684 28.5042 35.9684 28.2792V26.2539H35.1133V28.2792C35.1133 28.5042 35.1583 28.6843 35.2033 28.8643C35.2483 28.9993 35.3383 29.1793 35.4733 29.3144Z" fill="white"/>
<path id="Vector_47" d="M30.8387 4.20068V6.94611H30.2086V4.83078L29.6236 5.19084L29.3535 4.78577L30.2537 4.20068H30.8387Z" fill="white"/>
<path id="Vector_48" d="M33.1342 4.4258C33.3142 4.60583 33.4042 4.87587 33.4042 5.19092C33.4042 5.55098 33.3592 5.86603 33.2242 6.09106C33.0892 6.3161 32.9091 6.54113 32.6841 6.67615C32.4141 6.81117 32.099 6.94619 31.694 7.03621L31.5589 6.58614C31.919 6.49612 32.189 6.40611 32.3691 6.27109C32.5491 6.13607 32.6841 5.95604 32.7291 5.731C32.5941 5.91103 32.4141 6.00105 32.144 6.00105C32.009 6.00105 31.874 5.95604 31.739 5.91103C31.6039 5.82102 31.5139 5.731 31.4689 5.59598C31.3789 5.46096 31.3789 5.28093 31.3789 5.10091C31.3789 4.92088 31.4239 4.74085 31.5139 4.60583C31.6039 4.47081 31.739 4.33579 31.874 4.29078C32.009 4.20076 32.189 4.15576 32.3691 4.15576C32.6841 4.15576 32.9542 4.24577 33.1342 4.4258ZM32.5491 5.46096C32.6391 5.41595 32.6841 5.37095 32.7291 5.28093C32.7291 5.01089 32.6841 4.83086 32.6391 4.74085C32.5941 4.65084 32.5041 4.56082 32.3691 4.56082C32.234 4.56082 32.144 4.60583 32.099 4.69584C32.054 4.78586 32.009 4.87587 32.009 5.0559C32.009 5.23593 32.054 5.32594 32.099 5.41595C32.144 5.50597 32.234 5.50597 32.3241 5.50597C32.4141 5.55098 32.4591 5.50597 32.5491 5.46096Z" fill="white"/>
<path id="Vector_49" d="M34.9815 4.24537C35.1165 4.29038 35.2065 4.38039 35.2515 4.47041C35.3416 4.56042 35.3416 4.69544 35.3416 4.83046C35.3416 5.01049 35.2965 5.14551 35.2065 5.23553C35.1165 5.32554 34.9815 5.41556 34.8015 5.46056C34.9815 5.46056 35.1165 5.55058 35.2515 5.64059C35.3866 5.7306 35.4316 5.91063 35.4316 6.13567C35.4316 6.27069 35.3866 6.45072 35.2965 6.54073C35.2065 6.67575 35.1165 6.76577 34.9365 6.85578C34.7565 6.94579 34.5764 6.9908 34.3514 6.9908C33.9463 6.9908 33.6313 6.85578 33.4062 6.58574L33.7663 6.27069C33.8563 6.3607 33.9463 6.45072 34.0364 6.45072C34.1264 6.49572 34.2164 6.49572 34.3064 6.49572C34.4414 6.49572 34.5314 6.45072 34.6214 6.40571C34.7115 6.3157 34.7565 6.22568 34.7565 6.13567C34.7565 6.00065 34.7115 5.91063 34.6665 5.82062C34.6214 5.7306 34.4864 5.7306 34.3514 5.7306H34.1264L34.2164 5.28053H34.3964C34.5314 5.28053 34.6214 5.23553 34.6665 5.19052C34.7565 5.14551 34.7565 5.0555 34.7565 4.92048C34.7565 4.83046 34.7115 4.74045 34.6665 4.69544C34.6214 4.65044 34.5314 4.60543 34.3964 4.60543C34.2164 4.60543 34.0363 4.69544 33.8563 4.83046L33.5413 4.47041C33.8113 4.24537 34.1264 4.11035 34.4864 4.11035C34.6664 4.15536 34.8015 4.15536 34.9815 4.24537Z" fill="white"/>
<path id="Vector_50" d="M37.1415 4.20068V6.94611H36.5114V4.83078L35.9263 5.19084L35.6562 4.74077L36.5564 4.20068H37.1415Z" fill="white"/>
</g>
<defs>
<clipPath id="clip0_10_162">
<rect width="65" height="64" fill="white" transform="translate(0.5 0.419922)"/>
</clipPath>
</defs>
</svg>
