<svg width="27" height="47" viewBox="0 0 27 47" fill="none" xmlns="http://www.w3.org/2000/svg">
<g id="SVG - icon">
<path id="Vector" d="M13.3913 20.6952L22.6404 21.536L14.0412 38.7343L14.6979 27.5705C14.736 26.9238 14.2538 26.3637 13.6086 26.305L4.35958 25.4642L12.9588 8.26582L12.3021 19.4296C12.264 20.0763 12.7462 20.6365 13.3913 20.6952ZM24.6086 19.305L14.7662 18.4102L15.6979 2.57054C15.7745 1.26785 14.0103 0.796241 13.4267 1.96341L1.42668 25.9634C1.04873 26.7193 1.54971 27.6186 2.39135 27.6952L12.2338 28.5899L11.3021 44.4296C11.2254 45.7323 12.9897 46.2039 13.5733 45.0367L25.5733 21.0367C25.9513 20.2809 25.4503 19.3815 24.6086 19.305Z" fill="#00A795" stroke="#00A795" stroke-width="0.4"/>
</g>
</svg>
