<svg width="61" height="33" viewBox="0 0 61 33" fill="none" xmlns="http://www.w3.org/2000/svg">
<g id="Link &#226;&#134;&#146; SVG - icon" opacity="0.8">
<path id="Vector" d="M19.9886 7.88404C11.834 5.93327 6.13522 10.569 2.62991 5.35643C2.61941 5.33543 2.60892 5.32495 2.59843 5.30398C2.50398 5.15715 2.62991 4.94739 2.79782 4.98933C10.0184 6.70939 11.1938 5.6396 14.2269 6.00667C17.029 6.34229 19.9886 7.88404 19.9886 7.88404Z" fill="white"/>
<path id="Vector_2" d="M21.4262 9.19477C14.2475 8.13549 9.15739 13.4949 5.31623 9.37308C5.30573 9.3626 5.29524 9.34162 5.27425 9.33114C5.16931 9.21577 5.24277 9.00601 5.40018 9.01649C11.9596 9.49894 13.5023 8.34526 16.1997 8.22989C18.7183 8.12501 21.4262 9.19477 21.4262 9.19477Z" fill="white"/>
<path id="Vector_3" d="M22.7592 10.8834C16.4936 10.0339 13.807 15.6555 8.72743 12.2154C8.71694 12.2049 8.70643 12.1945 8.68545 12.1735C8.5805 12.0791 8.61199 11.8064 8.75891 11.8064C14.3108 11.8169 15.7591 10.5268 18.0996 10.2437C21.2691 9.8661 22.7592 10.8834 22.7592 10.8834Z" fill="white"/>
<path id="Vector_4" d="M25.5823 12.7398C22.3079 13.0859 22.8222 15.7079 19.233 15.1205C18.7607 15.0471 18.8657 14.7115 19.0756 14.6486C22.0876 13.7885 22.0876 13.2117 23.1686 12.7817C24.1971 12.3936 25.5823 12.7398 25.5823 12.7398Z" fill="white"/>
<path id="Vector_5" d="M24.1023 11.9321C19.3796 12.0265 18.1728 15.4141 14.1951 14.3129C13.5864 14.1451 13.7963 13.6836 14.1217 13.6417C18.6766 12.918 18.8968 12.2468 20.5865 11.8482C22.1712 11.4706 24.1023 11.9321 24.1023 11.9321Z" fill="white"/>
<path id="Vector_6" d="M21.4049 7.87339C21.3734 7.92583 21.3 7.9363 21.2475 7.91533C20.2715 7.35946 19.3586 6.7092 18.3091 5.99602C17.3225 5.33527 15.2025 4.4333 10.7946 4.64306C8.69559 4.74794 5.50514 5.17797 2.20972 2.92303C1.41209 2.38813 0.603972 1.47567 0.184173 0.626164C0.142196 0.552737 0.121207 0.45834 0.110713 0.363943C0.100219 0.269546 0.205161 0.196148 0.299638 0.227605C8.45423 3.49987 10.7841 2.22035 15.9162 3.40547C18.0256 3.89843 20.6388 6.96093 21.3946 7.72654C21.4365 7.75802 21.4365 7.82093 21.4049 7.87339Z" fill="white"/>
<path id="Vector_7" d="M28.4997 25.8081C28.4051 26.1015 28.426 26.4478 28.2374 26.6995C28.0063 27.0352 27.4397 27.0666 27.1667 26.7623C26.9884 26.6052 26.9884 26.3535 26.9253 26.1541C26.5161 24.3607 26.1173 22.567 25.7185 20.7631C25.6766 20.6374 25.7185 20.5534 25.8443 20.5011C26.0439 20.4485 26.0648 20.6688 26.1276 20.7948C26.5789 22.0219 26.9987 23.2593 27.4606 24.4864C27.6074 24.9061 28.1009 24.7695 28.426 24.8747C28.7724 25.0947 28.5625 25.5038 28.4997 25.8081Z" fill="white"/>
<path id="Vector_8" d="M29.035 20.8574C29.0771 20.9729 29.014 21.1091 28.8882 21.13C28.8148 21.1406 28.7517 21.13 28.7308 21.0251C28.4262 20.4169 28.1639 19.7772 27.8491 19.1689C27.4399 18.8226 27.0095 18.4661 26.7578 17.9732C26.3065 17.1761 26.3483 16.1378 26.8521 15.3721C26.894 15.3197 26.9255 15.2568 26.9677 15.2043C27.0411 15.0995 27.1985 15.1204 27.2403 15.2463C27.2719 15.3407 27.2928 15.4351 27.335 15.519C27.9015 17.2915 28.4475 19.0849 29.035 20.8574Z" fill="white"/>
<path id="Vector_9" d="M29.119 12.4148C29.0981 12.8867 28.9198 13.3272 28.8042 13.7782C28.7936 13.8097 28.7833 13.8307 28.7517 13.8411C28.6783 13.8726 28.6049 13.8202 28.6049 13.7468C28.6152 13.128 28.8357 12.5197 28.6783 11.9113C28.4475 11.0828 27.8806 10.3591 27.8388 9.47815C27.8176 9.01668 27.9331 8.5657 28.0277 8.11471C27.6917 7.41202 27.5343 6.60442 27.7126 5.83881C27.7442 5.74441 27.7548 5.74441 27.8072 5.81781C28.1327 6.2898 28.5628 6.76175 28.5628 7.38053C28.5209 8.26153 28.0381 9.14253 28.3635 10.0235C28.6259 10.8101 29.1924 11.5443 29.119 12.4148Z" fill="white"/>
<path id="Vector_10" d="M31.8892 9.37298C31.8682 10.5266 30.8607 11.4496 30.9762 12.6243C30.9762 13.0752 31.0915 13.5367 31.039 13.9877C30.9656 14.3862 30.5143 14.4492 30.1892 14.5436C30.0002 14.6275 29.7903 14.4072 29.8428 14.2184C29.8428 12.855 29.8428 11.4811 29.8428 10.1176C29.8637 9.55129 30.0002 8.95345 30.3884 8.52346C30.6299 8.24027 30.8816 7.95711 31.144 7.67392C31.1964 7.61098 31.228 7.53758 31.2177 7.46415C31.1964 7.21245 31.144 6.99219 31.2595 6.69852C31.4379 6.33144 31.669 6.11119 31.9101 5.86997C31.9522 5.82803 32.015 5.849 32.0257 5.90143C32.1937 6.64609 32.0257 7.45367 31.6793 8.1249C31.7633 8.52346 31.8892 8.94296 31.8892 9.37298Z" fill="white"/>
<path id="Vector_11" d="M45.1448 5.15689C43.7175 5.55542 43.0563 6.03786 42.4897 6.48884C42.4897 6.48884 43.7806 6.03787 45.638 5.83861C50.9066 5.26178 51.2109 7.22302 57.1091 4.94712C57.3084 4.91568 57.3609 5.07297 57.3084 5.15689C56.5214 6.52033 55.6503 8.0306 52.3549 8.16693C48.7656 8.3138 46.8976 6.87692 43.5285 7.30693C41.3772 7.57961 40.2647 8.25085 39.6454 8.65989C46.9919 7.25449 46.3832 10.4848 53.5827 8.76478C53.6667 8.74378 53.7613 8.7228 53.8453 8.73329C54.034 8.75426 54.1077 8.98502 53.9921 9.11088C53.9397 9.17379 53.8662 9.23673 53.8138 9.29964C52.8693 10.317 51.8721 11.4287 48.5136 11.177C44.5676 10.8833 44.3159 8.43964 36.7804 10.3065C44.0848 10.275 43.9589 12.6663 49.4584 11.9531C49.6473 11.9321 49.7626 12.1629 49.6158 12.2887C49.5318 12.3621 49.4372 12.4251 49.3637 12.488C48.5348 13.1383 47.3277 13.9353 45.0608 13.4739C40.3381 12.488 40.9365 10.5372 34.8599 11.607C39.5929 11.7329 39.2677 13.5683 44.1269 14.0193C44.1269 14.0193 44.1269 14.0193 44.1373 14.0193C44.3996 14.0507 44.4733 14.3968 44.2528 14.5437C44.0848 14.659 43.8958 14.7429 43.7175 14.8163C40.1704 16.1903 38.5225 11.7434 34.1671 12.7397C37.2842 13.0124 37.0321 14.0612 39.8449 14.8268C40.1491 14.9107 40.1179 15.3198 39.7818 15.3512C36.4446 15.6869 36.7385 13.4424 34.6918 13.3585C34.1462 13.3375 33.6424 13.6312 33.3694 14.1137C32.5614 15.519 32.8866 16.851 32.8341 17.5747C33.0231 18.3298 33.3067 19.0641 33.317 19.861C33.3276 20.4169 33.2751 20.9938 33.0965 21.5286C32.7607 22.6403 32.425 23.7523 32.0786 24.8745C32.0052 25.1051 32.0155 25.3568 32.0995 25.5771C32.2254 25.9128 32.3516 26.2379 32.404 26.5945C32.5299 27.1922 32.4459 27.811 32.236 28.3878C31.7953 29.4681 31.3543 30.5483 30.9136 31.6392C30.8296 31.8383 30.7668 32.0483 30.6197 32.216C30.3995 32.258 30.4204 31.9749 30.4414 31.8383C30.8718 27.8004 31.2809 23.7625 31.7007 19.7247L32.0367 18.7598C31.3755 19.3261 31.0816 20.1127 30.6513 20.8155C30.5988 20.9832 30.347 21.0146 30.2946 20.8261C30.3364 20.1232 30.4308 19.4207 30.452 18.7179C30.5148 18.0047 30.5045 17.281 30.7459 16.5993C31.0186 15.9071 31.5433 15.3512 31.9527 14.7534C32.6242 13.8934 33.128 12.918 33.4744 11.8902C33.6843 11.2609 34.1253 10.705 34.6918 10.3589C36.6545 9.12136 37.7983 8.05157 39.656 6.64618C41.3666 5.35614 42.689 4.34928 43.4448 4.04515C46.8976 2.62925 53.8347 4.15003 59.7749 0.290444C59.9217 0.206532 60.1106 0.374327 59.9954 0.615548C59.4391 2.02096 58.7779 2.92294 57.2035 3.69905C52.6697 5.933 47.4642 4.50662 45.1448 5.15689Z" fill="white"/>
<path id="Vector_12" d="M31.3754 7.57982C31.3754 7.57982 30.9869 6.8981 30.0424 6.81418C29.3287 6.75127 29.0036 6.99249 29.0036 6.99249C29.0036 6.99249 29.864 6.74079 30.5358 7.3386C31.2074 7.93641 30.8401 8.45033 30.8401 8.45033C30.8401 8.45033 31.5747 8.02032 31.3754 7.57982Z" fill="white"/>
<path id="Vector_13" d="M31.3334 7.4853C31.3334 7.4853 30.8402 6.96092 29.8327 6.91895C29.8327 6.91895 30.4308 7.06577 30.5045 7.39091C30.6303 8.00972 30.0847 8.83825 29.9797 9.23681C29.8957 9.59341 31.3334 7.4853 31.3334 7.4853Z" fill="white"/>
</g>
</svg>
