<svg width="60" height="31" viewBox="0 0 60 31" fill="none" xmlns="http://www.w3.org/2000/svg">
<g id="about-vilz.svg" clip-path="url(#clip0_10_217)">
<path id="Vector" d="M18.5209 10.4457C18.6382 10.6816 18.7115 10.8733 18.7408 11.0208C18.7995 11.1977 18.8141 11.3746 18.7848 11.5516C18.7848 11.7285 18.7701 11.9054 18.7408 12.0824C18.4475 14.7364 17.861 17.3315 16.9812 19.8676C16.1015 22.3742 14.8698 24.6891 13.2862 26.8123C12.9636 27.2252 12.6263 27.6085 12.2744 27.9624C11.9225 28.3163 11.5119 28.6112 11.0427 28.8471C10.3096 29.201 9.53242 29.3189 8.71129 29.201C7.91949 29.1125 7.17168 28.8766 6.46785 28.4932C5.29481 27.8739 4.35638 27.0187 3.65255 25.9276C3.15401 25.1609 2.77277 24.3205 2.50883 23.4063C2.2449 22.5216 2.03962 21.6222 1.89299 20.708C1.6877 19.499 1.52641 18.3046 1.40911 17.1251C1.32113 15.916 1.24781 14.6922 1.18916 13.4536C1.15984 12.9818 1.11585 12.5247 1.0572 12.0824C0.998543 11.6106 0.895902 11.1535 0.749271 10.7111C0.661293 10.4752 0.587978 10.2835 0.529326 10.1361C0.470674 9.98863 0.5 9.79694 0.617304 9.56103C0.79326 9.20716 1.04253 8.9565 1.36512 8.80905C1.86366 8.57314 2.42086 8.49941 3.0367 8.58788C3.74053 8.64686 4.41503 8.85329 5.0602 9.20716C5.7347 9.53154 6.27723 9.98863 6.6878 10.5784C7.09836 11.1977 7.33297 11.876 7.39162 12.6132C7.4796 13.3209 7.55291 14.0434 7.61157 14.7807C7.67022 16.0782 7.7582 17.361 7.8755 18.629C7.99281 19.8971 8.1541 21.1651 8.35938 22.4332C9.38579 20.7523 10.2216 18.9682 10.8668 17.0808C11.5119 15.1935 11.9518 13.2767 12.1864 11.3304C12.2451 10.8291 12.3331 10.3425 12.4504 9.87067C12.597 9.36935 12.8756 8.98599 13.2862 8.72058C13.5208 8.57313 13.7847 8.48467 14.078 8.45518C14.3712 8.42569 14.6645 8.44043 14.9577 8.49941C15.7495 8.58788 16.512 8.83854 17.2452 9.25139C17.4798 9.39884 17.7144 9.57577 17.949 9.7822C18.1836 9.98863 18.3742 10.2098 18.5209 10.4457Z" fill="white"/>
<path id="Vector_2" d="M28.0586 27.299C28.0586 27.2105 28.0439 27.1073 28.0146 26.9894C28.0146 26.9009 28.0146 26.7977 28.0146 26.6797C27.9559 25.972 27.9119 25.2642 27.8826 24.5565C27.8826 23.8487 27.8973 23.141 27.9266 22.4333C27.9559 20.9883 27.9999 19.558 28.0586 18.1425C28.1172 16.7271 28.1466 15.2968 28.1466 13.8518C28.1759 13.2621 28.1612 12.687 28.1026 12.1267C28.0439 11.5369 27.868 10.9914 27.5747 10.4901C27.1935 9.81182 26.6509 9.3105 25.9471 8.98612C25.2433 8.63224 24.5101 8.42582 23.7477 8.36684C23.513 8.33735 23.2784 8.33735 23.0438 8.36684C22.8092 8.36684 22.5746 8.41107 22.34 8.49954C21.7828 8.70597 21.4602 9.04509 21.3722 9.51692C21.3429 9.75284 21.3429 9.97401 21.3722 10.1804C21.4309 10.3574 21.4895 10.549 21.5482 10.7555C21.6655 11.1683 21.7242 11.5959 21.7242 12.0382C21.7535 12.4806 21.7535 12.9229 21.7242 13.3653L21.4602 23.4949C21.4309 24.2616 21.4456 25.0283 21.5042 25.795C21.5922 26.5618 21.8708 27.24 22.34 27.8298C22.7212 28.3016 23.1905 28.6555 23.7477 28.8914C24.3342 29.1568 24.9354 29.3338 25.5512 29.4222C25.8445 29.4517 26.1377 29.4665 26.431 29.4665C26.7242 29.4665 27.0028 29.3927 27.2668 29.2453C27.7653 29.0094 28.0293 28.7292 28.0586 28.4048C28.1172 28.0805 28.1172 27.7118 28.0586 27.299Z" fill="white"/>
<path id="Vector_3" d="M38.0176 27.3877C38.047 27.4172 38.0616 27.4614 38.0616 27.5204C38.1203 27.8448 38.1056 28.1396 38.0176 28.405C37.959 28.6999 37.7684 28.9506 37.4458 29.157C37.0645 29.3635 36.61 29.4667 36.0821 29.4667C35.2903 29.4667 34.5278 29.2897 33.7947 28.9359C33.0615 28.641 32.5043 28.1986 32.1231 27.6088C31.8298 27.1665 31.6539 26.6799 31.5952 26.1491C31.5366 25.6183 31.4926 25.0875 31.4633 24.5567C31.4046 21.7552 31.4193 18.9684 31.5073 16.1964C31.6246 13.395 31.6832 10.5935 31.6832 7.79197C31.6832 7.55605 31.6685 7.32014 31.6392 7.08422C31.6392 6.84831 31.6099 6.61239 31.5512 6.37648C31.4926 6.19954 31.4339 6.0226 31.3753 5.84567C31.3166 5.66873 31.2873 5.49179 31.2873 5.31486C31.2873 5.01996 31.3753 4.76931 31.5512 4.56288C31.7272 4.32696 31.9325 4.15003 32.1671 4.03207C32.431 3.91411 32.695 3.85513 32.9589 3.85513C33.2522 3.82564 33.5308 3.82564 33.7947 3.85513C34.5278 3.9436 35.217 4.16477 35.8622 4.51864C36.5367 4.84303 37.0792 5.31486 37.4898 5.93414C37.8124 6.49443 38.003 7.11371 38.0616 7.79197C38.1203 8.44073 38.1349 9.0895 38.1056 9.73826L37.9297 19.1601C37.9003 20.1333 37.871 21.1064 37.8417 22.0796C37.8417 23.0232 37.8563 23.9816 37.8857 24.9548C37.8857 25.751 37.9297 26.562 38.0176 27.3877Z" fill="white"/>
<path id="Vector_4" d="M59.3341 26.9007C59.5394 27.343 59.5541 27.7559 59.3781 28.1392C59.1728 28.5521 58.8356 28.8028 58.3664 28.8912C57.8971 28.9797 57.4426 29.0239 57.0027 29.0239C55.5951 28.9944 54.1874 28.9797 52.7798 28.9797C51.4014 28.9797 50.0084 29.0387 48.6008 29.1566C47.8676 29.2156 47.1345 29.2598 46.4013 29.2893C45.6682 29.3483 44.935 29.2893 44.2019 29.1124C43.7033 28.9649 43.2195 28.7585 42.7502 28.4931C42.3104 28.2277 41.9291 27.8886 41.6065 27.4757C41.2253 26.9449 41.0933 26.4878 41.2106 26.1045C41.3573 25.7506 41.6065 25.3378 41.9584 24.8659L51.0202 12.8343C50.2284 12.7753 49.4366 12.8048 48.6448 12.9227C47.853 13.0407 47.0612 13.1292 46.2694 13.1881C45.4776 13.2471 44.6711 13.1734 43.85 12.967C43.0582 12.7605 42.3983 12.3624 41.8705 11.7726C41.6065 11.4483 41.4159 11.0796 41.2986 10.6668C41.2106 10.2539 41.2839 9.88534 41.5185 9.56096C41.7238 9.32504 41.9731 9.16285 42.2664 9.07438C42.5596 8.98592 42.8675 8.9122 43.1901 8.85322C44.3925 8.70578 45.5655 8.60257 46.7093 8.54359C47.8823 8.45512 49.07 8.38139 50.2724 8.32242C50.9469 8.26344 51.6067 8.23395 52.2519 8.23395C52.9264 8.20446 53.6009 8.24869 54.2754 8.36665C54.9499 8.48461 55.5951 8.67629 56.2109 8.94169C56.8267 9.2071 57.3693 9.59046 57.8385 10.0917C58.1318 10.3866 58.3664 10.7258 58.5423 11.1091C58.7183 11.463 58.7916 11.8464 58.7623 12.2592C58.7329 12.6426 58.6303 12.9965 58.4543 13.3208C58.2784 13.6452 58.0731 13.9549 57.8385 14.2497C55.4044 17.7885 52.8971 21.2387 50.3164 24.6005C51.0202 24.6595 51.724 24.6595 52.4278 24.6005C53.161 24.571 53.8941 24.571 54.6273 24.6005C55.3604 24.63 56.0789 24.7332 56.7828 24.9102C57.4866 25.0871 58.1024 25.4262 58.6303 25.9275C58.9529 26.2224 59.1875 26.5468 59.3341 26.9007Z" fill="white"/>
<path id="Vector_5" d="M27.1739 6.24386C27.8777 5.56561 28.2297 4.72516 28.2297 3.72252C28.2297 2.74937 27.8777 1.92367 27.1739 1.24541C26.4994 0.567155 25.6783 0.228027 24.7105 0.228027C23.7428 0.228027 22.907 0.567155 22.2032 1.24541C21.5287 1.92367 21.1914 2.74937 21.1914 3.72252C21.1914 4.72516 21.5287 5.56561 22.2032 6.24386C22.907 6.92212 23.7428 7.26124 24.7105 7.26124C25.6783 7.26124 26.4994 6.92212 27.1739 6.24386Z" fill="#CC2132"/>
</g>
<defs>
<clipPath id="clip0_10_217">
<rect width="59" height="30" fill="white" transform="translate(0.5 0.0600586)"/>
</clipPath>
</defs>
</svg>
