<svg width="38" height="39" viewBox="0 0 38 39" fill="none" xmlns="http://www.w3.org/2000/svg">
<g id="twitter.svg">
<path id="Vector" d="M27.7083 13.7822C27.0677 14.0682 26.3785 14.2616 25.6559 14.348C26.3937 13.903 26.96 13.1987 27.2273 12.3582C26.5369 12.7705 25.7718 13.0696 24.9583 13.2309C24.3065 12.532 23.3777 12.0952 22.3494 12.0952C20.3763 12.0952 18.7761 13.7063 18.7761 15.6927C18.7761 15.9746 18.8079 16.249 18.8691 16.5125C15.8995 16.3626 13.2664 14.9304 11.5039 12.7534C11.1964 13.2845 11.02 13.903 11.02 14.5622C11.02 15.8099 11.6512 16.9115 12.6096 17.5564C12.024 17.538 11.4727 17.3762 10.9912 17.1059C10.9909 17.1212 10.9909 17.1365 10.9909 17.1516C10.9909 18.8947 12.2231 20.3485 13.8574 20.6788C13.5579 20.7614 13.2416 20.8051 12.9162 20.8051C12.6854 20.8051 12.4619 20.7829 12.2439 20.741C12.6985 22.1699 14.0179 23.21 15.5819 23.2392C14.3587 24.2043 12.8181 24.7792 11.1436 24.7792C10.8557 24.7792 10.5706 24.7623 10.2917 24.7288C11.8721 25.7499 13.7508 26.3452 15.7686 26.3452C22.3411 26.3452 25.9354 20.8636 25.9354 16.1093C25.9354 15.9535 25.9319 15.7981 25.9251 15.6441C26.6237 15.137 27.2294 14.5036 27.7083 13.7822Z" fill="white"/>
</g>
</svg>
